<?xml version="1.0" encoding="utf-8"?>
<!-- Generator: Adobe Illustrator 28.0.0, SVG Export Plug-In . SVG Version: 6.00 Build 0)  -->
<svg version="1.1" id="Layer_1" xmlns="http://www.w3.org/2000/svg" xmlns:xlink="http://www.w3.org/1999/xlink" x="0px" y="0px"
	 viewBox="0 0 638.2 376" style="enable-background:new 0 0 638.2 376;" xml:space="preserve">
<style type="text/css">
	.st0{clip-path:url(#SVGID_00000065753202003980515110000006518825412624061335_);fill:#FFCC00;}
	.st1{fill:#FFFFFF;stroke:#FFFFFF;stroke-width:0.8;stroke-linejoin:round;}
	.st2{fill:#FFFFFF;}
	.st3{font-family:'.LucidaGrandeUI';}
	.st4{font-size:10px;}
	.st5{font-family:'ArialMT';}
	.st6{font-size:12px;}
	
		.st7{clip-path:url(#SVGID_00000170964270316076546700000018045415082091156147_);fill:none;stroke:#8C8680;stroke-width:1.5;stroke-linejoin:round;stroke-opacity:0.6;stroke-dasharray:1.5,2.475;}
	.st8{clip-path:url(#SVGID_00000085219328574117358770000002370604950429530503_);}
	.st9{fill:#8C8680;stroke:#8C8680;stroke-linejoin:round;}
	
		.st10{clip-path:url(#SVGID_00000173848389776683156170000011235623824053270915_);fill:none;stroke:#E6DB67;stroke-width:1.5;stroke-linejoin:round;stroke-opacity:0.6;stroke-dasharray:1.5,2.475;}
	.st11{clip-path:url(#SVGID_00000124154806622497836930000009506761935772320133_);}
	.st12{fill:#E6DB67;stroke:#E6DB67;stroke-linejoin:round;}
	
		.st13{clip-path:url(#SVGID_00000132059342404083842110000008223669671089175739_);fill:none;stroke:#2A7BD1;stroke-width:1.5;stroke-linejoin:round;stroke-opacity:0.6;stroke-dasharray:1.5,2.475;}
	.st14{clip-path:url(#SVGID_00000045591387327856053030000011386491897343856818_);}
	.st15{fill:#2A7BD1;stroke:#2A7BD1;stroke-linejoin:round;}
	
		.st16{clip-path:url(#SVGID_00000106847077752463135470000013443121859222395303_);fill:none;stroke:#CC653F;stroke-width:1.5;stroke-linejoin:round;stroke-opacity:0.6;stroke-dasharray:1.5,2.475;}
	.st17{clip-path:url(#SVGID_00000054982948911279764830000015854473588016562310_);}
	.st18{fill:#CC653F;stroke:#CC653F;stroke-linejoin:round;}
	
		.st19{clip-path:url(#SVGID_00000145753470956042304920000000628387138849586588_);fill:none;stroke:#BF8F5C;stroke-width:1.5;stroke-linejoin:round;stroke-opacity:0.6;stroke-dasharray:1.5,2.475;}
	.st20{clip-path:url(#SVGID_00000062178332081546722980000004257664083584603576_);}
	.st21{fill:#BF8F5C;stroke:#BF8F5C;stroke-linejoin:round;}
	
		.st22{clip-path:url(#SVGID_00000147905703992255017160000005591897879771824802_);fill:none;stroke:#FFFFFF;stroke-width:2;stroke-linecap:square;stroke-linejoin:round;}
	
		.st23{clip-path:url(#SVGID_00000152253257333899864230000017324792215082032808_);fill:none;stroke:#FF0000;stroke-width:1.5;stroke-linecap:square;stroke-linejoin:round;}
	.st24{fill:none;stroke:#FFFFFF;stroke-width:0.8;stroke-linecap:square;}
	.st25{opacity:0.8;fill:#FFFFFF;stroke:#CCCCCC;enable-background:new    ;}
	.st26{font-size:9.8941px;}
	.st27{fill:none;stroke:#8C8680;stroke-width:1.5;stroke-linejoin:round;stroke-opacity:0.6;stroke-dasharray:1.5,2.475;}
	.st28{fill:none;stroke:#E6DB67;stroke-width:1.5;stroke-linejoin:round;stroke-opacity:0.6;stroke-dasharray:1.5,2.475;}
	.st29{fill:none;stroke:#2A7BD1;stroke-width:1.5;stroke-linejoin:round;stroke-opacity:0.6;stroke-dasharray:1.5,2.475;}
	.st30{fill:none;stroke:#CC653F;stroke-width:1.5;stroke-linejoin:round;stroke-opacity:0.6;stroke-dasharray:1.5,2.475;}
	.st31{fill:none;stroke:#BF8F5C;stroke-width:1.5;stroke-linejoin:round;stroke-opacity:0.6;stroke-dasharray:1.5,2.475;}
	.st32{fill:none;stroke:#FFFFFF;stroke-width:1.5;stroke-linecap:square;stroke-linejoin:round;}
	.st33{fill:none;stroke:#FF0000;stroke-width:1.5;stroke-linecap:square;stroke-linejoin:round;}
	.st34{clip-path:url(#SVGID_00000084501480087342124690000007789848453204316846_);fill:#FFCC00;}
	.st35{font-size:6.4663px;}
	.st36{font-size:7.7595px;}
	.st37{font-size:6.8545px;}
	.st38{font-size:8.2254px;}
	
		.st39{clip-path:url(#SVGID_00000123442750419029416210000017700075417494397111_);fill:none;stroke:#8C8680;stroke-width:1.5;stroke-linejoin:round;stroke-opacity:0.6;stroke-dasharray:1.5,2.475;}
	.st40{clip-path:url(#SVGID_00000072274889332708075940000006051950344504880776_);}
	
		.st41{clip-path:url(#SVGID_00000083047391372149807100000003044504052418299064_);fill:none;stroke:#E6DB67;stroke-width:1.5;stroke-linejoin:round;stroke-opacity:0.6;stroke-dasharray:1.5,2.475;}
	.st42{clip-path:url(#SVGID_00000016035069552248416310000002314238180963457714_);}
	
		.st43{clip-path:url(#SVGID_00000139264319616412907280000004473930937596137887_);fill:none;stroke:#2A7BD1;stroke-width:1.5;stroke-linejoin:round;stroke-opacity:0.6;stroke-dasharray:1.5,2.475;}
	.st44{clip-path:url(#SVGID_00000178196108324466610330000009250343623782846617_);}
	
		.st45{clip-path:url(#SVGID_00000140707597961672715550000011326207077992088494_);fill:none;stroke:#FF0000;stroke-width:2;stroke-linecap:square;stroke-linejoin:round;}
</style>
<g id="figure_1">
	<g id="patch_1">
		<path d="M0,376h638.2V0H0V376z"/>
	</g>
	<g id="axes_1">
		<g id="patch_2">
			<path d="M39.3,346h332.3V13.4H39.3V346z"/>
		</g>
		<g id="patch_3">
			<g>
				<defs>
					<rect id="SVGID_1_" x="39.3" y="13.4" width="332.3" height="332.6"/>
				</defs>
				<clipPath id="SVGID_00000111152097396478167080000004056479230860690079_">
					<use xlink:href="#SVGID_1_"  style="overflow:visible;"/>
				</clipPath>
				<path style="clip-path:url(#SVGID_00000111152097396478167080000004056479230860690079_);fill:#FFCC00;" d="M205.7,187.8
					c0.2,0,0.4-0.1,0.5-0.2s0.2-0.3,0.2-0.5s-0.1-0.4-0.2-0.5s-0.3-0.2-0.5-0.2c-0.2,0-0.4,0.1-0.5,0.2s-0.2,0.3-0.2,0.5
					s0.1,0.4,0.2,0.5S205.5,187.8,205.7,187.8z"/>
			</g>
		</g>
		<g id="matplotlib.axis_1">
			<g id="xtick_1">
				<g id="line2d_1">
					<g>
						<g>
							<path id="m94e9d7f268" class="st1" d="M50.3,346v3.5"/>
						</g>
					</g>
				</g>
				<g id="text_1">
					<text transform="matrix(1 0 0 1 43.1717 360.6228)" class="st2 st3 st4">−8</text>
				</g>
			</g>
			<g id="xtick_2">
				<g id="line2d_2">
					<g>
						<g>
							<path id="m94e9d7f268_00000072269994325266408870000014724427706342343075_" class="st1" d="M89.2,346v3.5"/>
						</g>
					</g>
				</g>
				<g id="text_2">
					<text transform="matrix(1 0 0 1 82.0295 360.6228)" class="st2 st3 st4">−6</text>
				</g>
			</g>
			<g id="xtick_3">
				<g id="line2d_3">
					<g>
						<g>
							<path id="m94e9d7f268_00000056424315579401581750000001671099867542841747_" class="st1" d="M128,346v3.5"/>
						</g>
					</g>
				</g>
				<g id="text_3">
					<text transform="matrix(1 0 0 1 120.8874 360.6228)" class="st2 st3 st4">−4</text>
				</g>
			</g>
			<g id="xtick_4">
				<g id="line2d_4">
					<g>
						<g>
							<path id="m94e9d7f268_00000065058875096787291200000000013291138017148319_" class="st1" d="M166.9,346v3.5"/>
						</g>
					</g>
				</g>
				<g id="text_4">
					<text transform="matrix(1 0 0 1 159.7453 360.6228)" class="st2 st3 st4">−2</text>
				</g>
			</g>
			<g id="xtick_5">
				<g id="line2d_5">
					<g>
						<g>
							<path id="m94e9d7f268_00000061458856936839345710000004102123135962003887_" class="st1" d="M205.7,346v3.5"/>
						</g>
					</g>
				</g>
				<g id="text_5">
					<text transform="matrix(1 0 0 1 202.5802 360.6228)" class="st2 st3 st4">0</text>
				</g>
			</g>
			<g id="xtick_6">
				<g id="line2d_6">
					<g>
						<g>
							<path id="m94e9d7f268_00000181784495443479541550000005139865040309140877_" class="st1" d="M244.6,346v3.5"/>
						</g>
					</g>
				</g>
				<g id="text_6">
					<text transform="matrix(1 0 0 1 241.438 360.6228)" class="st2 st3 st4">2</text>
				</g>
			</g>
			<g id="xtick_7">
				<g id="line2d_7">
					<g>
						<g>
							<path id="m94e9d7f268_00000001656324216598680010000018364958746567671476_" class="st1" d="M283.5,346v3.5"/>
						</g>
					</g>
				</g>
				<g id="text_7">
					<text transform="matrix(1 0 0 1 280.2959 360.6228)" class="st2 st3 st4">4</text>
				</g>
			</g>
			<g id="xtick_8">
				<g id="line2d_8">
					<g>
						<g>
							<path id="m94e9d7f268_00000142162052805324150060000000726927700257860480_" class="st1" d="M322.3,346v3.5"/>
						</g>
					</g>
				</g>
				<g id="text_8">
					<text transform="matrix(1 0 0 1 319.1538 360.6228)" class="st2 st3 st4">6</text>
				</g>
			</g>
			<g id="xtick_9">
				<g id="line2d_9">
					<g>
						<g>
							<path id="m94e9d7f268_00000170251179750740597430000018218772961860973454_" class="st1" d="M361.2,346v3.5"/>
						</g>
					</g>
				</g>
				<g id="text_9">
					<text transform="matrix(1 0 0 1 358.0117 360.6228)" class="st2 st3 st4">8</text>
				</g>
			</g>
			<g id="text_10">
				<g transform="translate(192.536977 378.715)">
					<text transform="matrix(1 0 0 1 -3.3524 -4.8203)" class="st2 st5 st4">x</text>
					<text transform="matrix(1 0 0 1 1.6476 -4.8203)" class="st2 st5 st6"> </text>
					<text transform="matrix(1 0 0 1 2.5656 -4.8203)" class="st2 st5 st4"> </text>
					<text transform="matrix(1 0 0 1 5.7443 -4.8203)" class="st2 st5 st4">(</text>
					<text transform="matrix(1 0 0 1 9.6457 -4.8203)" class="st2 st5 st4">k</text>
					<text transform="matrix(1 0 0 1 15.4367 -4.8203)" class="st2 st5 st4">m</text>
					<text transform="matrix(1 0 0 1 25.1779 -4.8203)" class="st2 st5 st4">)</text>
				</g>
			</g>
			<g id="text_11">
				<text transform="matrix(1 0 0 1 353.3616 373.3009)" class="st2 st3 st4">1e8</text>
			</g>
		</g>
		<g id="matplotlib.axis_2">
			<g id="ytick_1">
				<g id="line2d_10">
					<g>
						<g>
							<path id="m0bd85a8bff" class="st1" d="M39.3,342.5h-3.5"/>
						</g>
					</g>
				</g>
				<g id="text_12">
					<text transform="matrix(1 0 0 1 18.0125 346.274)" class="st2 st3 st4">−8</text>
				</g>
			</g>
			<g id="ytick_2">
				<g id="line2d_11">
					<g>
						<g>
							<path id="m0bd85a8bff_00000050621152488744564720000018091914604398091682_" class="st1" d="M39.3,303.6h-3.5"/>
						</g>
					</g>
				</g>
				<g id="text_13">
					<text transform="matrix(1 0 0 1 18.0125 307.4161)" class="st2 st3 st4">−6</text>
				</g>
			</g>
			<g id="ytick_3">
				<g id="line2d_12">
					<g>
						<g>
							<path id="m0bd85a8bff_00000098186469243029250100000000715665344322090395_" class="st1" d="M39.3,264.8h-3.5"/>
						</g>
					</g>
				</g>
				<g id="text_14">
					<text transform="matrix(1 0 0 1 18.0125 268.5583)" class="st2 st3 st4">−4</text>
				</g>
			</g>
			<g id="ytick_4">
				<g id="line2d_13">
					<g>
						<g>
							<path id="m0bd85a8bff_00000142168735524812102960000010511950894423432845_" class="st1" d="M39.3,225.9h-3.5"/>
						</g>
					</g>
				</g>
				<g id="text_15">
					<text transform="matrix(1 0 0 1 18.0125 229.7004)" class="st2 st3 st4">−2</text>
				</g>
			</g>
			<g id="ytick_5">
				<g id="line2d_14">
					<g>
						<g>
							<path id="m0bd85a8bff_00000176723158209520137060000011264767101507207083_" class="st1" d="M39.3,187h-3.5"/>
						</g>
					</g>
				</g>
				<g id="text_16">
					<text transform="matrix(1 0 0 1 25.9666 190.8425)" class="st2 st3 st4">0</text>
				</g>
			</g>
			<g id="ytick_6">
				<g id="line2d_15">
					<g>
						<g>
							<path id="m0bd85a8bff_00000039837223643279129130000002231287261542552492_" class="st1" d="M39.3,148.2h-3.5"/>
						</g>
					</g>
				</g>
				<g id="text_17">
					<text transform="matrix(1 0 0 1 25.9666 151.9847)" class="st2 st3 st4">2</text>
				</g>
			</g>
			<g id="ytick_7">
				<g id="line2d_16">
					<g>
						<g>
							<path id="m0bd85a8bff_00000010272682151450557940000017204047532713591203_" class="st1" d="M39.3,109.3h-3.5"/>
						</g>
					</g>
				</g>
				<g id="text_18">
					<text transform="matrix(1 0 0 1 25.9666 113.1268)" class="st2 st3 st4">4</text>
				</g>
			</g>
			<g id="ytick_8">
				<g id="line2d_17">
					<g>
						<g>
							<path id="m0bd85a8bff_00000040542222203026903290000002965505957332418730_" class="st1" d="M39.3,70.5h-3.5"/>
						</g>
					</g>
				</g>
				<g id="text_19">
					<text transform="matrix(1 0 0 1 25.9666 74.2689)" class="st2 st3 st4">6</text>
				</g>
			</g>
			<g id="ytick_9">
				<g id="line2d_18">
					<g>
						<g>
							<path id="m0bd85a8bff_00000140732060908288043630000003708579138889345978_" class="st1" d="M39.3,31.6h-3.5"/>
						</g>
					</g>
				</g>
				<g id="text_20">
					<text transform="matrix(1 0 0 1 25.9666 35.411)" class="st2 st3 st4">8</text>
				</g>
			</g>
			<g id="text_21">
				<g transform="translate(14.8 200.368437) rotate(-90)">
					<text transform="matrix(1 0 0 1 4.4142 -3.7587)" class="st2 st5 st4">y</text>
					<text transform="matrix(1 0 0 1 9.4142 -3.7587)" class="st2 st5 st6"> </text>
					<text transform="matrix(1 0 0 1 10.3321 -3.7587)" class="st2 st5 st4"> </text>
					<text transform="matrix(1 0 0 1 13.5108 -3.7587)" class="st2 st5 st4">(</text>
					<text transform="matrix(1 0 0 1 17.4122 -3.7587)" class="st2 st5 st4">k</text>
					<text transform="matrix(1 0 0 1 23.2032 -3.7587)" class="st2 st5 st4">m</text>
					<text transform="matrix(1 0 0 1 32.9444 -3.7587)" class="st2 st5 st4">)</text>
				</g>
			</g>
			<g id="text_22">
				<text transform="matrix(1 0 0 1 39.2898 10.3844)" class="st2 st3 st4">1e8</text>
			</g>
		</g>
		<g id="line2d_19">
			<g>
				<defs>
					<rect id="SVGID_00000013186693605246038290000013601621655612010683_" x="39.3" y="13.4" width="332.3" height="332.6"/>
				</defs>
				<clipPath id="SVGID_00000080897803166712278790000003935265309822631611_">
					<use xlink:href="#SVGID_00000013186693605246038290000013601621655612010683_"  style="overflow:visible;"/>
				</clipPath>
				
					<path style="clip-path:url(#SVGID_00000080897803166712278790000003935265309822631611_);fill:none;stroke:#8C8680;stroke-width:1.5;stroke-linejoin:round;stroke-opacity:0.6;stroke-dasharray:1.5,2.475;" d="
					M197.9,195.4l1.4,0.8l1.6,0.6l1.5,0.3l1.5,0.1l1.6-0.1l1.6-0.3l1.5-0.6l1.5-0.8l1.3-1l1-1l0.8-1.2l0.7-1.3l0.5-1.4l0.3-1.4
					l0.1-1.4l-0.1-1.7l-0.3-1.6l-0.6-1.5l-0.8-1.4l-0.9-1.3L211,178l-1.2-0.9l-1.5-0.8l-1.5-0.6l-1.5-0.4l-1.5-0.2l-1.5,0l-1.6,0.3
					l-1.5,0.5l-1.4,0.7l-1.3,0.9l-1.1,1.1l-0.9,1.2l-0.8,1.3l-0.6,1.4l-0.4,1.5l-0.1,1.5l0.1,1.6l0.3,1.6l0.5,1.5l0.8,1.5l0.9,1.2
					l1,1.1l1.2,1L197.9,195.4L197.9,195.4"/>
			</g>
		</g>
		<g id="line2d_20">
			<g>
				<defs>
					<rect id="SVGID_00000066515871068184398410000003781591128998579593_" x="39.3" y="13.4" width="332.3" height="332.6"/>
				</defs>
				<clipPath id="SVGID_00000085247870784872631450000005586809372591149235_">
					<use xlink:href="#SVGID_00000066515871068184398410000003781591128998579593_"  style="overflow:visible;"/>
				</clipPath>
				<g style="clip-path:url(#SVGID_00000085247870784872631450000005586809372591149235_);">
					<g>
						<path id="mf73777b86d" class="st9" d="M197.9,196.9c0.4,0,0.8-0.2,1.1-0.4c0.3-0.3,0.4-0.7,0.4-1.1s-0.2-0.8-0.4-1.1
							c-0.3-0.3-0.7-0.4-1.1-0.4c-0.4,0-0.8,0.2-1.1,0.4c-0.3,0.3-0.4,0.7-0.4,1.1s0.2,0.8,0.4,1.1
							C197.1,196.7,197.5,196.9,197.9,196.9z"/>
					</g>
				</g>
			</g>
		</g>
		<g id="line2d_21">
			<g>
				<defs>
					<rect id="SVGID_00000093893716784683506420000007765390606711736976_" x="39.3" y="13.4" width="332.3" height="332.6"/>
				</defs>
				<clipPath id="SVGID_00000139261743866300315350000009510720595609142155_">
					<use xlink:href="#SVGID_00000093893716784683506420000007765390606711736976_"  style="overflow:visible;"/>
				</clipPath>
				
					<path style="clip-path:url(#SVGID_00000139261743866300315350000009510720595609142155_);fill:none;stroke:#E6DB67;stroke-width:1.5;stroke-linejoin:round;stroke-opacity:0.6;stroke-dasharray:1.5,2.475;" d="
					M184.8,184.1l-0.2,2.2l0,2.2l0.3,2.2l0.5,2.1l0.7,2.1l0.9,2l1.1,1.9l1.3,1.8l1.5,1.6l1.6,1.5l1.8,1.3l1.9,1.1l2,0.9l2.1,0.7
					l2.2,0.4l2.2,0.2l2.2,0l2.2-0.2l2.2-0.5l2.1-0.7l2-0.9l1.9-1.1l1.8-1.3l1.6-1.5l1.5-1.7l1.3-1.8l1.1-1.9l0.9-2l0.7-2.1l0.4-2.2
					l0.2-2.2l0-2.2l-0.3-2.2l-0.5-2.2l-0.7-2.1l-0.9-2l-1.2-1.9l-1.3-1.8l-1.5-1.6l-1.7-1.4l-1.8-1.3l-2-1.1l-2.1-0.8l-2.1-0.6
					l-2.2-0.4l-2.2-0.2l-2.2,0.1l-2.2,0.3l-2.1,0.5l-2.1,0.7l-2,1l-1.9,1.2l-1.7,1.4l-1.6,1.5l-1.4,1.7l-1.2,1.8l-1,1.9l-0.8,2
					l-0.6,2.1L184.8,184.1L184.8,184.1"/>
			</g>
		</g>
		<g id="line2d_22">
			<g>
				<defs>
					<rect id="SVGID_00000065072902943333899620000015020984655151960493_" x="39.3" y="13.4" width="332.3" height="332.6"/>
				</defs>
				<clipPath id="SVGID_00000165224838508176924530000004705688038080906643_">
					<use xlink:href="#SVGID_00000065072902943333899620000015020984655151960493_"  style="overflow:visible;"/>
				</clipPath>
				<g style="clip-path:url(#SVGID_00000165224838508176924530000004705688038080906643_);">
					<g>
						<path id="mf1c06ab1ce" class="st12" d="M184.8,185.6c0.4,0,0.8-0.2,1.1-0.4c0.3-0.3,0.4-0.7,0.4-1.1s-0.2-0.8-0.4-1.1
							c-0.3-0.3-0.7-0.4-1.1-0.4c-0.4,0-0.8,0.2-1.1,0.4c-0.3,0.3-0.4,0.7-0.4,1.1s0.2,0.8,0.4,1.1
							C184,185.4,184.4,185.6,184.8,185.6z"/>
					</g>
				</g>
			</g>
		</g>
		<g id="line2d_23">
			<g>
				<defs>
					<rect id="SVGID_00000155828500442322282120000006901840776632316079_" x="39.3" y="13.4" width="332.3" height="332.6"/>
				</defs>
				<clipPath id="SVGID_00000048481689320335082050000010112278405698456755_">
					<use xlink:href="#SVGID_00000155828500442322282120000006901840776632316079_"  style="overflow:visible;"/>
				</clipPath>
				
					<path style="clip-path:url(#SVGID_00000048481689320335082050000010112278405698456755_);fill:none;stroke:#2A7BD1;stroke-width:1.5;stroke-linejoin:round;stroke-opacity:0.6;stroke-dasharray:1.5,2.475;" d="
					M180.6,202.4l1.4,2l1.5,1.9l1.7,1.7l1.8,1.6l1.9,1.4l2.1,1.3l2.2,1.1l2.2,0.9l2.3,0.7l2.4,0.5l2.4,0.3l2.4,0.1l2.4-0.1l2.4-0.3
					l2.4-0.5l2.4-0.7l2.3-0.9l2.2-1.1l2.1-1.3l2-1.4l1.9-1.6l1.7-1.8l1.6-1.9l1.4-2l1.2-2.1l1.1-2.2l0.9-2.3l0.7-2.4l0.5-2.4
					l0.2-2.5l0-2.5l-0.2-2.5l-0.4-2.5l-0.6-2.4l-0.8-2.4l-1-2.3l-1.2-2.2l-1.4-2.1l-1.5-1.9l-1.7-1.8l-1.8-1.7l-2-1.5l-2.1-1.3
					l-2.2-1.1l-2.3-0.9l-2.3-0.7l-2.4-0.5l-2.4-0.3l-2.4-0.1l-2.4,0.1l-2.4,0.3l-2.4,0.5l-2.3,0.7l-2.3,0.9l-2.2,1.1l-2.1,1.2
					l-2,1.4l-1.9,1.6l-1.7,1.7l-1.6,1.8l-1.4,2l-1.2,2.1l-1.1,2.2l-0.9,2.2l-0.7,2.3l-0.5,2.4l-0.3,2.4l-0.1,2.4l0.1,2.4l0.3,2.4
					l0.5,2.4l0.7,2.3l0.9,2.2l1.1,2.2L180.6,202.4L180.6,202.4"/>
			</g>
		</g>
		<g id="line2d_24">
			<g>
				<defs>
					<rect id="SVGID_00000086692187880502594540000018291704191324002706_" x="39.3" y="13.4" width="332.3" height="332.6"/>
				</defs>
				<clipPath id="SVGID_00000124861670808933561260000003721242729409103516_">
					<use xlink:href="#SVGID_00000086692187880502594540000018291704191324002706_"  style="overflow:visible;"/>
				</clipPath>
				<g style="clip-path:url(#SVGID_00000124861670808933561260000003721242729409103516_);">
					<g>
						<path id="m7b513358f6" class="st15" d="M180.6,203.9c0.4,0,0.8-0.2,1.1-0.4c0.3-0.3,0.4-0.7,0.4-1.1s-0.2-0.8-0.4-1.1
							c-0.3-0.3-0.7-0.4-1.1-0.4c-0.4,0-0.8,0.2-1.1,0.4c-0.3,0.3-0.4,0.7-0.4,1.1s0.2,0.8,0.4,1.1
							C179.8,203.7,180.2,203.9,180.6,203.9z"/>
					</g>
				</g>
			</g>
		</g>
		<g id="line2d_25">
			<g>
				<defs>
					<rect id="SVGID_00000155105194806315791720000012817737430264305845_" x="39.3" y="13.4" width="332.3" height="332.6"/>
				</defs>
				<clipPath id="SVGID_00000160875653889686576560000001043551714736316047_">
					<use xlink:href="#SVGID_00000155105194806315791720000012817737430264305845_"  style="overflow:visible;"/>
				</clipPath>
				
					<path style="clip-path:url(#SVGID_00000160875653889686576560000001043551714736316047_);fill:none;stroke:#CC653F;stroke-width:1.5;stroke-linejoin:round;stroke-opacity:0.6;stroke-dasharray:1.5,2.475;" d="
					M164.9,175l-0.5,2.9l-0.3,2.9l-0.1,2.9l0.1,3l0.3,3l0.5,2.9l0.7,2.9l0.9,2.9l1.1,2.8l1.3,2.7l1.5,2.7l1.7,2.6l1.8,2.4l2,2.3
					l2.2,2.2l2.3,2l2.4,1.8l2.6,1.7l2.7,1.5l2.8,1.3l2.9,1.1l2.9,0.9l3,0.7l3,0.5l3,0.3l3,0.1l3-0.1l3-0.3l2.9-0.5l2.9-0.7l2.8-0.9
					l2.7-1.1l2.6-1.3l2.5-1.4l2.4-1.6l2.3-1.7l2.2-1.9l2-2l1.9-2.1l1.7-2.2l1.6-2.3l1.4-2.4l1.3-2.4l1.1-2.5l1.2-3.4l1-3.5l0.7-3.5
					l0.4-3.5l0.1-3.5l-0.2-3.5l-0.5-3.5l-0.7-3.4l-1-3.3l-1.2-3.2l-1.5-3.1l-1.7-3l-1.9-2.8l-2.1-2.6l-2.3-2.5l-2.5-2.3l-2.7-2.1
					l-2.8-1.9l-3-1.6l-3.1-1.4l-3.2-1.2l-3.3-0.9l-3.3-0.7l-3.4-0.4l-3.4-0.1l-3.5,0.1l-3.4,0.4l-3.4,0.7l-3.4,0.9l-3.3,1.2
					l-3.2,1.5l-3.1,1.8l-3,2l-2.1,1.7l-2,1.8l-1.9,1.9l-1.8,2.1l-1.7,2.2l-1.6,2.3l-1.4,2.4l-1.3,2.5l-1.1,2.6l-1,2.7l-0.8,2.8
					L164.9,175L164.9,175"/>
			</g>
		</g>
		<g id="line2d_26">
			<g>
				<defs>
					<rect id="SVGID_00000049901237629355640040000003279752896132148120_" x="39.3" y="13.4" width="332.3" height="332.6"/>
				</defs>
				<clipPath id="SVGID_00000100383713666113741520000004476944436441105554_">
					<use xlink:href="#SVGID_00000049901237629355640040000003279752896132148120_"  style="overflow:visible;"/>
				</clipPath>
				<g style="clip-path:url(#SVGID_00000100383713666113741520000004476944436441105554_);">
					<g>
						<path id="mc08e7be23c" class="st18" d="M164.9,176.5c0.4,0,0.8-0.2,1.1-0.4c0.3-0.3,0.4-0.7,0.4-1.1s-0.2-0.8-0.4-1.1
							c-0.3-0.3-0.7-0.4-1.1-0.4c-0.4,0-0.8,0.2-1.1,0.4c-0.3,0.3-0.4,0.7-0.4,1.1s0.2,0.8,0.4,1.1
							C164.1,176.4,164.5,176.5,164.9,176.5z"/>
					</g>
				</g>
			</g>
		</g>
		<g id="line2d_27">
			<g>
				<defs>
					<rect id="SVGID_00000130628904318909768420000005322002542717521284_" x="39.3" y="13.4" width="332.3" height="332.6"/>
				</defs>
				<clipPath id="SVGID_00000117636219394028752770000016798139646970169735_">
					<use xlink:href="#SVGID_00000130628904318909768420000005322002542717521284_"  style="overflow:visible;"/>
				</clipPath>
				
					<path style="clip-path:url(#SVGID_00000117636219394028752770000016798139646970169735_);fill:none;stroke:#BF8F5C;stroke-width:1.5;stroke-linejoin:round;stroke-opacity:0.6;stroke-dasharray:1.5,2.475;" d="
					M245.6,34l-5.9-1.5l-5.9-1.3l-6-1l-6-0.8l-6-0.5l-6.1-0.3l-6.1,0l-6.1,0.2l-6,0.4l-6,0.7l-6,0.9l-6,1.2l-5.9,1.4l-5.8,1.6
					l-5.8,1.9l-5.7,2.1l-5.6,2.3l-5.5,2.6l-5.4,2.8l-5.3,3l-5.2,3.2l-5.1,3.4l-4.9,3.6l-4.8,3.8l-4.6,4L99.4,72l-4.3,4.4L91,81
					l-3.9,4.8l-3.7,4.9l-3.5,5.1l-3.3,5.2l-3.1,5.4l-2.9,5.5l-2.7,5.6l-2.4,5.7l-2.2,5.8l-2,5.9l-1.7,6l-1.5,6.1l-1.2,6.2l-1,6.2
					l-0.7,6.3l-0.5,6.3l-0.2,6.3l0.1,6.4l0.3,6.4l0.6,6.4l0.9,6.3l1.2,6.3l1.4,6.3l1.7,6.2l2,6.1l2.2,6.1l2.5,6l2.7,5.9l3,5.8
					l3.3,5.6l3.5,5.5l3.7,5.4l4,5.2l4.2,5l4.4,4.9l4.6,4.7l4.8,4.5l5,4.3l5.2,4l5.4,3.8l5.6,3.6l5.7,3.3l5.9,3.1l6,2.8l6.1,2.6
					l6.3,2.3l6.4,2l6.4,1.7l6.5,1.4l6.6,1.1l6.6,0.9l6.7,0.6l6.7,0.3l6.7,0l6.7-0.3l6.7-0.6l6.6-0.9l6.6-1.2l6.5-1.5l6.4-1.8
					l6.3-2.1l6.2-2.3l6.1-2.6l6-2.9l5.9-3.1l5.7-3.4l5.6-3.6l5.4-3.9l5.2-4.1l5-4.3l4.8-4.5l4.6-4.7l4.4-4.9l4.2-5.1l3.9-5.3
					l3.7-5.4l3.5-5.6l3.2-5.7l2.9-5.8l2.7-5.9l2.4-6l2.2-6.1l1.9-6.2l1.6-6.2l1.4-6.3l1.1-6.3l0.8-6.4l0.5-6.4l0.3-6.4l0-6.4
					l-0.3-6.4l-0.5-6.3l-0.8-6.3l-1.1-6.2l-1.3-6.2l-1.6-6.1l-1.8-6l-2.1-5.9l-2.3-5.8l-2.5-5.7l-2.8-5.6l-3-5.5l-3.2-5.3l-3.4-5.2
					l-3.6-5l-3.8-4.9l-4-4.7l-4.2-4.5l-4.4-4.4l-4.5-4.2l-4.7-4l-4.8-3.8l-5-3.6l-5.1-3.4l-5.2-3.1l-5.4-2.9l-5.5-2.7l-5.6-2.5
					l-5.7-2.3l-5.7-2l-5.8-1.8l-2.9-0.8l0,0"/>
			</g>
		</g>
		<g id="line2d_28">
			<g>
				<defs>
					<rect id="SVGID_00000042015135761718673960000007196261596854224043_" x="39.3" y="13.4" width="332.3" height="332.6"/>
				</defs>
				<clipPath id="SVGID_00000144317324711511652580000004096164034409079977_">
					<use xlink:href="#SVGID_00000042015135761718673960000007196261596854224043_"  style="overflow:visible;"/>
				</clipPath>
				<g style="clip-path:url(#SVGID_00000144317324711511652580000004096164034409079977_);">
					<g>
						<path id="m6feffa4026" class="st21" d="M245.6,35.5c0.4,0,0.8-0.2,1.1-0.4c0.3-0.3,0.4-0.7,0.4-1.1s-0.2-0.8-0.4-1.1
							c-0.3-0.3-0.7-0.4-1.1-0.4c-0.4,0-0.8,0.2-1.1,0.4c-0.3,0.3-0.4,0.7-0.4,1.1s0.2,0.8,0.4,1.1
							C244.8,35.3,245.2,35.5,245.6,35.5z"/>
					</g>
				</g>
			</g>
		</g>
		<g id="line2d_29">
			<g>
				<defs>
					<rect id="SVGID_00000128456669683842959030000010194041870143631280_" x="39.3" y="13.4" width="332.3" height="332.6"/>
				</defs>
				<clipPath id="SVGID_00000094593343384721989890000012912219230263441827_">
					<use xlink:href="#SVGID_00000128456669683842959030000010194041870143631280_"  style="overflow:visible;"/>
				</clipPath>
				
					<path style="clip-path:url(#SVGID_00000094593343384721989890000012912219230263441827_);fill:none;stroke:#FFFFFF;stroke-width:2;stroke-linecap:square;stroke-linejoin:round;" d="
					M180.6,202.3l16,13.7l19.3,4.3l17.3-3.3l13.4-7.8l9.5-10l6-10.9l2.9-11l0.2-10.6l-2.1-9.8l-4.2-8.7l-6-7.3l-7.3-5.5l-8.7-3.7
					l-9.9-1.6l-10.8,0.9l-11.3,3.9l-11.2,7.5l-9.9,11.8l-6.3,16.9l1.9,20.9l14,18l21.4,5.9l20.8-6.2l15.5-10.7l11.2-12l8.2-12.1
					l6-11.7l4.3-11.1l3-10.5l2-9.9l1.2-9.3l0.5-8.8l-0.1-8.2l-0.6-7.7l-1.1-7.2l-1.5-6.8l-1.8-6.3l-2.1-5.9l-2.4-5.4l-2.6-5
					l-2.8-4.6l-3-4.2l-3.2-3.8l-3.4-3.4l-3.5-3l-3.6-2.6l-3.6-2.2l-3.6-1.8l-2.8-1.2"/>
			</g>
		</g>
		<g id="line2d_30">
			<g>
				<defs>
					<rect id="SVGID_00000104685785501086189130000004981212202180872590_" x="39.3" y="13.4" width="332.3" height="332.6"/>
				</defs>
				<clipPath id="SVGID_00000089564899350250533160000001874344606434717834_">
					<use xlink:href="#SVGID_00000104685785501086189130000004981212202180872590_"  style="overflow:visible;"/>
				</clipPath>
				
					<path style="clip-path:url(#SVGID_00000089564899350250533160000001874344606434717834_);fill:none;stroke:#FF0000;stroke-width:1.5;stroke-linecap:square;stroke-linejoin:round;" d="
					M182.6,205.1l0.6,0.7l0.7,0.6l0.8,0.6l0.8,0.5l0.9,0.5l1,0.4l1,0.3l1.1,0.2l1.1,0.2l1.2,0.1l1.3,0l1.3-0.1l1.4-0.2l1.4-0.4
					l1.5-0.5l1.5-0.6l1.5-0.8l1.5-1l1.5-1.2l1.5-1.4l1.5-1.7l1.5-2.1l1.3-2.6l1-3.2l0.3-4l-1.5-4.5l-3.9-3.2l-4.4-0.7l-3.7,0.6
					l-3,1.2l-2.4,1.4l-2,1.5l-1.6,1.5l-1.3,1.5l-1.1,1.5l-0.9,1.5l-0.7,1.4l-0.5,1.4l-0.4,1.3l-0.3,1.3l-0.1,1.2l0,1.2l0.1,1.1
					l0.2,1l0.3,1l0.4,0.9l0.4,0.8l0.5,0.8l0.6,0.7"/>
			</g>
		</g>
		<g id="patch_4">
			<path class="st24" d="M39.3,346V13.4"/>
		</g>
		<g id="patch_5">
			<path class="st24" d="M371.6,346V13.4"/>
		</g>
		<g id="patch_6">
			<path class="st24" d="M39.3,346h332.3"/>
		</g>
		<g id="patch_7">
			<path class="st24" d="M39.3,13.4h332.3"/>
		</g>
		<g id="legend_1">
			<g id="patch_8">
				<path class="st25" d="M393.3,125h90.4c1.2,0,1.8-0.7,1.8-2V7.8c0-1.3-0.6-2-1.8-2h-90.4c-1.2,0-1.8,0.7-1.8,2V123
					C391.5,124.3,392.1,125,393.3,125z"/>
			</g>
			<g id="text_23">
				<text transform="matrix(0.9177 0 0 1 395.1377 17.3195)" class="st3 st26">Names and epochs</text>
			</g>
			<g id="line2d_31">
				<path class="st27" d="M400.8,28.4h9.1h9.1"/>
			</g>
			<g id="text_24">
				<text transform="matrix(0.9177 0 0 1 426.2549 31.8425)" class="st3 st26">Mercury</text>
			</g>
			<g id="line2d_32">
				<path class="st28" d="M400.8,42.9h9.1h9.1"/>
			</g>
			<g id="text_25">
				<text transform="matrix(0.9177 0 0 1 426.2549 46.3654)" class="st3 st26">Venus</text>
			</g>
			<g id="line2d_33">
				<path class="st29" d="M400.8,57.4h9.1h9.1"/>
			</g>
			<g id="text_26">
				<text transform="matrix(0.9177 0 0 1 426.2549 60.8879)" class="st3 st26">Earth</text>
			</g>
			<g id="line2d_34">
				<path class="st30" d="M400.8,71.9h9.1h9.1"/>
			</g>
			<g id="text_27">
				<text transform="matrix(0.9177 0 0 1 426.2549 75.4103)" class="st3 st26">Mars</text>
			</g>
			<g id="line2d_35">
				<path class="st31" d="M400.8,86.5h9.1h9.1"/>
			</g>
			<g id="text_28">
				<text transform="matrix(0.9177 0 0 1 426.2549 89.9333)" class="st3 st26">Jupiter</text>
			</g>
			<g id="line2d_36">
				<path class="st32" d="M400.8,101h9.1h9.1"/>
			</g>
			<g id="text_29">
				<text transform="matrix(0.9177 0 0 1 426.2549 104.4562)" class="st3 st26">Juno cruise</text>
			</g>
			<g id="line2d_37">
				<path class="st33" d="M400.8,115.5h9.1h9.1"/>
			</g>
			<g id="text_30">
				<text transform="matrix(0.9177 0 0 1 426.2549 118.9787)" class="st3 st26">PSP cruise</text>
			</g>
		</g>
	</g>
</g>
<g id="figure_1_00000098918616951542123400000017234289792716735644_">
	<g id="axes_1_00000071524056811990282480000005316710068140876954_">
		<g id="patch_2_00000129206261601363843320000008550661536117741755_">
			<path d="M404.3,353.1h228.9V138H404.3V353.1z"/>
		</g>
		<g id="patch_3_00000049935192266626355070000004187342350842461568_">
			<g>
				<defs>
					<rect id="SVGID_00000015337529274263538920000007959787704412356496_" x="404.3" y="138" width="228.9" height="215.1"/>
				</defs>
				<clipPath id="SVGID_00000083787155915202985950000000809313197576914076_">
					<use xlink:href="#SVGID_00000015337529274263538920000007959787704412356496_"  style="overflow:visible;"/>
				</clipPath>
				<path style="clip-path:url(#SVGID_00000083787155915202985950000000809313197576914076_);fill:#FFCC00;" d="M520.4,247.5
					c0.7,0,1.4-0.3,1.9-0.8c0.5-0.5,0.8-1.1,0.8-1.8c0-0.7-0.3-1.3-0.8-1.8c-0.5-0.5-1.2-0.8-1.9-0.8c-0.7,0-1.4,0.3-1.9,0.8
					c-0.5,0.5-0.8,1.1-0.8,1.8c0,0.7,0.3,1.3,0.8,1.8C518.9,247.2,519.6,247.5,520.4,247.5z"/>
			</g>
		</g>
		<g id="matplotlib.axis_1_00000138534354462699551370000009238175139771579831_">
			<g id="xtick_1_00000026848801859167520100000001063647444775644839_">
				<g id="line2d_1_00000162328250083648564750000003813913118057857671_">
					<g>
						<g>
							<path id="m30c723b3d7" class="st1" d="M415.8,353.1v2.3"/>
						</g>
					</g>
				</g>
				<g id="text_1_00000160875013080431382320000006832005418262734490_">
					<text transform="matrix(1.06 0 0 1 407.6914 362.5392)" class="st2 st3 st35">−1.5</text>
				</g>
			</g>
			<g id="xtick_2_00000080907699060131260510000015926615963973791160_">
				<g id="line2d_2_00000165927661042564674330000011637251130879902872_">
					<g>
						<g>
							<path id="m30c723b3d7_00000150818870782716142150000000639394374806855586_" class="st1" d="M450.7,353.1v2.3"/>
						</g>
					</g>
				</g>
				<g id="text_2_00000165931289996390447530000017826029332115551883_">
					<text transform="matrix(1.06 0 0 1 442.5371 362.5392)" class="st2 st3 st35">−1.0</text>
				</g>
			</g>
			<g id="xtick_3_00000128460484521035133270000010874478927866770827_">
				<g id="line2d_3_00000051358814322520838420000015415764963315752639_">
					<g>
						<g>
							<path id="m30c723b3d7_00000060020637893466658710000008708019879149503906_" class="st1" d="M485.5,353.1v2.3"/>
						</g>
					</g>
				</g>
				<g id="text_3_00000005983731394761060990000001764343472289663913_">
					<text transform="matrix(1.06 0 0 1 477.3818 362.5392)" class="st2 st3 st35">−0.5</text>
				</g>
			</g>
			<g id="xtick_4_00000111891317901346777430000007988251797103598467_">
				<g id="line2d_4_00000105418875424420628200000006127033000813874583_">
					<g>
						<g>
							<path id="m30c723b3d7_00000058574027331173763330000000485700027318904758_" class="st1" d="M520.4,353.1v2.3"/>
						</g>
					</g>
				</g>
				<g id="text_4_00000183237728843588001270000004160414762513462912_">
					<text transform="matrix(1.06 0 0 1 514.9531 362.5392)" class="st2 st3 st35">0.0</text>
				</g>
			</g>
			<g id="xtick_5_00000176037083104774001750000018019790860455828906_">
				<g id="line2d_5_00000079483168272305595890000013894993899844232084_">
					<g>
						<g>
							<path id="m30c723b3d7_00000072239341983148212210000006212732081856658601_" class="st1" d="M555.2,353.1v2.3"/>
						</g>
					</g>
				</g>
				<g id="text_5_00000124151201649479952420000002803334995789967527_">
					<text transform="matrix(1.06 0 0 1 549.7988 362.5392)" class="st2 st3 st35">0.5</text>
				</g>
			</g>
			<g id="xtick_6_00000060032919456073173740000005305578025424737930_">
				<g id="line2d_6_00000020393522511605949100000018108416182916656297_">
					<g>
						<g>
							<path id="m30c723b3d7_00000169533868920808509550000009031633558570506890_" class="st1" d="M590.1,353.1v2.3"/>
						</g>
					</g>
				</g>
				<g id="text_6_00000081639753238413224040000012588725790244555916_">
					<text transform="matrix(1.06 0 0 1 584.6436 362.5392)" class="st2 st3 st35">1.0</text>
				</g>
			</g>
			<g id="xtick_7_00000127013195612007661750000005902096252116342446_">
				<g id="line2d_7_00000160153296411685375140000005797503530513220279_">
					<g>
						<g>
							<path id="m30c723b3d7_00000090987219019235670590000007490071690135909538_" class="st1" d="M624.9,353.1v2.3"/>
						</g>
					</g>
				</g>
				<g id="text_7_00000056390210823938910720000017232545342471543204_">
					<text transform="matrix(1.06 0 0 1 619.4893 362.5392)" class="st2 st3 st35">1.5</text>
				</g>
			</g>
			<g id="text_8_00000032617044638648417530000009769837693221197205_">
				<g transform="translate(202.915302 378.715)">
					<text transform="matrix(1.06 0 0 1 304.7468 -7.5937)" class="st2 st5 st35">x</text>
					<text transform="matrix(1.06 0 0 1 308.1746 -7.5937)" class="st2 st5 st36"> </text>
					<text transform="matrix(1.06 0 0 1 308.8035 -7.5937)" class="st2 st5 st35"> </text>
					<text transform="matrix(1.06 0 0 1 310.9822 -7.5937)" class="st2 st5 st35">(</text>
					<text transform="matrix(1.06 0 0 1 313.655 -7.5937)" class="st2 st5 st35">k</text>
					<text transform="matrix(1.06 0 0 1 317.6257 -7.5937)" class="st2 st5 st35">m</text>
					<text transform="matrix(1.06 0 0 1 324.3025 -7.5937)" class="st2 st5 st35">)</text>
				</g>
			</g>
			<g id="text_9_00000008836592091710618560000010972192472152366497_">
				<text transform="matrix(1.06 0 0 1 620.7705 370.7385)" class="st2 st3 st35">1e8</text>
			</g>
		</g>
		<g id="matplotlib.axis_2_00000155849685378307190410000002389096860213361339_">
			<g id="ytick_1_00000023240126394958369980000007092160811855879600_">
				<g id="line2d_8_00000106854317893880130610000007490624360078680705_">
					<g>
						<g>
							<path id="ma6057371d8" class="st1" d="M404.3,343.5h-2.4"/>
						</g>
					</g>
				</g>
				<g id="text_10_00000068675076496413351980000005453726964401658810_">
					<text transform="matrix(1.06 0 0 1 383.2549 345.9279)" class="st2 st3 st35">−1.5</text>
				</g>
			</g>
			<g id="ytick_2_00000121989763573804407320000000885692453568938926_">
				<g id="line2d_9_00000052099766882053958620000014427805363026581893_">
					<g>
						<g>
							<path id="ma6057371d8_00000061472906366673370870000016417904034187569820_" class="st1" d="M404.3,310.6h-2.4"/>
						</g>
					</g>
				</g>
				<g id="text_11_00000028313446813208354690000003750911765286880140_">
					<text transform="matrix(1.06 0 0 1 383.2549 313.0558)" class="st2 st3 st35">−1.0</text>
				</g>
			</g>
			<g id="ytick_3_00000031889376483479963810000005952501112705869711_">
				<g id="line2d_10_00000143593578774731056210000013200587748800808845_">
					<g>
						<g>
							<path id="ma6057371d8_00000072998914721602979440000000523762009087858353_" class="st1" d="M404.3,277.7h-2.4"/>
						</g>
					</g>
				</g>
				<g id="text_12_00000126305903621680237110000018096715263576826047_">
					<text transform="matrix(1.06 0 0 1 383.2549 280.1848)" class="st2 st3 st35">−0.5</text>
				</g>
			</g>
			<g id="ytick_4_00000041262317752529624130000002234705473263947155_">
				<g id="line2d_11_00000093164777704345699890000013594974781568829628_">
					<g>
						<g>
							<path id="ma6057371d8_00000001634289305262820270000010688968303295735730_" class="st1" d="M404.3,244.9h-2.4"/>
						</g>
					</g>
				</g>
				<g id="text_13_00000088131432183231409820000005127800260960866460_">
					<text transform="matrix(1.06 0 0 1 388.708 247.3127)" class="st2 st3 st35">0.0</text>
				</g>
			</g>
			<g id="ytick_5_00000078006834441424168580000015332982895602583199_">
				<g id="line2d_12_00000006668569883821456230000004466765639074537373_">
					<g>
						<g>
							<path id="ma6057371d8_00000078046546410571142900000008784686048434559403_" class="st1" d="M404.3,212h-2.4"/>
						</g>
					</g>
				</g>
				<g id="text_14_00000124879127331194498040000008689397377132614579_">
					<text transform="matrix(1.06 0 0 1 388.708 214.4416)" class="st2 st3 st35">0.5</text>
				</g>
			</g>
			<g id="ytick_6_00000034807253502343287780000012337045783558145470_">
				<g id="line2d_13_00000134931523332617353180000007818689079793990822_">
					<g>
						<g>
							<path id="ma6057371d8_00000043446582804407170090000014304301032720993694_" class="st1" d="M404.3,179.1h-2.4"/>
						</g>
					</g>
				</g>
				<g id="text_15_00000179636755607278655430000000172850686332246716_">
					<text transform="matrix(1.06 0 0 1 388.708 181.5681)" class="st2 st3 st35">1.0</text>
				</g>
			</g>
			<g id="ytick_7_00000010995062300237261670000005137250985531279766_">
				<g id="line2d_14_00000026150235994752885220000004239685698115331774_">
					<g>
						<g>
							<path id="ma6057371d8_00000034772609041029676250000013554446389687873725_" class="st1" d="M404.3,146.2h-2.4"/>
						</g>
					</g>
				</g>
				<g id="text_16_00000051355568136624322650000013077294450416949685_">
					<text transform="matrix(1.06 0 0 1 388.708 148.696)" class="st2 st3 st35">1.5</text>
				</g>
			</g>
			<g id="text_17_00000115488905334676404610000014034162981828471227_">
				<g transform="translate(14.8 200.368437) rotate(-90)">
					<text transform="matrix(0.9434 0 0 1 -55.6923 363.6395)" class="st2 st5 st37">y</text>
					<text transform="matrix(0.9434 0 0 1 -52.4589 363.6395)" class="st2 st5 st38"> </text>
					<text transform="matrix(0.9434 0 0 1 -51.8661 363.6395)" class="st2 st5 st37"> </text>
					<text transform="matrix(0.9434 0 0 1 -49.8095 363.6395)" class="st2 st5 st37">(</text>
					<text transform="matrix(0.9434 0 0 1 -47.287 363.6395)" class="st2 st5 st37">k</text>
					<text transform="matrix(0.9434 0 0 1 -43.5429 363.6395)" class="st2 st5 st37">m</text>
					<text transform="matrix(0.9434 0 0 1 -37.2431 363.6395)" class="st2 st5 st37">)</text>
				</g>
			</g>
			<g id="text_18_00000080186927653686425590000007877410935418729106_">
				<text transform="matrix(1.06 0 0 1 404.3418 136.0661)" class="st2 st3 st35">1e8</text>
			</g>
		</g>
		<g id="line2d_15_00000085225588979536583210000008005848580863247515_">
			<g>
				<defs>
					<rect id="SVGID_00000015325092430413790360000001350888943963331477_" x="404.3" y="138" width="228.9" height="215.1"/>
				</defs>
				<clipPath id="SVGID_00000039837071023701762700000011598695844557598089_">
					<use xlink:href="#SVGID_00000015325092430413790360000001350888943963331477_"  style="overflow:visible;"/>
				</clipPath>
				
					<path style="clip-path:url(#SVGID_00000039837071023701762700000011598695844557598089_);fill:none;stroke:#8C8680;stroke-width:1.5;stroke-linejoin:round;stroke-opacity:0.6;stroke-dasharray:1.5,2.475;" d="
					M506.8,281.8l3.3,0.3l3.4,0l3.4-0.2l3.5-0.5l1.7-0.4l1.7-0.5l1.7-0.5l1.7-0.6l1.7-0.7l1.7-0.8l1.7-0.8l1.6-0.9l1.6-1l1.6-1.1
					l1.5-1.2l1.5-1.2l1.4-1.3l1.3-1.4l1.3-1.5l1.2-1.5l1.1-1.6l1-1.7l1-1.7l0.9-1.8l0.8-1.8l0.7-1.9l0.6-1.9l0.5-1.9l0.3-1.9l0.2-2
					l0.1-2l0-2l-0.1-2l-0.2-2l-0.3-1.9l-0.4-1.9l-0.6-1.9l-0.7-1.9l-0.8-1.8l-0.9-1.8l-0.9-1.7l-1-1.7l-1.1-1.6l-1.2-1.5l-1.3-1.5
					l-1.3-1.4l-1.4-1.3l-1.5-1.2l-1.5-1.2l-1.5-1.1l-1.6-1l-1.6-0.9l-1.7-0.8l-1.7-0.8l-1.7-0.7l-1.7-0.6l-1.7-0.5l-1.7-0.5
					l-1.7-0.4l-3.5-0.5l-3.4-0.3l-3.4,0l-3.3,0.3l-3.2,0.5l-3.1,0.7l-3,1l-2.9,1.2l-2.7,1.3l-2.6,1.5l-2.4,1.7l-2.3,1.8l-2.1,1.9
					l-1.9,2.1l-1.7,2.2l-1.6,2.3l-1.4,2.3l-1.2,2.4l-1,2.5l-0.8,2.5l-0.6,2.6l-0.4,2.6l-0.2,2.6l0,2.6l0.2,2.6l0.4,2.6l0.6,2.6
					l0.8,2.5l1,2.5l1.2,2.4l1.4,2.3l1.5,2.3l1.7,2.2l1.9,2.1l2.1,1.9l2.3,1.8l2.4,1.7l2.6,1.5l2.7,1.3l2.9,1.2l3,1l3.1,0.7
					L506.8,281.8L506.8,281.8"/>
			</g>
		</g>
		<g id="line2d_16_00000046302885208839802130000010015217094931289478_">
			<g>
				<defs>
					<rect id="SVGID_00000091722611624869030940000017542912512264992906_" x="404.3" y="138" width="228.9" height="215.1"/>
				</defs>
				<clipPath id="SVGID_00000039103517394497819920000012286412757811820426_">
					<use xlink:href="#SVGID_00000091722611624869030940000017542912512264992906_"  style="overflow:visible;"/>
				</clipPath>
				<g style="clip-path:url(#SVGID_00000039103517394497819920000012286412757811820426_);">
					<g>
						<path id="m10edf65d93" class="st9" d="M506.8,282.8c0.3,0,0.5-0.1,0.7-0.3s0.3-0.4,0.3-0.7s-0.1-0.5-0.3-0.7
							c-0.2-0.2-0.5-0.3-0.7-0.3s-0.5,0.1-0.7,0.3c-0.2,0.2-0.3,0.4-0.3,0.7s0.1,0.5,0.3,0.7S506.5,282.8,506.8,282.8z"/>
					</g>
				</g>
			</g>
		</g>
		<g id="line2d_17_00000016774541898600922600000013751952082137468089_">
			<g>
				<defs>
					<rect id="SVGID_00000059999088003931153350000000000304826432362920_" x="404.3" y="138" width="228.9" height="215.1"/>
				</defs>
				<clipPath id="SVGID_00000134215732556512235420000016527244326921088666_">
					<use xlink:href="#SVGID_00000059999088003931153350000000000304826432362920_"  style="overflow:visible;"/>
				</clipPath>
				
					<path style="clip-path:url(#SVGID_00000134215732556512235420000016527244326921088666_);fill:none;stroke:#E6DB67;stroke-width:1.5;stroke-linejoin:round;stroke-opacity:0.6;stroke-dasharray:1.5,2.475;" d="
					M447.7,264.5l0.9,2.9l1.1,2.8l1.2,2.8l1.3,2.7l1.4,2.7l1.5,2.6l1.6,2.5l1.8,2.5l1.9,2.4l2,2.3l2.1,2.2l2.2,2.2l2.3,2.1l2.4,2
					l2.4,1.9l2.5,1.8l2.6,1.7l2.7,1.6l2.7,1.5l2.8,1.4l2.9,1.3l2.9,1.1l3,1l3,0.9l3,0.8l3.1,0.7l3.1,0.6l3.1,0.4l3.1,0.3l3.2,0.2
					l3.2,0.1l3.2-0.1l3.2-0.2l3.1-0.3l3.1-0.4l3.1-0.6l3.1-0.7l3-0.8l3-0.9l3-1l2.9-1.2l2.9-1.3l2.8-1.4l2.7-1.5l2.7-1.6l2.6-1.7
					l2.5-1.8l2.4-1.9l2.3-2l2.2-2.1l2.2-2.2l2.1-2.3l1.9-2.4l1.8-2.4l1.7-2.5l1.6-2.6l1.5-2.6l1.4-2.7l1.3-2.8l1.1-2.8l1-2.8
					l0.9-2.9l0.8-2.9l0.6-2.9l0.5-3l0.4-3l0.2-3l0.1-3l0-3l-0.2-3l-0.3-3l-0.4-3l-0.6-3l-0.7-2.9l-0.8-2.9l-1-2.9l-1.1-2.8l-1.2-2.8
					l-1.4-2.7l-1.5-2.7l-1.6-2.6l-1.7-2.6l-1.8-2.5l-1.9-2.4l-2-2.3l-2.1-2.2l-2.2-2.2l-2.3-2.1l-2.4-2l-2.5-1.9l-2.6-1.8l-2.7-1.7
					l-2.7-1.6l-2.8-1.4l-2.9-1.3l-2.9-1.2l-3-1.1l-3-1l-3.1-0.9l-3.1-0.7l-3.1-0.6l-3.2-0.5l-3.2-0.4l-3.2-0.2l-3.2-0.1l-3.2,0
					l-3.2,0.2l-3.2,0.3l-3.2,0.4l-3.1,0.5l-3.1,0.7l-3.1,0.8l-3,0.9l-3,1l-2.9,1.1l-2.9,1.3l-2.8,1.4l-2.8,1.5l-2.7,1.6l-2.6,1.7
					l-2.5,1.8l-2.5,1.9l-2.4,2l-2.3,2.1l-2.2,2.2l-2.1,2.3l-2,2.3l-1.9,2.4l-1.8,2.5l-1.6,2.6l-1.5,2.6l-1.4,2.7l-1.3,2.7l-1.2,2.8
					l-1,2.8l-0.9,2.9l-0.8,2.9l-0.6,2.9l-0.5,2.9l-0.4,3l-0.3,3l-0.1,3l0,3l0.1,3l0.3,3l0.4,3l0.5,2.9l0.7,2.9L447.7,264.5
					L447.7,264.5"/>
			</g>
		</g>
		<g id="line2d_18_00000034091561788636319710000013746548043988430749_">
			<g>
				<defs>
					<rect id="SVGID_00000021821800250366112260000009113791460371257527_" x="404.3" y="138" width="228.9" height="215.1"/>
				</defs>
				<clipPath id="SVGID_00000149354195295745747800000008899739942880011166_">
					<use xlink:href="#SVGID_00000021821800250366112260000009113791460371257527_"  style="overflow:visible;"/>
				</clipPath>
				<g style="clip-path:url(#SVGID_00000149354195295745747800000008899739942880011166_);">
					<g>
						<path id="m9ee508acfb" class="st12" d="M447.7,265.5c0.3,0,0.5-0.1,0.7-0.3s0.3-0.4,0.3-0.7s-0.1-0.5-0.3-0.7
							s-0.5-0.3-0.7-0.3s-0.5,0.1-0.7,0.3s-0.3,0.4-0.3,0.7s0.1,0.5,0.3,0.7S447.4,265.5,447.7,265.5z"/>
					</g>
				</g>
			</g>
		</g>
		<g id="line2d_19_00000130648683076115400920000016520547373120326079_">
			<g>
				<defs>
					<rect id="SVGID_00000085228100991768537390000000279619741000409002_" x="404.3" y="138" width="228.9" height="215.1"/>
				</defs>
				<clipPath id="SVGID_00000016764973899712570100000007736211637021793421_">
					<use xlink:href="#SVGID_00000085228100991768537390000000279619741000409002_"  style="overflow:visible;"/>
				</clipPath>
				
					<path style="clip-path:url(#SVGID_00000016764973899712570100000007736211637021793421_);fill:none;stroke:#2A7BD1;stroke-width:1.5;stroke-linejoin:round;stroke-opacity:0.6;stroke-dasharray:1.5,2.475;" d="
					M471,332.1l3.9,1.8l4,1.7l4,1.5l4.1,1.3l4.2,1.2l4.2,1l4.3,0.9l4.3,0.7l4.3,0.5l4.3,0.4l4.4,0.2l4.4,0l4.4-0.2l4.3-0.3l4.3-0.5
					l4.3-0.7l4.3-0.8l4.2-1l4.2-1.2l4.1-1.3l4.1-1.5l4-1.7l3.9-1.8l3.8-2l3.7-2.1l3.7-2.3l3.5-2.4l3.4-2.6l3.3-2.7l3.2-2.8l3.1-3
					l2.9-3.1l2.8-3.2l2.6-3.3l2.5-3.4l2.3-3.5l2.2-3.6l2-3.7l1.8-3.8l1.7-3.9l1.5-3.9l1.3-4l1.1-4l0.9-4.1l0.8-4.1l0.6-4.1l0.4-4.2
					l0.2-4.2l0-4.2l-0.2-4.2l-0.4-4.2l-0.6-4.2l-0.8-4.1l-0.9-4.1l-1.1-4.1l-1.3-4l-1.5-4l-1.7-3.9l-1.9-3.8l-2-3.7l-2.2-3.7
					l-2.4-3.6l-2.5-3.5l-2.7-3.4l-2.8-3.3l-3-3.1l-3.1-3l-3.2-2.9l-3.4-2.8l-3.5-2.6l-3.6-2.5l-3.7-2.3l-3.8-2.2l-3.9-2l-4-1.9
					l-4.1-1.7l-4.1-1.5l-4.2-1.4l-4.3-1.2l-4.3-1l-4.3-0.9l-4.4-0.7l-4.4-0.5l-4.4-0.3l-4.4-0.2l-4.4,0l-4.4,0.2l-4.4,0.4l-4.4,0.6
					l-4.3,0.7l-4.3,0.9l-4.2,1.1l-4.2,1.2l-4.1,1.4l-4.1,1.6l-4,1.7l-3.9,1.9l-3.8,2l-3.7,2.2l-3.6,2.3l-3.5,2.5l-3.4,2.6l-3.3,2.7
					l-3.1,2.8l-3,3l-2.9,3.1l-2.7,3.2l-2.6,3.3l-2.4,3.4l-2.3,3.5l-2.1,3.6l-1.9,3.6l-1.8,3.7l-1.6,3.8l-1.4,3.8l-1.3,3.9l-1.1,3.9
					l-0.9,4l-0.7,4l-0.6,4l-0.4,4l-0.2,4.1l0,4.1l0.2,4.1l0.3,4l0.5,4l0.7,4l0.9,4l1,3.9l1.2,3.9l1.4,3.9l1.6,3.8l1.7,3.7l1.9,3.7
					l2,3.6l2.2,3.5l2.3,3.4l2.5,3.3l2.6,3.2l2.8,3.1l2.9,3l3,2.9l3.2,2.8l3.3,2.7l3.4,2.5l3.5,2.4l3.6,2.3l3.7,2.1L471,332.1
					L471,332.1"/>
			</g>
		</g>
		<g id="line2d_20_00000160872078520027868970000014635736092493242254_">
			<g>
				<defs>
					<rect id="SVGID_00000069357411460775943480000005796526753326659475_" x="404.3" y="138" width="228.9" height="215.1"/>
				</defs>
				<clipPath id="SVGID_00000000209029409582514100000012419884258028228494_">
					<use xlink:href="#SVGID_00000069357411460775943480000005796526753326659475_"  style="overflow:visible;"/>
				</clipPath>
				<g style="clip-path:url(#SVGID_00000000209029409582514100000012419884258028228494_);">
					<g>
						<path id="me6fad70a21" class="st15" d="M471,333.1c0.3,0,0.5-0.1,0.7-0.3s0.3-0.4,0.3-0.7s-0.1-0.5-0.3-0.7s-0.5-0.3-0.7-0.3
							s-0.5,0.1-0.7,0.3s-0.3,0.4-0.3,0.7s0.1,0.5,0.3,0.7S470.8,333.1,471,333.1z"/>
					</g>
				</g>
			</g>
		</g>
		<g id="line2d_21_00000116917915019382271300000007547758865312794526_">
			<g>
				<defs>
					<rect id="SVGID_00000146467027711383278500000008071187351615143050_" x="404.3" y="138" width="228.9" height="215.1"/>
				</defs>
				<clipPath id="SVGID_00000138542854227775539370000012533439023690981796_">
					<use xlink:href="#SVGID_00000146467027711383278500000008071187351615143050_"  style="overflow:visible;"/>
				</clipPath>
				
					<path style="clip-path:url(#SVGID_00000138542854227775539370000012533439023690981796_);fill:none;stroke:#FF0000;stroke-width:2;stroke-linecap:square;stroke-linejoin:round;" d="
					M471.7,332l3,1.3l3.2,1.1l3.3,0.8l3.5,0.5l3.6,0.2l3.7-0.1l3.8-0.4l3.9-0.7l3.9-1l4-1.4l4.1-1.8l4.1-2.2l4.1-2.6l4.1-3l4.1-3.5
					l4.1-4.1l3.6-4.4l3.5-5l3.3-5.7l2.9-6.5l2.5-7.5l1.8-8.5l0.6-9.8l-1.3-11.3l-4.9-12.6L532.5,232l-17.5-4.3l-15.4,3.9l-11.1,7
					l-7.9,7.7l-5.7,7.7l-4.2,7.4l-3,7l-2.1,6.6l-1.3,6.2l-0.7,5.8l-0.2,5.4l0.3,5l0.7,4.7l1,4.3l1.3,4l1.6,3.6l1.9,3.3l2.1,3
					l2.3,2.7l2.5,2.3l2.7,2l2.8,1.7l3,1.4"/>
			</g>
		</g>
		<g id="patch_4_00000008145980494942763440000003976574583212010405_">
			<path class="st24" d="M404.3,353.1V138"/>
		</g>
		<g id="patch_5_00000005232719447126940210000002966469010194134916_">
			<path class="st24" d="M633.3,353.1V138"/>
		</g>
		<g id="patch_6_00000068642024030475149550000017220061891300706223_">
			<path class="st24" d="M404.3,353.1h228.9"/>
		</g>
		<g id="patch_7_00000144305850525195756270000003782774176828482986_">
			<path class="st24" d="M404.3,138h228.9"/>
		</g>
	</g>
</g>
</svg>
