<?xml version="1.0" encoding="utf-8" standalone="no"?>
<!DOCTYPE svg PUBLIC "-//W3C//DTD SVG 1.1//EN"
  "http://www.w3.org/Graphics/SVG/1.1/DTD/svg11.dtd">
<svg xmlns:xlink="http://www.w3.org/1999/xlink" width="393.347792pt" height="387.994687pt" viewBox="0 0 393.347792 387.994687" xmlns="http://www.w3.org/2000/svg" version="1.1">
 <metadata>
  <rdf:RDF xmlns:dc="http://purl.org/dc/elements/1.1/" xmlns:cc="http://creativecommons.org/ns#" xmlns:rdf="http://www.w3.org/1999/02/22-rdf-syntax-ns#">
   <cc:Work>
    <dc:type rdf:resource="http://purl.org/dc/dcmitype/StillImage"/>
    <dc:date>2024-01-11T11:28:35.254868</dc:date>
    <dc:format>image/svg+xml</dc:format>
    <dc:creator>
     <cc:Agent>
      <dc:title>Matplotlib v3.7.3, https://matplotlib.org/</dc:title>
     </cc:Agent>
    </dc:creator>
   </cc:Work>
  </rdf:RDF>
 </metadata>
 <defs>
  <style type="text/css">*{stroke-linejoin: round; stroke-linecap: butt}</style>
 </defs>
 <g id="figure_1">
  <g id="patch_1">
   <path d="M 0 387.994687 
L 393.347792 387.994687 
L 393.347792 0 
L 0 0 
z
"/>
  </g>
  <g id="axes_1">
   <g id="patch_2">
    <path d="M 52.182812 350.438437 
L 386.147792 350.438437 
L 386.147792 17.798437 
L 52.182812 17.798437 
z
"/>
   </g>
   <g id="patch_3">
    <path d="M 221.459986 186.924631 
C 222.490189 186.924631 223.478335 186.515328 224.206798 185.786865 
C 224.935261 185.058402 225.344565 184.070255 225.344565 183.040053 
C 225.344565 182.00985 224.935261 181.021703 224.206798 180.29324 
C 223.478335 179.564777 222.490189 179.155474 221.459986 179.155474 
C 220.429784 179.155474 219.441637 179.564777 218.713174 180.29324 
C 217.984711 181.021703 217.575407 182.00985 217.575407 183.040053 
C 217.575407 184.070255 217.984711 185.058402 218.713174 185.786865 
C 219.441637 186.515328 220.429784 186.924631 221.459986 186.924631 
z
" clip-path="url(#p2189e493e0)" style="fill: #ffcc00"/>
   </g>
   <g id="matplotlib.axis_1">
    <g id="xtick_1">
     <g id="line2d_1">
      <defs>
       <path id="m0f533919f2" d="M 0 0 
L 0 3.5 
" style="stroke: #ffffff; stroke-width: 0.8"/>
      </defs>
      <g>
       <use xlink:href="#m0f533919f2" x="68.952603" y="350.438437" style="fill: #ffffff; stroke: #ffffff; stroke-width: 0.8"/>
      </g>
     </g>
     <g id="text_1">
      <!-- −1.5 -->
      <g style="fill: #ffffff" transform="translate(56.811197 365.036875) scale(0.1 -0.1)">
       <defs>
        <path id="DejaVuSans-2212" d="M 678 2272 
L 4684 2272 
L 4684 1741 
L 678 1741 
L 678 2272 
z
" transform="scale(0.015625)"/>
        <path id="DejaVuSans-31" d="M 794 531 
L 1825 531 
L 1825 4091 
L 703 3866 
L 703 4441 
L 1819 4666 
L 2450 4666 
L 2450 531 
L 3481 531 
L 3481 0 
L 794 0 
L 794 531 
z
" transform="scale(0.015625)"/>
        <path id="DejaVuSans-2e" d="M 684 794 
L 1344 794 
L 1344 0 
L 684 0 
L 684 794 
z
" transform="scale(0.015625)"/>
        <path id="DejaVuSans-35" d="M 691 4666 
L 3169 4666 
L 3169 4134 
L 1269 4134 
L 1269 2991 
Q 1406 3038 1543 3061 
Q 1681 3084 1819 3084 
Q 2600 3084 3056 2656 
Q 3513 2228 3513 1497 
Q 3513 744 3044 326 
Q 2575 -91 1722 -91 
Q 1428 -91 1123 -41 
Q 819 9 494 109 
L 494 744 
Q 775 591 1075 516 
Q 1375 441 1709 441 
Q 2250 441 2565 725 
Q 2881 1009 2881 1497 
Q 2881 1984 2565 2268 
Q 2250 2553 1709 2553 
Q 1456 2553 1204 2497 
Q 953 2441 691 2322 
L 691 4666 
z
" transform="scale(0.015625)"/>
       </defs>
       <use xlink:href="#DejaVuSans-2212"/>
       <use xlink:href="#DejaVuSans-31" x="83.789062"/>
       <use xlink:href="#DejaVuSans-2e" x="147.412109"/>
       <use xlink:href="#DejaVuSans-35" x="179.199219"/>
      </g>
     </g>
    </g>
    <g id="xtick_2">
     <g id="line2d_2">
      <g>
       <use xlink:href="#m0f533919f2" x="119.788397" y="350.438437" style="fill: #ffffff; stroke: #ffffff; stroke-width: 0.8"/>
      </g>
     </g>
     <g id="text_2">
      <!-- −1.0 -->
      <g style="fill: #ffffff" transform="translate(107.646991 365.036875) scale(0.1 -0.1)">
       <defs>
        <path id="DejaVuSans-30" d="M 2034 4250 
Q 1547 4250 1301 3770 
Q 1056 3291 1056 2328 
Q 1056 1369 1301 889 
Q 1547 409 2034 409 
Q 2525 409 2770 889 
Q 3016 1369 3016 2328 
Q 3016 3291 2770 3770 
Q 2525 4250 2034 4250 
z
M 2034 4750 
Q 2819 4750 3233 4129 
Q 3647 3509 3647 2328 
Q 3647 1150 3233 529 
Q 2819 -91 2034 -91 
Q 1250 -91 836 529 
Q 422 1150 422 2328 
Q 422 3509 836 4129 
Q 1250 4750 2034 4750 
z
" transform="scale(0.015625)"/>
       </defs>
       <use xlink:href="#DejaVuSans-2212"/>
       <use xlink:href="#DejaVuSans-31" x="83.789062"/>
       <use xlink:href="#DejaVuSans-2e" x="147.412109"/>
       <use xlink:href="#DejaVuSans-30" x="179.199219"/>
      </g>
     </g>
    </g>
    <g id="xtick_3">
     <g id="line2d_3">
      <g>
       <use xlink:href="#m0f533919f2" x="170.624192" y="350.438437" style="fill: #ffffff; stroke: #ffffff; stroke-width: 0.8"/>
      </g>
     </g>
     <g id="text_3">
      <!-- −0.5 -->
      <g style="fill: #ffffff" transform="translate(158.482785 365.036875) scale(0.1 -0.1)">
       <use xlink:href="#DejaVuSans-2212"/>
       <use xlink:href="#DejaVuSans-30" x="83.789062"/>
       <use xlink:href="#DejaVuSans-2e" x="147.412109"/>
       <use xlink:href="#DejaVuSans-35" x="179.199219"/>
      </g>
     </g>
    </g>
    <g id="xtick_4">
     <g id="line2d_4">
      <g>
       <use xlink:href="#m0f533919f2" x="221.459986" y="350.438437" style="fill: #ffffff; stroke: #ffffff; stroke-width: 0.8"/>
      </g>
     </g>
     <g id="text_4">
      <!-- 0.0 -->
      <g style="fill: #ffffff" transform="translate(213.508424 365.036875) scale(0.1 -0.1)">
       <use xlink:href="#DejaVuSans-30"/>
       <use xlink:href="#DejaVuSans-2e" x="63.623047"/>
       <use xlink:href="#DejaVuSans-30" x="95.410156"/>
      </g>
     </g>
    </g>
    <g id="xtick_5">
     <g id="line2d_5">
      <g>
       <use xlink:href="#m0f533919f2" x="272.295781" y="350.438437" style="fill: #ffffff; stroke: #ffffff; stroke-width: 0.8"/>
      </g>
     </g>
     <g id="text_5">
      <!-- 0.5 -->
      <g style="fill: #ffffff" transform="translate(264.344218 365.036875) scale(0.1 -0.1)">
       <use xlink:href="#DejaVuSans-30"/>
       <use xlink:href="#DejaVuSans-2e" x="63.623047"/>
       <use xlink:href="#DejaVuSans-35" x="95.410156"/>
      </g>
     </g>
    </g>
    <g id="xtick_6">
     <g id="line2d_6">
      <g>
       <use xlink:href="#m0f533919f2" x="323.131575" y="350.438437" style="fill: #ffffff; stroke: #ffffff; stroke-width: 0.8"/>
      </g>
     </g>
     <g id="text_6">
      <!-- 1.0 -->
      <g style="fill: #ffffff" transform="translate(315.180013 365.036875) scale(0.1 -0.1)">
       <use xlink:href="#DejaVuSans-31"/>
       <use xlink:href="#DejaVuSans-2e" x="63.623047"/>
       <use xlink:href="#DejaVuSans-30" x="95.410156"/>
      </g>
     </g>
    </g>
    <g id="xtick_7">
     <g id="line2d_7">
      <g>
       <use xlink:href="#m0f533919f2" x="373.96737" y="350.438437" style="fill: #ffffff; stroke: #ffffff; stroke-width: 0.8"/>
      </g>
     </g>
     <g id="text_7">
      <!-- 1.5 -->
      <g style="fill: #ffffff" transform="translate(366.015807 365.036875) scale(0.1 -0.1)">
       <use xlink:href="#DejaVuSans-31"/>
       <use xlink:href="#DejaVuSans-2e" x="63.623047"/>
       <use xlink:href="#DejaVuSans-35" x="95.410156"/>
      </g>
     </g>
    </g>
    <g id="text_8">
     <!-- $x$ (km) -->
     <g style="fill: #ffffff" transform="translate(202.915302 378.715) scale(0.1 -0.1)">
      <defs>
       <path id="DejaVuSans-Oblique-78" d="M 3841 3500 
L 2234 1784 
L 3219 0 
L 2559 0 
L 1819 1388 
L 531 0 
L -166 0 
L 1556 1844 
L 641 3500 
L 1300 3500 
L 1972 2234 
L 3144 3500 
L 3841 3500 
z
" transform="scale(0.015625)"/>
       <path id="DejaVuSans-20" transform="scale(0.015625)"/>
       <path id="DejaVuSans-28" d="M 1984 4856 
Q 1566 4138 1362 3434 
Q 1159 2731 1159 2009 
Q 1159 1288 1364 580 
Q 1569 -128 1984 -844 
L 1484 -844 
Q 1016 -109 783 600 
Q 550 1309 550 2009 
Q 550 2706 781 3412 
Q 1013 4119 1484 4856 
L 1984 4856 
z
" transform="scale(0.015625)"/>
       <path id="DejaVuSans-6b" d="M 581 4863 
L 1159 4863 
L 1159 1991 
L 2875 3500 
L 3609 3500 
L 1753 1863 
L 3688 0 
L 2938 0 
L 1159 1709 
L 1159 0 
L 581 0 
L 581 4863 
z
" transform="scale(0.015625)"/>
       <path id="DejaVuSans-6d" d="M 3328 2828 
Q 3544 3216 3844 3400 
Q 4144 3584 4550 3584 
Q 5097 3584 5394 3201 
Q 5691 2819 5691 2113 
L 5691 0 
L 5113 0 
L 5113 2094 
Q 5113 2597 4934 2840 
Q 4756 3084 4391 3084 
Q 3944 3084 3684 2787 
Q 3425 2491 3425 1978 
L 3425 0 
L 2847 0 
L 2847 2094 
Q 2847 2600 2669 2842 
Q 2491 3084 2119 3084 
Q 1678 3084 1418 2786 
Q 1159 2488 1159 1978 
L 1159 0 
L 581 0 
L 581 3500 
L 1159 3500 
L 1159 2956 
Q 1356 3278 1631 3431 
Q 1906 3584 2284 3584 
Q 2666 3584 2933 3390 
Q 3200 3197 3328 2828 
z
" transform="scale(0.015625)"/>
       <path id="DejaVuSans-29" d="M 513 4856 
L 1013 4856 
Q 1481 4119 1714 3412 
Q 1947 2706 1947 2009 
Q 1947 1309 1714 600 
Q 1481 -109 1013 -844 
L 513 -844 
Q 928 -128 1133 580 
Q 1338 1288 1338 2009 
Q 1338 2731 1133 3434 
Q 928 4138 513 4856 
z
" transform="scale(0.015625)"/>
      </defs>
      <use xlink:href="#DejaVuSans-Oblique-78" transform="translate(0 0.015625)"/>
      <use xlink:href="#DejaVuSans-20" transform="translate(59.179688 0.015625)"/>
      <use xlink:href="#DejaVuSans-28" transform="translate(90.966797 0.015625)"/>
      <use xlink:href="#DejaVuSans-6b" transform="translate(129.980469 0.015625)"/>
      <use xlink:href="#DejaVuSans-6d" transform="translate(187.890625 0.015625)"/>
      <use xlink:href="#DejaVuSans-29" transform="translate(285.302734 0.015625)"/>
     </g>
    </g>
    <g id="text_9">
     <!-- 1e8 -->
     <g style="fill: #ffffff" transform="translate(367.269667 377.715) scale(0.1 -0.1)">
      <defs>
       <path id="DejaVuSans-65" d="M 3597 1894 
L 3597 1613 
L 953 1613 
Q 991 1019 1311 708 
Q 1631 397 2203 397 
Q 2534 397 2845 478 
Q 3156 559 3463 722 
L 3463 178 
Q 3153 47 2828 -22 
Q 2503 -91 2169 -91 
Q 1331 -91 842 396 
Q 353 884 353 1716 
Q 353 2575 817 3079 
Q 1281 3584 2069 3584 
Q 2775 3584 3186 3129 
Q 3597 2675 3597 1894 
z
M 3022 2063 
Q 3016 2534 2758 2815 
Q 2500 3097 2075 3097 
Q 1594 3097 1305 2825 
Q 1016 2553 972 2059 
L 3022 2063 
z
" transform="scale(0.015625)"/>
       <path id="DejaVuSans-38" d="M 2034 2216 
Q 1584 2216 1326 1975 
Q 1069 1734 1069 1313 
Q 1069 891 1326 650 
Q 1584 409 2034 409 
Q 2484 409 2743 651 
Q 3003 894 3003 1313 
Q 3003 1734 2745 1975 
Q 2488 2216 2034 2216 
z
M 1403 2484 
Q 997 2584 770 2862 
Q 544 3141 544 3541 
Q 544 4100 942 4425 
Q 1341 4750 2034 4750 
Q 2731 4750 3128 4425 
Q 3525 4100 3525 3541 
Q 3525 3141 3298 2862 
Q 3072 2584 2669 2484 
Q 3125 2378 3379 2068 
Q 3634 1759 3634 1313 
Q 3634 634 3220 271 
Q 2806 -91 2034 -91 
Q 1263 -91 848 271 
Q 434 634 434 1313 
Q 434 1759 690 2068 
Q 947 2378 1403 2484 
z
M 1172 3481 
Q 1172 3119 1398 2916 
Q 1625 2713 2034 2713 
Q 2441 2713 2670 2916 
Q 2900 3119 2900 3481 
Q 2900 3844 2670 4047 
Q 2441 4250 2034 4250 
Q 1625 4250 1398 4047 
Q 1172 3844 1172 3481 
z
" transform="scale(0.015625)"/>
      </defs>
      <use xlink:href="#DejaVuSans-31"/>
      <use xlink:href="#DejaVuSans-65" x="63.623047"/>
      <use xlink:href="#DejaVuSans-38" x="125.146484"/>
     </g>
    </g>
   </g>
   <g id="matplotlib.axis_2">
    <g id="ytick_1">
     <g id="line2d_8">
      <defs>
       <path id="meed2ddb4d5" d="M 0 0 
L -3.5 0 
" style="stroke: #ffffff; stroke-width: 0.8"/>
      </defs>
      <g>
       <use xlink:href="#meed2ddb4d5" x="52.182812" y="335.547436" style="fill: #ffffff; stroke: #ffffff; stroke-width: 0.8"/>
      </g>
     </g>
     <g id="text_10">
      <!-- −1.5 -->
      <g style="fill: #ffffff" transform="translate(20.9 339.346655) scale(0.1 -0.1)">
       <use xlink:href="#DejaVuSans-2212"/>
       <use xlink:href="#DejaVuSans-31" x="83.789062"/>
       <use xlink:href="#DejaVuSans-2e" x="147.412109"/>
       <use xlink:href="#DejaVuSans-35" x="179.199219"/>
      </g>
     </g>
    </g>
    <g id="ytick_2">
     <g id="line2d_9">
      <g>
       <use xlink:href="#meed2ddb4d5" x="52.182812" y="284.711641" style="fill: #ffffff; stroke: #ffffff; stroke-width: 0.8"/>
      </g>
     </g>
     <g id="text_11">
      <!-- −1.0 -->
      <g style="fill: #ffffff" transform="translate(20.9 288.51086) scale(0.1 -0.1)">
       <use xlink:href="#DejaVuSans-2212"/>
       <use xlink:href="#DejaVuSans-31" x="83.789062"/>
       <use xlink:href="#DejaVuSans-2e" x="147.412109"/>
       <use xlink:href="#DejaVuSans-30" x="179.199219"/>
      </g>
     </g>
    </g>
    <g id="ytick_3">
     <g id="line2d_10">
      <g>
       <use xlink:href="#meed2ddb4d5" x="52.182812" y="233.875847" style="fill: #ffffff; stroke: #ffffff; stroke-width: 0.8"/>
      </g>
     </g>
     <g id="text_12">
      <!-- −0.5 -->
      <g style="fill: #ffffff" transform="translate(20.9 237.675066) scale(0.1 -0.1)">
       <use xlink:href="#DejaVuSans-2212"/>
       <use xlink:href="#DejaVuSans-30" x="83.789062"/>
       <use xlink:href="#DejaVuSans-2e" x="147.412109"/>
       <use xlink:href="#DejaVuSans-35" x="179.199219"/>
      </g>
     </g>
    </g>
    <g id="ytick_4">
     <g id="line2d_11">
      <g>
       <use xlink:href="#meed2ddb4d5" x="52.182812" y="183.040053" style="fill: #ffffff; stroke: #ffffff; stroke-width: 0.8"/>
      </g>
     </g>
     <g id="text_13">
      <!-- 0.0 -->
      <g style="fill: #ffffff" transform="translate(29.279687 186.839271) scale(0.1 -0.1)">
       <use xlink:href="#DejaVuSans-30"/>
       <use xlink:href="#DejaVuSans-2e" x="63.623047"/>
       <use xlink:href="#DejaVuSans-30" x="95.410156"/>
      </g>
     </g>
    </g>
    <g id="ytick_5">
     <g id="line2d_12">
      <g>
       <use xlink:href="#meed2ddb4d5" x="52.182812" y="132.204258" style="fill: #ffffff; stroke: #ffffff; stroke-width: 0.8"/>
      </g>
     </g>
     <g id="text_14">
      <!-- 0.5 -->
      <g style="fill: #ffffff" transform="translate(29.279687 136.003477) scale(0.1 -0.1)">
       <use xlink:href="#DejaVuSans-30"/>
       <use xlink:href="#DejaVuSans-2e" x="63.623047"/>
       <use xlink:href="#DejaVuSans-35" x="95.410156"/>
      </g>
     </g>
    </g>
    <g id="ytick_6">
     <g id="line2d_13">
      <g>
       <use xlink:href="#meed2ddb4d5" x="52.182812" y="81.368464" style="fill: #ffffff; stroke: #ffffff; stroke-width: 0.8"/>
      </g>
     </g>
     <g id="text_15">
      <!-- 1.0 -->
      <g style="fill: #ffffff" transform="translate(29.279687 85.167682) scale(0.1 -0.1)">
       <use xlink:href="#DejaVuSans-31"/>
       <use xlink:href="#DejaVuSans-2e" x="63.623047"/>
       <use xlink:href="#DejaVuSans-30" x="95.410156"/>
      </g>
     </g>
    </g>
    <g id="ytick_7">
     <g id="line2d_14">
      <g>
       <use xlink:href="#meed2ddb4d5" x="52.182812" y="30.532669" style="fill: #ffffff; stroke: #ffffff; stroke-width: 0.8"/>
      </g>
     </g>
     <g id="text_16">
      <!-- 1.5 -->
      <g style="fill: #ffffff" transform="translate(29.279687 34.331888) scale(0.1 -0.1)">
       <use xlink:href="#DejaVuSans-31"/>
       <use xlink:href="#DejaVuSans-2e" x="63.623047"/>
       <use xlink:href="#DejaVuSans-35" x="95.410156"/>
      </g>
     </g>
    </g>
    <g id="text_17">
     <!-- $y$ (km) -->
     <g style="fill: #ffffff" transform="translate(14.8 200.368437) rotate(-90) scale(0.1 -0.1)">
      <defs>
       <path id="DejaVuSans-Oblique-79" d="M 1588 -325 
Q 1188 -997 936 -1164 
Q 684 -1331 294 -1331 
L -159 -1331 
L -63 -850 
L 269 -850 
Q 509 -850 678 -719 
Q 847 -588 1056 -206 
L 1234 128 
L 459 3500 
L 1069 3500 
L 1650 819 
L 3256 3500 
L 3859 3500 
L 1588 -325 
z
" transform="scale(0.015625)"/>
      </defs>
      <use xlink:href="#DejaVuSans-Oblique-79" transform="translate(0 0.015625)"/>
      <use xlink:href="#DejaVuSans-20" transform="translate(59.179688 0.015625)"/>
      <use xlink:href="#DejaVuSans-28" transform="translate(90.966797 0.015625)"/>
      <use xlink:href="#DejaVuSans-6b" transform="translate(129.980469 0.015625)"/>
      <use xlink:href="#DejaVuSans-6d" transform="translate(187.890625 0.015625)"/>
      <use xlink:href="#DejaVuSans-29" transform="translate(285.302734 0.015625)"/>
     </g>
    </g>
    <g id="text_18">
     <!-- 1e8 -->
     <g style="fill: #ffffff" transform="translate(52.182812 14.798437) scale(0.1 -0.1)">
      <use xlink:href="#DejaVuSans-31"/>
      <use xlink:href="#DejaVuSans-65" x="63.623047"/>
      <use xlink:href="#DejaVuSans-38" x="125.146484"/>
     </g>
    </g>
   </g>
   <g id="line2d_15">
    <path d="M 201.629614 240.161009 
L 206.483786 240.59038 
L 211.441033 240.622528 
L 216.470788 240.236109 
L 221.538451 239.411107 
L 224.074509 238.828403 
L 226.605095 238.129488 
L 229.124632 237.312553 
L 231.627251 236.376022 
L 234.106793 235.318587 
L 236.556814 234.139245 
L 238.970593 232.837339 
L 241.341142 231.412593 
L 243.661231 229.865157 
L 245.923405 228.195649 
L 248.120018 226.405197 
L 250.24327 224.495481 
L 252.28525 222.468773 
L 254.237989 220.327971 
L 256.093518 218.076635 
L 257.843933 215.71901 
L 259.481473 213.260046 
L 260.998591 210.70541 
L 262.388044 208.061482 
L 263.642976 205.335347 
L 264.757005 202.534768 
L 265.724311 199.668152 
L 266.539721 196.744496 
L 267.198782 193.773326 
L 267.697836 190.764622 
L 268.034074 187.728728 
L 268.205585 184.676255 
L 268.211391 181.617984 
L 268.051457 178.564752 
L 267.726697 175.527346 
L 267.238958 172.516393 
L 266.590985 169.542261 
L 265.786379 166.614956 
L 264.82954 163.74404 
L 263.725592 160.938548 
L 262.480313 158.206932 
L 261.100048 155.557002 
L 259.591622 152.99589 
L 257.962255 150.530027 
L 256.219474 148.16513 
L 254.37103 145.9062 
L 252.424817 143.75753 
L 250.388803 141.722728 
L 248.270959 139.804737 
L 246.079203 138.005873 
L 243.821343 136.327855 
L 241.505038 134.77185 
L 239.137757 133.338508 
L 236.726748 132.028013 
L 234.279016 130.840117 
L 231.801302 129.774186 
L 229.300069 128.829242 
L 226.781496 128.003996 
L 224.251474 127.296892 
L 221.715601 126.706133 
L 216.647247 125.865477 
L 211.615519 125.46408 
L 206.655164 125.481979 
L 201.796885 125.897868 
L 197.067678 126.689626 
L 192.491176 127.834735 
L 188.088004 129.310591 
L 183.876101 131.094737 
L 179.871035 133.165031 
L 176.086281 135.499754 
L 172.533475 138.077684 
L 169.222642 140.878132 
L 166.162393 143.880959 
L 163.360099 147.066563 
L 160.822047 150.415864 
L 158.553567 153.910273 
L 156.559144 157.531649 
L 154.842513 161.262258 
L 153.406742 165.084722 
L 152.254292 168.981971 
L 151.387074 172.937183 
L 150.806486 176.933738 
L 150.513449 180.955155 
L 150.50842 184.985038 
L 150.791408 189.007022 
L 151.361969 193.004715 
L 152.219202 196.961638 
L 153.361722 200.861177 
L 154.787639 204.686519 
L 156.49451 208.420603 
L 158.47929 212.046062 
L 160.738269 215.545177 
L 163.266987 218.899822 
L 166.060145 222.091423 
L 169.111494 225.10092 
L 172.413701 227.90873 
L 175.958199 230.494733 
L 179.735018 232.83826 
L 183.73258 234.918109 
L 187.937478 236.712578 
L 192.334224 238.199539 
L 196.904965 239.356545 
L 201.629178 240.160995 
L 201.629178 240.160995 
" clip-path="url(#p2189e493e0)" style="fill: none; stroke-dasharray: 1.5,2.475; stroke-dashoffset: 0; stroke: #8c8680; stroke-width: 1.5"/>
   </g>
   <g id="line2d_16">
    <defs>
     <path id="mbd098b0ae7" d="M 0 1.5 
C 0.397805 1.5 0.77937 1.341951 1.06066 1.06066 
C 1.341951 0.77937 1.5 0.397805 1.5 0 
C 1.5 -0.397805 1.341951 -0.77937 1.06066 -1.06066 
C 0.77937 -1.341951 0.397805 -1.5 0 -1.5 
C -0.397805 -1.5 -0.77937 -1.341951 -1.06066 -1.06066 
C -1.341951 -0.77937 -1.5 -0.397805 -1.5 0 
C -1.5 0.397805 -1.341951 0.77937 -1.06066 1.06066 
C -0.77937 1.341951 -0.397805 1.5 0 1.5 
z
" style="stroke: #8c8680"/>
    </defs>
    <g clip-path="url(#p2189e493e0)">
     <use xlink:href="#mbd098b0ae7" x="201.629614" y="240.161009" style="fill: #8c8680; stroke: #8c8680"/>
    </g>
   </g>
   <g id="line2d_17">
    <path d="M 115.37981 213.395482 
L 116.731804 217.805115 
L 118.266975 222.153946 
L 119.98255 226.434402 
L 121.875452 230.639033 
L 123.942298 234.760526 
L 126.179415 238.791718 
L 128.582835 242.725605 
L 131.148312 246.555352 
L 133.871324 250.274311 
L 136.747081 253.876024 
L 139.770537 257.354237 
L 142.936392 260.702909 
L 146.239107 263.916225 
L 149.67291 266.988601 
L 153.231806 269.914693 
L 156.909588 272.689411 
L 160.699845 275.30792 
L 164.595977 277.765656 
L 168.591198 280.058325 
L 172.678556 282.181917 
L 176.850937 284.132709 
L 181.101083 285.907271 
L 185.421596 287.502475 
L 189.80496 288.915497 
L 194.243542 290.143824 
L 198.729615 291.185257 
L 203.255364 292.037916 
L 207.812898 292.700245 
L 212.39427 293.17101 
L 216.991482 293.449308 
L 221.596505 293.534563 
L 226.201285 293.426534 
L 230.797764 293.12531 
L 235.377888 292.631313 
L 239.933622 291.945299 
L 244.456965 291.068357 
L 248.939962 290.001907 
L 253.374716 288.747699 
L 257.753407 287.307811 
L 262.068298 285.684646 
L 266.311755 283.880929 
L 270.476256 281.899704 
L 274.554405 279.744329 
L 278.538947 277.418471 
L 282.422779 274.926099 
L 286.198964 272.271485 
L 289.860742 269.459187 
L 293.401544 266.494051 
L 296.815001 263.381199 
L 300.094962 260.126022 
L 303.235498 256.734172 
L 306.230918 253.211552 
L 309.075779 249.564307 
L 311.764895 245.798813 
L 314.29335 241.921668 
L 316.656503 237.93968 
L 318.850004 233.859857 
L 320.869795 229.689392 
L 322.712124 225.435652 
L 324.373552 221.106169 
L 325.850958 216.70862 
L 327.141547 212.25082 
L 328.242857 207.740703 
L 329.152763 203.186312 
L 329.869483 198.595782 
L 330.391583 193.977326 
L 330.717978 189.33922 
L 330.84794 184.689789 
L 330.781093 180.037389 
L 330.517423 175.390394 
L 330.057273 170.75718 
L 329.401346 166.146109 
L 328.550702 161.565511 
L 327.506762 157.023672 
L 326.271301 152.528817 
L 324.846449 148.089094 
L 323.234682 143.712557 
L 321.438828 139.407152 
L 319.462053 135.180703 
L 317.307859 131.040893 
L 314.98008 126.995255 
L 312.48287 123.05115 
L 309.820701 119.215759 
L 306.998352 115.496065 
L 304.0209 111.898843 
L 300.893713 108.430643 
L 297.622434 105.097779 
L 294.21298 101.906317 
L 290.67152 98.862063 
L 287.004472 95.970552 
L 283.218487 93.237035 
L 279.320433 90.666473 
L 275.31739 88.263523 
L 271.216629 86.032533 
L 267.025599 83.977529 
L 262.751917 82.102215 
L 258.403349 80.409957 
L 253.987797 78.903784 
L 249.513281 77.586377 
L 244.987928 76.460069 
L 240.419952 75.526839 
L 235.817642 74.788306 
L 231.189342 74.245732 
L 226.543439 73.900014 
L 221.888342 73.751689 
L 217.232472 73.800928 
L 212.584242 74.04754 
L 207.952042 74.490972 
L 203.344222 75.130311 
L 198.76908 75.964287 
L 194.234841 76.991273 
L 189.749649 78.209295 
L 185.321543 79.616031 
L 180.958451 81.20882 
L 176.66817 82.984665 
L 172.458351 84.940242 
L 168.336493 87.071904 
L 164.30992 89.375694 
L 160.385773 91.847347 
L 156.570999 94.482303 
L 152.872334 97.275715 
L 149.296296 100.222459 
L 145.849172 103.317143 
L 142.537005 106.554121 
L 139.365588 109.927498 
L 136.340453 113.431149 
L 133.466862 117.058725 
L 130.749795 120.803667 
L 128.193948 124.65922 
L 125.803723 128.618442 
L 123.58322 132.674221 
L 121.53623 136.819286 
L 119.666235 141.04622 
L 117.976397 145.347473 
L 116.469555 149.71538 
L 115.148224 154.142167 
L 114.014587 158.619973 
L 113.070496 163.140859 
L 112.317469 167.696822 
L 111.756687 172.279811 
L 111.388995 176.88174 
L 111.214901 181.494501 
L 111.234575 186.10998 
L 111.447849 190.720068 
L 111.854223 195.316678 
L 112.45286 199.891754 
L 113.242593 204.437291 
L 114.221927 208.945342 
L 115.389042 213.408034 
L 115.389042 213.408034 
" clip-path="url(#p2189e493e0)" style="fill: none; stroke-dasharray: 1.5,2.475; stroke-dashoffset: 0; stroke: #e6db67; stroke-width: 1.5"/>
   </g>
   <g id="line2d_18">
    <defs>
     <path id="m460a2178cf" d="M 0 1.5 
C 0.397805 1.5 0.77937 1.341951 1.06066 1.06066 
C 1.341951 0.77937 1.5 0.397805 1.5 0 
C 1.5 -0.397805 1.341951 -0.77937 1.06066 -1.06066 
C 0.77937 -1.341951 0.397805 -1.5 0 -1.5 
C -0.397805 -1.5 -0.77937 -1.341951 -1.06066 -1.06066 
C -1.341951 -0.77937 -1.5 -0.397805 -1.5 0 
C -1.5 0.397805 -1.341951 0.77937 -1.06066 1.06066 
C -0.77937 1.341951 -0.397805 1.5 0 1.5 
z
" style="stroke: #e6db67"/>
    </defs>
    <g clip-path="url(#p2189e493e0)">
     <use xlink:href="#m460a2178cf" x="115.37981" y="213.395482" style="fill: #e6db67; stroke: #e6db67"/>
    </g>
   </g>
   <g id="line2d_19">
    <path d="M 149.470093 318.025119 
L 155.145642 320.832959 
L 160.934085 323.403598 
L 166.825047 325.732906 
L 172.808381 327.817271 
L 178.8741 329.653419 
L 185.012318 331.238327 
L 191.213196 332.569141 
L 197.466849 333.643093 
L 203.763188 334.457452 
L 210.091718 335.009577 
L 216.441324 335.297117 
L 222.800241 335.318437 
L 229.156421 335.072986 
L 235.498047 334.561227 
L 241.813743 333.784283 
L 248.092518 332.743684 
L 254.323672 331.441267 
L 260.496754 329.879101 
L 266.601488 328.059391 
L 272.627611 325.984409 
L 278.564658 323.656539 
L 284.401783 321.078491 
L 290.127738 318.253641 
L 295.731142 315.186364 
L 301.200935 311.882074 
L 306.526695 308.346932 
L 311.698644 304.587525 
L 316.707539 300.610709 
L 321.544601 296.42354 
L 326.201472 292.033185 
L 330.670071 287.446809 
L 334.942356 282.671578 
L 339.010102 277.714883 
L 342.86491 272.584689 
L 346.498459 267.289813 
L 349.902892 261.839966 
L 353.071132 256.245542 
L 355.99696 250.517295 
L 358.674927 244.666116 
L 361.100248 238.70294 
L 363.268744 232.638667 
L 365.176745 226.484051 
L 366.820861 220.249617 
L 368.197679 213.945834 
L 369.30371 207.583522 
L 370.135679 201.174159 
L 370.690903 194.729881 
L 370.967565 188.263279 
L 370.964801 181.787117 
L 370.682642 175.314086 
L 370.121899 168.856669 
L 369.284059 162.427068 
L 368.171203 156.037111 
L 366.785828 149.698143 
L 365.130516 143.421086 
L 363.207732 137.216825 
L 361.020066 131.096647 
L 358.570697 125.07228 
L 355.863661 119.155632 
L 352.903906 113.358515 
L 349.697226 107.692422 
L 346.250155 102.168381 
L 342.569832 96.796865 
L 338.663895 91.587727 
L 334.540333 86.550129 
L 330.207215 81.692515 
L 325.672383 77.022891 
L 320.943514 72.549341 
L 316.028625 68.280241 
L 310.936455 64.223994 
L 305.676508 60.388686 
L 300.258943 56.781878 
L 294.694466 53.410485 
L 288.994195 50.280685 
L 283.16953 47.397865 
L 277.231994 44.766588 
L 271.19303 42.390586 
L 265.06371 40.272925 
L 258.854635 38.416458 
L 252.576314 36.82423 
L 246.239691 35.499342 
L 239.856278 34.444541 
L 233.438019 33.661966 
L 226.997143 33.153045 
L 220.546044 32.918437 
L 214.097148 32.957977 
L 207.66275 33.270653 
L 201.254817 33.854649 
L 194.884768 34.707487 
L 188.563335 35.826373 
L 182.300782 37.208627 
L 176.107415 38.851756 
L 169.993896 40.753088 
L 163.971147 42.909418 
L 158.050163 45.316886 
L 152.241879 47.970947 
L 146.557068 50.866331 
L 141.006174 53.997016 
L 135.599112 57.356272 
L 130.345069 60.936841 
L 125.252411 64.731239 
L 120.328821 68.732119 
L 115.58172 72.932449 
L 111.018651 77.325273 
L 106.647315 81.903325 
L 102.475382 86.658835 
L 98.510331 91.58349 
L 94.759345 96.668426 
L 91.229194 101.904194 
L 87.926019 107.280775 
L 84.85512 112.787767 
L 82.02087 118.414713 
L 79.426884 124.151437 
L 77.07637 129.988202 
L 74.972492 135.915567 
L 73.118498 141.924057 
L 71.517596 148.003902 
L 70.172768 154.144958 
L 69.086657 160.336716 
L 68.261472 166.568278 
L 67.698813 172.82834 
L 67.399417 179.105329 
L 67.363039 185.387762 
L 67.588629 191.664627 
L 68.074716 197.925517 
L 68.81974 204.160499 
L 69.822193 210.359829 
L 71.080556 216.513696 
L 72.593134 222.612102 
L 74.35792 228.644845 
L 76.372503 234.601524 
L 78.63394 240.471515 
L 81.138525 246.244034 
L 83.881575 251.908454 
L 86.857563 257.454772 
L 90.060562 262.873799 
L 93.484617 268.156995 
L 97.123872 273.296174 
L 100.97252 278.283278 
L 105.024672 283.110236 
L 109.274218 287.768924 
L 113.714721 292.251176 
L 118.33932 296.548781 
L 123.140548 300.653501 
L 128.110094 304.557286 
L 133.238796 308.252758 
L 138.517085 311.733546 
L 143.935483 314.994136 
L 149.484747 318.029513 
L 149.484747 318.029513 
" clip-path="url(#p2189e493e0)" style="fill: none; stroke-dasharray: 1.5,2.475; stroke-dashoffset: 0; stroke: #2a7bd1; stroke-width: 1.5"/>
   </g>
   <g id="line2d_20">
    <defs>
     <path id="m48df03dc3a" d="M 0 1.5 
C 0.397805 1.5 0.77937 1.341951 1.06066 1.06066 
C 1.341951 0.77937 1.5 0.397805 1.5 0 
C 1.5 -0.397805 1.341951 -0.77937 1.06066 -1.06066 
C 0.77937 -1.341951 0.397805 -1.5 0 -1.5 
C -0.397805 -1.5 -0.77937 -1.341951 -1.06066 -1.06066 
C -1.341951 -0.77937 -1.5 -0.397805 -1.5 0 
C -1.5 0.397805 -1.341951 0.77937 -1.06066 1.06066 
C -0.77937 1.341951 -0.397805 1.5 0 1.5 
z
" style="stroke: #2a7bd1"/>
    </defs>
    <g clip-path="url(#p2189e493e0)">
     <use xlink:href="#m48df03dc3a" x="149.470093" y="318.025119" style="fill: #2a7bd1; stroke: #2a7bd1"/>
    </g>
   </g>
   <g id="line2d_21">
    <path d="M 150.449855 317.798701 
L 152.005028 318.581186 
L 153.591828 319.31429 
L 155.205613 319.995478 
L 156.845471 320.624169 
L 158.51076 321.199891 
L 160.200884 321.722178 
L 161.915133 322.19044 
L 163.652385 322.603818 
L 165.412815 322.962267 
L 167.195886 323.265243 
L 169.001062 323.512176 
L 170.827807 323.702468 
L 172.675583 323.835492 
L 174.54385 323.91059 
L 176.432063 323.92707 
L 178.339669 323.884208 
L 180.266136 323.781246 
L 182.210913 323.617388 
L 184.173372 323.391789 
L 186.152919 323.103568 
L 188.148943 322.7518 
L 190.160818 322.335515 
L 192.187895 321.853692 
L 194.229507 321.30526 
L 196.284957 320.689092 
L 198.353522 320.004001 
L 200.434446 319.248741 
L 202.526941 318.421999 
L 204.630177 317.522392 
L 206.74328 316.548461 
L 208.865328 315.498672 
L 210.995345 314.371401 
L 213.132295 313.164936 
L 215.275072 311.877467 
L 217.422496 310.507079 
L 219.573302 309.051746 
L 221.726131 307.509321 
L 223.879516 305.877528 
L 226.031872 304.153946 
L 228.181479 302.336007 
L 230.326462 300.420975 
L 232.464772 298.405931 
L 234.59415 296.287753 
L 236.712066 294.063013 
L 238.781597 291.747216 
L 240.675883 289.446501 
L 242.55073 287.028922 
L 244.40229 284.489839 
L 246.226746 281.824729 
L 248.019862 279.028746 
L 249.77689 276.096636 
L 251.492454 273.022696 
L 253.160445 269.800715 
L 254.773867 266.42392 
L 256.324667 262.884907 
L 257.803505 259.175578 
L 259.199473 255.287058 
L 260.499736 251.209623 
L 261.68906 246.932624 
L 262.749201 242.444422 
L 263.658095 237.732362 
L 264.388777 232.782806 
L 264.907908 227.581303 
L 265.173769 222.113011 
L 265.133478 216.36359 
L 264.719141 210.320998 
L 263.842547 203.978979 
L 262.388092 197.343795 
L 260.204178 190.447089 
L 257.095531 183.369952 
L 252.82561 176.28527 
L 247.153956 169.520229 
L 239.952105 163.606231 
L 231.402021 159.204131 
" clip-path="url(#p2189e493e0)" style="fill: none; stroke: #ff0000; stroke-width: 2; stroke-linecap: square"/>
   </g>
   <g id="line2d_22">
    <path d="M 231.402021 159.204131 
L 223.401429 157.012246 
L 215.338904 156.354345 
L 207.62346 157.023336 
L 200.48307 158.709439 
L 193.994219 161.1194 
L 188.146251 164.022842 
L 182.890184 167.253257 
L 178.165533 170.694284 
L 173.912606 174.265351 
L 170.077243 177.91053 
L 166.612078 181.59072 
L 163.476333 185.278344 
L 160.635109 188.953797 
L 158.058541 192.603045 
L 155.72101 196.216004 
L 153.600446 199.785414 
L 151.67775 203.306063 
L 149.936304 206.774234 
L 148.361574 210.187315 
L 146.940787 213.543512 
L 145.662658 216.841642 
L 144.517171 220.080982 
L 143.495396 223.261151 
L 142.589336 226.382028 
L 141.791803 229.443686 
L 141.096308 232.446341 
L 140.496975 235.390317 
L 139.988464 238.276017 
L 139.565903 241.103896 
L 139.224839 243.874449 
L 138.961187 246.588196 
L 138.77119 249.245671 
L 138.651382 251.847414 
L 138.598564 254.393971 
L 138.609772 256.88589 
L 138.682244 259.323674 
L 138.813416 261.707837 
L 139.000898 264.038878 
L 139.242454 266.31728 
L 139.535995 268.543507 
L 139.879557 270.71801 
L 140.2713 272.841215 
L 140.709489 274.913535 
L 141.192491 276.935359 
L 141.718764 278.907059 
L 142.28685 280.828987 
L 142.895368 282.701477 
L 143.543012 284.524841 
L 144.228539 286.299374 
L 144.950767 288.025351 
L 145.708573 289.703029 
L 146.500884 291.332646 
L 147.32668 292.914421 
L 148.184981 294.448558 
L 149.074855 295.935238 
L 149.995404 297.37463 
L 150.945769 298.76688 
L 151.925127 300.112121 
L 152.932683 301.410467 
L 153.967674 302.662014 
L 155.029363 303.866843 
L 156.117042 305.025016 
L 157.230022 306.13658 
L 158.367641 307.201565 
L 159.529255 308.219984 
L 160.71424 309.191832 
L 161.92199 310.11709 
L 163.151916 310.995719 
L 164.403443 311.827665 
L 165.676013 312.612858 
L 166.969079 313.351208 
L 168.282105 314.04261 
L 169.614569 314.68694 
L 170.965957 315.284058 
" clip-path="url(#p2189e493e0)" style="fill: none; stroke: #ff0000; stroke-width: 2; stroke-linecap: square"/>
   </g>
   <g id="patch_4">
    <path d="M 52.182812 350.438437 
L 52.182812 17.798437 
" style="fill: none; stroke: #ffffff; stroke-width: 0.8; stroke-linejoin: miter; stroke-linecap: square"/>
   </g>
   <g id="patch_5">
    <path d="M 386.147792 350.438437 
L 386.147792 17.798437 
" style="fill: none; stroke: #ffffff; stroke-width: 0.8; stroke-linejoin: miter; stroke-linecap: square"/>
   </g>
   <g id="patch_6">
    <path d="M 52.182812 350.438437 
L 386.147792 350.438437 
" style="fill: none; stroke: #ffffff; stroke-width: 0.8; stroke-linejoin: miter; stroke-linecap: square"/>
   </g>
   <g id="patch_7">
    <path d="M 52.182812 17.798437 
L 386.147792 17.798437 
" style="fill: none; stroke: #ffffff; stroke-width: 0.8; stroke-linejoin: miter; stroke-linecap: square"/>
   </g>
  </g>
 </g>
 <defs>
  <clipPath id="p2189e493e0">
   <rect x="52.182812" y="17.798437" width="333.964979" height="332.64"/>
  </clipPath>
 </defs>
</svg>
