<?xml version="1.0" encoding="utf-8" standalone="no"?>
<!DOCTYPE svg PUBLIC "-//W3C//DTD SVG 1.1//EN"
  "http://www.w3.org/Graphics/SVG/1.1/DTD/svg11.dtd">
<svg xmlns:xlink="http://www.w3.org/1999/xlink" width="815.50161pt" height="317.99875pt" viewBox="0 0 815.50161 317.99875" xmlns="http://www.w3.org/2000/svg" version="1.1">
 <metadata>
  <rdf:RDF xmlns:dc="http://purl.org/dc/elements/1.1/" xmlns:cc="http://creativecommons.org/ns#" xmlns:rdf="http://www.w3.org/1999/02/22-rdf-syntax-ns#">
   <cc:Work>
    <dc:type rdf:resource="http://purl.org/dc/dcmitype/StillImage"/>
    <dc:date>2024-01-10T17:31:45.312461</dc:date>
    <dc:format>image/svg+xml</dc:format>
    <dc:creator>
     <cc:Agent>
      <dc:title>Matplotlib v3.7.3, https://matplotlib.org/</dc:title>
     </cc:Agent>
    </dc:creator>
   </cc:Work>
  </rdf:RDF>
 </metadata>
 <defs>
  <style type="text/css">*{stroke-linejoin: round; stroke-linecap: butt}</style>
 </defs>
 <g id="figure_1">
  <g id="patch_1">
   <path d="M 0 317.99875 
L 815.50161 317.99875 
L 815.50161 0 
L 0 0 
z
" style="fill: #ffffff"/>
  </g>
  <g id="axes_1">
   <g id="patch_2">
    <path d="M 77.5015 280.8 
L 811.9015 280.8 
L 811.9015 3.6 
L 77.5015 3.6 
z
" style="fill: #ffffff"/>
   </g>
   <g id="matplotlib.axis_1">
    <g id="xtick_1">
     <g id="line2d_1">
      <defs>
       <path id="m845688f3aa" d="M 0 0 
L 0 -6 
" style="stroke: #000000"/>
      </defs>
      <g>
       <use xlink:href="#m845688f3aa" x="110.374573" y="280.8" style="stroke: #000000"/>
      </g>
     </g>
     <g id="line2d_2">
      <defs>
       <path id="m56b4a0b580" d="M 0 0 
L 0 6 
" style="stroke: #000000"/>
      </defs>
      <g>
       <use xlink:href="#m56b4a0b580" x="110.374573" y="3.6" style="stroke: #000000"/>
      </g>
     </g>
     <g id="text_1">
      <text style="font: 12px 'DejaVu Sans', 'Arial', 'Helvetica', 'Lucida Grande', 'Verdana', 'Geneva', 'Lucid', 'Avant Garde', sans-serif; text-anchor: middle" x="110.374573" y="293.418125" transform="rotate(-0 110.374573 293.418125)">27.0</text>
     </g>
    </g>
    <g id="xtick_2">
     <g id="line2d_3">
      <g>
       <use xlink:href="#m845688f3aa" x="221.767151" y="280.8" style="stroke: #000000"/>
      </g>
     </g>
     <g id="line2d_4">
      <g>
       <use xlink:href="#m56b4a0b580" x="221.767151" y="3.6" style="stroke: #000000"/>
      </g>
     </g>
     <g id="text_2">
      <text style="font: 12px 'DejaVu Sans', 'Arial', 'Helvetica', 'Lucida Grande', 'Verdana', 'Geneva', 'Lucid', 'Avant Garde', sans-serif; text-anchor: middle" x="221.767151" y="293.418125" transform="rotate(-0 221.767151 293.418125)">27.5</text>
     </g>
    </g>
    <g id="xtick_3">
     <g id="line2d_5">
      <g>
       <use xlink:href="#m845688f3aa" x="333.15979" y="280.8" style="stroke: #000000"/>
      </g>
     </g>
     <g id="line2d_6">
      <g>
       <use xlink:href="#m56b4a0b580" x="333.15979" y="3.6" style="stroke: #000000"/>
      </g>
     </g>
     <g id="text_3">
      <text style="font: 12px 'DejaVu Sans', 'Arial', 'Helvetica', 'Lucida Grande', 'Verdana', 'Geneva', 'Lucid', 'Avant Garde', sans-serif; text-anchor: middle" x="333.15979" y="293.418125" transform="rotate(-0 333.15979 293.418125)">28.0</text>
     </g>
    </g>
    <g id="xtick_4">
     <g id="line2d_7">
      <g>
       <use xlink:href="#m845688f3aa" x="444.55249" y="280.8" style="stroke: #000000"/>
      </g>
     </g>
     <g id="line2d_8">
      <g>
       <use xlink:href="#m56b4a0b580" x="444.55249" y="3.6" style="stroke: #000000"/>
      </g>
     </g>
     <g id="text_4">
      <text style="font: 12px 'DejaVu Sans', 'Arial', 'Helvetica', 'Lucida Grande', 'Verdana', 'Geneva', 'Lucid', 'Avant Garde', sans-serif; text-anchor: middle" x="444.55249" y="293.418125" transform="rotate(-0 444.55249 293.418125)">28.5</text>
     </g>
    </g>
    <g id="xtick_5">
     <g id="line2d_9">
      <g>
       <use xlink:href="#m845688f3aa" x="555.945068" y="280.8" style="stroke: #000000"/>
      </g>
     </g>
     <g id="line2d_10">
      <g>
       <use xlink:href="#m56b4a0b580" x="555.945068" y="3.6" style="stroke: #000000"/>
      </g>
     </g>
     <g id="text_5">
      <text style="font: 12px 'DejaVu Sans', 'Arial', 'Helvetica', 'Lucida Grande', 'Verdana', 'Geneva', 'Lucid', 'Avant Garde', sans-serif; text-anchor: middle" x="555.945068" y="293.418125" transform="rotate(-0 555.945068 293.418125)">29.0</text>
     </g>
    </g>
    <g id="xtick_6">
     <g id="line2d_11">
      <g>
       <use xlink:href="#m845688f3aa" x="667.337708" y="280.8" style="stroke: #000000"/>
      </g>
     </g>
     <g id="line2d_12">
      <g>
       <use xlink:href="#m56b4a0b580" x="667.337708" y="3.6" style="stroke: #000000"/>
      </g>
     </g>
     <g id="text_6">
      <text style="font: 12px 'DejaVu Sans', 'Arial', 'Helvetica', 'Lucida Grande', 'Verdana', 'Geneva', 'Lucid', 'Avant Garde', sans-serif; text-anchor: middle" x="667.337708" y="293.418125" transform="rotate(-0 667.337708 293.418125)">29.5</text>
     </g>
    </g>
    <g id="xtick_7">
     <g id="line2d_13">
      <g>
       <use xlink:href="#m845688f3aa" x="778.730347" y="280.8" style="stroke: #000000"/>
      </g>
     </g>
     <g id="line2d_14">
      <g>
       <use xlink:href="#m56b4a0b580" x="778.730347" y="3.6" style="stroke: #000000"/>
      </g>
     </g>
     <g id="text_7">
      <text style="font: 12px 'DejaVu Sans', 'Arial', 'Helvetica', 'Lucida Grande', 'Verdana', 'Geneva', 'Lucid', 'Avant Garde', sans-serif; text-anchor: middle" x="778.730347" y="293.418125" transform="rotate(-0 778.730347 293.418125)">30.0</text>
     </g>
    </g>
    <g id="xtick_8">
     <g id="line2d_15">
      <defs>
       <path id="m15333bf752" d="M 0 0 
L 0 -3 
" style="stroke: #000000"/>
      </defs>
      <g>
       <use xlink:href="#m15333bf752" x="82.526428" y="280.8" style="stroke: #000000"/>
      </g>
     </g>
     <g id="line2d_16">
      <defs>
       <path id="m329f7ed7b4" d="M 0 0 
L 0 3 
" style="stroke: #000000"/>
      </defs>
      <g>
       <use xlink:href="#m329f7ed7b4" x="82.526428" y="3.6" style="stroke: #000000"/>
      </g>
     </g>
    </g>
    <g id="xtick_9">
     <g id="line2d_17">
      <g>
       <use xlink:href="#m15333bf752" x="138.222717" y="280.8" style="stroke: #000000"/>
      </g>
     </g>
     <g id="line2d_18">
      <g>
       <use xlink:href="#m329f7ed7b4" x="138.222717" y="3.6" style="stroke: #000000"/>
      </g>
     </g>
    </g>
    <g id="xtick_10">
     <g id="line2d_19">
      <g>
       <use xlink:href="#m15333bf752" x="166.070984" y="280.8" style="stroke: #000000"/>
      </g>
     </g>
     <g id="line2d_20">
      <g>
       <use xlink:href="#m329f7ed7b4" x="166.070984" y="3.6" style="stroke: #000000"/>
      </g>
     </g>
    </g>
    <g id="xtick_11">
     <g id="line2d_21">
      <g>
       <use xlink:href="#m15333bf752" x="193.919128" y="280.8" style="stroke: #000000"/>
      </g>
     </g>
     <g id="line2d_22">
      <g>
       <use xlink:href="#m329f7ed7b4" x="193.919128" y="3.6" style="stroke: #000000"/>
      </g>
     </g>
    </g>
    <g id="xtick_12">
     <g id="line2d_23">
      <g>
       <use xlink:href="#m15333bf752" x="249.615356" y="280.8" style="stroke: #000000"/>
      </g>
     </g>
     <g id="line2d_24">
      <g>
       <use xlink:href="#m329f7ed7b4" x="249.615356" y="3.6" style="stroke: #000000"/>
      </g>
     </g>
    </g>
    <g id="xtick_13">
     <g id="line2d_25">
      <g>
       <use xlink:href="#m15333bf752" x="277.463501" y="280.8" style="stroke: #000000"/>
      </g>
     </g>
     <g id="line2d_26">
      <g>
       <use xlink:href="#m329f7ed7b4" x="277.463501" y="3.6" style="stroke: #000000"/>
      </g>
     </g>
    </g>
    <g id="xtick_14">
     <g id="line2d_27">
      <g>
       <use xlink:href="#m15333bf752" x="305.311768" y="280.8" style="stroke: #000000"/>
      </g>
     </g>
     <g id="line2d_28">
      <g>
       <use xlink:href="#m329f7ed7b4" x="305.311768" y="3.6" style="stroke: #000000"/>
      </g>
     </g>
    </g>
    <g id="xtick_15">
     <g id="line2d_29">
      <g>
       <use xlink:href="#m15333bf752" x="361.008057" y="280.8" style="stroke: #000000"/>
      </g>
     </g>
     <g id="line2d_30">
      <g>
       <use xlink:href="#m329f7ed7b4" x="361.008057" y="3.6" style="stroke: #000000"/>
      </g>
     </g>
    </g>
    <g id="xtick_16">
     <g id="line2d_31">
      <g>
       <use xlink:href="#m15333bf752" x="388.856262" y="280.8" style="stroke: #000000"/>
      </g>
     </g>
     <g id="line2d_32">
      <g>
       <use xlink:href="#m329f7ed7b4" x="388.856262" y="3.6" style="stroke: #000000"/>
      </g>
     </g>
    </g>
    <g id="xtick_17">
     <g id="line2d_33">
      <g>
       <use xlink:href="#m15333bf752" x="416.704407" y="280.8" style="stroke: #000000"/>
      </g>
     </g>
     <g id="line2d_34">
      <g>
       <use xlink:href="#m329f7ed7b4" x="416.704407" y="3.6" style="stroke: #000000"/>
      </g>
     </g>
    </g>
    <g id="xtick_18">
     <g id="line2d_35">
      <g>
       <use xlink:href="#m15333bf752" x="472.400696" y="280.8" style="stroke: #000000"/>
      </g>
     </g>
     <g id="line2d_36">
      <g>
       <use xlink:href="#m329f7ed7b4" x="472.400696" y="3.6" style="stroke: #000000"/>
      </g>
     </g>
    </g>
    <g id="xtick_19">
     <g id="line2d_37">
      <g>
       <use xlink:href="#m15333bf752" x="500.24884" y="280.8" style="stroke: #000000"/>
      </g>
     </g>
     <g id="line2d_38">
      <g>
       <use xlink:href="#m329f7ed7b4" x="500.24884" y="3.6" style="stroke: #000000"/>
      </g>
     </g>
    </g>
    <g id="xtick_20">
     <g id="line2d_39">
      <g>
       <use xlink:href="#m15333bf752" x="528.097046" y="280.8" style="stroke: #000000"/>
      </g>
     </g>
     <g id="line2d_40">
      <g>
       <use xlink:href="#m329f7ed7b4" x="528.097046" y="3.6" style="stroke: #000000"/>
      </g>
     </g>
    </g>
    <g id="xtick_21">
     <g id="line2d_41">
      <g>
       <use xlink:href="#m15333bf752" x="583.793335" y="280.8" style="stroke: #000000"/>
      </g>
     </g>
     <g id="line2d_42">
      <g>
       <use xlink:href="#m329f7ed7b4" x="583.793335" y="3.6" style="stroke: #000000"/>
      </g>
     </g>
    </g>
    <g id="xtick_22">
     <g id="line2d_43">
      <g>
       <use xlink:href="#m15333bf752" x="611.641541" y="280.8" style="stroke: #000000"/>
      </g>
     </g>
     <g id="line2d_44">
      <g>
       <use xlink:href="#m329f7ed7b4" x="611.641541" y="3.6" style="stroke: #000000"/>
      </g>
     </g>
    </g>
    <g id="xtick_23">
     <g id="line2d_45">
      <g>
       <use xlink:href="#m15333bf752" x="639.489685" y="280.8" style="stroke: #000000"/>
      </g>
     </g>
     <g id="line2d_46">
      <g>
       <use xlink:href="#m329f7ed7b4" x="639.489685" y="3.6" style="stroke: #000000"/>
      </g>
     </g>
    </g>
    <g id="xtick_24">
     <g id="line2d_47">
      <g>
       <use xlink:href="#m15333bf752" x="695.185974" y="280.8" style="stroke: #000000"/>
      </g>
     </g>
     <g id="line2d_48">
      <g>
       <use xlink:href="#m329f7ed7b4" x="695.185974" y="3.6" style="stroke: #000000"/>
      </g>
     </g>
    </g>
    <g id="xtick_25">
     <g id="line2d_49">
      <g>
       <use xlink:href="#m15333bf752" x="723.034119" y="280.8" style="stroke: #000000"/>
      </g>
     </g>
     <g id="line2d_50">
      <g>
       <use xlink:href="#m329f7ed7b4" x="723.034119" y="3.6" style="stroke: #000000"/>
      </g>
     </g>
    </g>
    <g id="xtick_26">
     <g id="line2d_51">
      <g>
       <use xlink:href="#m15333bf752" x="750.882324" y="280.8" style="stroke: #000000"/>
      </g>
     </g>
     <g id="line2d_52">
      <g>
       <use xlink:href="#m329f7ed7b4" x="750.882324" y="3.6" style="stroke: #000000"/>
      </g>
     </g>
    </g>
    <g id="xtick_27">
     <g id="line2d_53">
      <g>
       <use xlink:href="#m15333bf752" x="806.578613" y="280.8" style="stroke: #000000"/>
      </g>
     </g>
     <g id="line2d_54">
      <g>
       <use xlink:href="#m329f7ed7b4" x="806.578613" y="3.6" style="stroke: #000000"/>
      </g>
     </g>
    </g>
    <g id="text_8">
     <text style="font: 16px 'DejaVu Sans', 'Arial', 'Helvetica', 'Lucida Grande', 'Verdana', 'Geneva', 'Lucid', 'Avant Garde', sans-serif; text-anchor: end" x="811.9015" y="311.07125" transform="rotate(-0 811.9015 311.07125)">2020-Jan-28 16:35</text>
    </g>
   </g>
   <g id="matplotlib.axis_2">
    <g id="ytick_1">
     <g id="line2d_55">
      <defs>
       <path id="m802b5b3e08" d="M 0 0 
L 6 0 
" style="stroke: #000000"/>
      </defs>
      <g>
       <use xlink:href="#m802b5b3e08" x="77.5015" y="263.169779" style="stroke: #000000"/>
      </g>
     </g>
     <g id="line2d_56">
      <defs>
       <path id="m7a6b82b493" d="M 0 0 
L -6 0 
" style="stroke: #000000"/>
      </defs>
      <g>
       <use xlink:href="#m7a6b82b493" x="811.9015" y="263.169779" style="stroke: #000000"/>
      </g>
     </g>
     <g id="text_9">
      <!-- $\mathdefault{−100}$ -->
      <g transform="translate(41.0015 267.728841)">
       <text>
        <tspan style="font: 12px 'DejaVu Sans'" x="0 10.054688 17.689453 25.324219" y="-0.09375">−100</tspan>
       </text>
      </g>
     </g>
    </g>
    <g id="ytick_2">
     <g id="line2d_57">
      <g>
       <use xlink:href="#m802b5b3e08" x="77.5015" y="208.966901" style="stroke: #000000"/>
      </g>
     </g>
     <g id="line2d_58">
      <g>
       <use xlink:href="#m7a6b82b493" x="811.9015" y="208.966901" style="stroke: #000000"/>
      </g>
     </g>
     <g id="text_10">
      <!-- $\mathdefault{−50}$ -->
      <g transform="translate(48.5615 213.525963)">
       <text>
        <tspan style="font: 12px 'DejaVu Sans'" x="0 10.054688 17.689453" y="-0.09375">−50</tspan>
       </text>
      </g>
     </g>
    </g>
    <g id="ytick_3">
     <g id="line2d_59">
      <g>
       <use xlink:href="#m802b5b3e08" x="77.5015" y="154.764023" style="stroke: #000000"/>
      </g>
     </g>
     <g id="line2d_60">
      <g>
       <use xlink:href="#m7a6b82b493" x="811.9015" y="154.764023" style="stroke: #000000"/>
      </g>
     </g>
     <g id="text_11">
      <!-- $\mathdefault{0}$ -->
      <g transform="translate(66.3215 159.323085)">
       <text>
        <tspan style="font: 12px 'DejaVu Sans'" x="0" y="-0.09375">0</tspan>
       </text>
      </g>
     </g>
    </g>
    <g id="ytick_4">
     <g id="line2d_61">
      <g>
       <use xlink:href="#m802b5b3e08" x="77.5015" y="100.561145" style="stroke: #000000"/>
      </g>
     </g>
     <g id="line2d_62">
      <g>
       <use xlink:href="#m7a6b82b493" x="811.9015" y="100.561145" style="stroke: #000000"/>
      </g>
     </g>
     <g id="text_12">
      <!-- $\mathdefault{50}$ -->
      <g transform="translate(58.6415 105.120207)">
       <text>
        <tspan style="font: 12px 'DejaVu Sans'" x="0 7.634766" y="-0.09375">50</tspan>
       </text>
      </g>
     </g>
    </g>
    <g id="ytick_5">
     <g id="line2d_63">
      <g>
       <use xlink:href="#m802b5b3e08" x="77.5015" y="46.358267" style="stroke: #000000"/>
      </g>
     </g>
     <g id="line2d_64">
      <g>
       <use xlink:href="#m7a6b82b493" x="811.9015" y="46.358267" style="stroke: #000000"/>
      </g>
     </g>
     <g id="text_13">
      <!-- $\mathdefault{100}$ -->
      <g transform="translate(51.0815 50.917329)">
       <text>
        <tspan style="font: 12px 'DejaVu Sans'" x="0 7.634766 15.269531" y="-0.09375">100</tspan>
       </text>
      </g>
     </g>
    </g>
    <g id="ytick_6">
     <g id="line2d_65">
      <defs>
       <path id="m2ef51cb456" d="M 0 0 
L 3 0 
" style="stroke: #000000"/>
      </defs>
      <g>
       <use xlink:href="#m2ef51cb456" x="77.5015" y="274.010354" style="stroke: #000000"/>
      </g>
     </g>
     <g id="line2d_66">
      <defs>
       <path id="m5186df1736" d="M 0 0 
L -3 0 
" style="stroke: #000000"/>
      </defs>
      <g>
       <use xlink:href="#m5186df1736" x="811.9015" y="274.010354" style="stroke: #000000"/>
      </g>
     </g>
    </g>
    <g id="ytick_7">
     <g id="line2d_67">
      <g>
       <use xlink:href="#m2ef51cb456" x="77.5015" y="252.329203" style="stroke: #000000"/>
      </g>
     </g>
     <g id="line2d_68">
      <g>
       <use xlink:href="#m5186df1736" x="811.9015" y="252.329203" style="stroke: #000000"/>
      </g>
     </g>
    </g>
    <g id="ytick_8">
     <g id="line2d_69">
      <g>
       <use xlink:href="#m2ef51cb456" x="77.5015" y="241.488627" style="stroke: #000000"/>
      </g>
     </g>
     <g id="line2d_70">
      <g>
       <use xlink:href="#m5186df1736" x="811.9015" y="241.488627" style="stroke: #000000"/>
      </g>
     </g>
    </g>
    <g id="ytick_9">
     <g id="line2d_71">
      <g>
       <use xlink:href="#m2ef51cb456" x="77.5015" y="230.648052" style="stroke: #000000"/>
      </g>
     </g>
     <g id="line2d_72">
      <g>
       <use xlink:href="#m5186df1736" x="811.9015" y="230.648052" style="stroke: #000000"/>
      </g>
     </g>
    </g>
    <g id="ytick_10">
     <g id="line2d_73">
      <g>
       <use xlink:href="#m2ef51cb456" x="77.5015" y="219.807476" style="stroke: #000000"/>
      </g>
     </g>
     <g id="line2d_74">
      <g>
       <use xlink:href="#m5186df1736" x="811.9015" y="219.807476" style="stroke: #000000"/>
      </g>
     </g>
    </g>
    <g id="ytick_11">
     <g id="line2d_75">
      <g>
       <use xlink:href="#m2ef51cb456" x="77.5015" y="198.126325" style="stroke: #000000"/>
      </g>
     </g>
     <g id="line2d_76">
      <g>
       <use xlink:href="#m5186df1736" x="811.9015" y="198.126325" style="stroke: #000000"/>
      </g>
     </g>
    </g>
    <g id="ytick_12">
     <g id="line2d_77">
      <g>
       <use xlink:href="#m2ef51cb456" x="77.5015" y="187.285749" style="stroke: #000000"/>
      </g>
     </g>
     <g id="line2d_78">
      <g>
       <use xlink:href="#m5186df1736" x="811.9015" y="187.285749" style="stroke: #000000"/>
      </g>
     </g>
    </g>
    <g id="ytick_13">
     <g id="line2d_79">
      <g>
       <use xlink:href="#m2ef51cb456" x="77.5015" y="176.445174" style="stroke: #000000"/>
      </g>
     </g>
     <g id="line2d_80">
      <g>
       <use xlink:href="#m5186df1736" x="811.9015" y="176.445174" style="stroke: #000000"/>
      </g>
     </g>
    </g>
    <g id="ytick_14">
     <g id="line2d_81">
      <g>
       <use xlink:href="#m2ef51cb456" x="77.5015" y="165.604598" style="stroke: #000000"/>
      </g>
     </g>
     <g id="line2d_82">
      <g>
       <use xlink:href="#m5186df1736" x="811.9015" y="165.604598" style="stroke: #000000"/>
      </g>
     </g>
    </g>
    <g id="ytick_15">
     <g id="line2d_83">
      <g>
       <use xlink:href="#m2ef51cb456" x="77.5015" y="143.923447" style="stroke: #000000"/>
      </g>
     </g>
     <g id="line2d_84">
      <g>
       <use xlink:href="#m5186df1736" x="811.9015" y="143.923447" style="stroke: #000000"/>
      </g>
     </g>
    </g>
    <g id="ytick_16">
     <g id="line2d_85">
      <g>
       <use xlink:href="#m2ef51cb456" x="77.5015" y="133.082872" style="stroke: #000000"/>
      </g>
     </g>
     <g id="line2d_86">
      <g>
       <use xlink:href="#m5186df1736" x="811.9015" y="133.082872" style="stroke: #000000"/>
      </g>
     </g>
    </g>
    <g id="ytick_17">
     <g id="line2d_87">
      <g>
       <use xlink:href="#m2ef51cb456" x="77.5015" y="122.242296" style="stroke: #000000"/>
      </g>
     </g>
     <g id="line2d_88">
      <g>
       <use xlink:href="#m5186df1736" x="811.9015" y="122.242296" style="stroke: #000000"/>
      </g>
     </g>
    </g>
    <g id="ytick_18">
     <g id="line2d_89">
      <g>
       <use xlink:href="#m2ef51cb456" x="77.5015" y="111.40172" style="stroke: #000000"/>
      </g>
     </g>
     <g id="line2d_90">
      <g>
       <use xlink:href="#m5186df1736" x="811.9015" y="111.40172" style="stroke: #000000"/>
      </g>
     </g>
    </g>
    <g id="ytick_19">
     <g id="line2d_91">
      <g>
       <use xlink:href="#m2ef51cb456" x="77.5015" y="89.720569" style="stroke: #000000"/>
      </g>
     </g>
     <g id="line2d_92">
      <g>
       <use xlink:href="#m5186df1736" x="811.9015" y="89.720569" style="stroke: #000000"/>
      </g>
     </g>
    </g>
    <g id="ytick_20">
     <g id="line2d_93">
      <g>
       <use xlink:href="#m2ef51cb456" x="77.5015" y="78.879994" style="stroke: #000000"/>
      </g>
     </g>
     <g id="line2d_94">
      <g>
       <use xlink:href="#m5186df1736" x="811.9015" y="78.879994" style="stroke: #000000"/>
      </g>
     </g>
    </g>
    <g id="ytick_21">
     <g id="line2d_95">
      <g>
       <use xlink:href="#m2ef51cb456" x="77.5015" y="68.039418" style="stroke: #000000"/>
      </g>
     </g>
     <g id="line2d_96">
      <g>
       <use xlink:href="#m5186df1736" x="811.9015" y="68.039418" style="stroke: #000000"/>
      </g>
     </g>
    </g>
    <g id="ytick_22">
     <g id="line2d_97">
      <g>
       <use xlink:href="#m2ef51cb456" x="77.5015" y="57.198842" style="stroke: #000000"/>
      </g>
     </g>
     <g id="line2d_98">
      <g>
       <use xlink:href="#m5186df1736" x="811.9015" y="57.198842" style="stroke: #000000"/>
      </g>
     </g>
    </g>
    <g id="ytick_23">
     <g id="line2d_99">
      <g>
       <use xlink:href="#m2ef51cb456" x="77.5015" y="35.517691" style="stroke: #000000"/>
      </g>
     </g>
     <g id="line2d_100">
      <g>
       <use xlink:href="#m5186df1736" x="811.9015" y="35.517691" style="stroke: #000000"/>
      </g>
     </g>
    </g>
    <g id="ytick_24">
     <g id="line2d_101">
      <g>
       <use xlink:href="#m2ef51cb456" x="77.5015" y="24.677116" style="stroke: #000000"/>
      </g>
     </g>
     <g id="line2d_102">
      <g>
       <use xlink:href="#m5186df1736" x="811.9015" y="24.677116" style="stroke: #000000"/>
      </g>
     </g>
    </g>
    <g id="ytick_25">
     <g id="line2d_103">
      <g>
       <use xlink:href="#m2ef51cb456" x="77.5015" y="13.83654" style="stroke: #000000"/>
      </g>
     </g>
     <g id="line2d_104">
      <g>
       <use xlink:href="#m5186df1736" x="811.9015" y="13.83654" style="stroke: #000000"/>
      </g>
     </g>
    </g>
    <g id="text_14">
     <!-- $B$ -->
     <g transform="translate(15.7575 147.72) rotate(-90)">
      <text>
       <tspan style="font: oblique 16px 'DejaVu Sans'" x="0" y="-0.328125">B</tspan>
      </text>
     </g>
     <text style="font: 16px 'DejaVu Sans', 'Arial', 'Helvetica', 'Lucida Grande', 'Verdana', 'Geneva', 'Lucid', 'Avant Garde', sans-serif" transform="translate(33.674 178.28625) rotate(-90)">[nT LMN]</text>
    </g>
   </g>
   <g id="line2d_105">
    <path d="M 110.883423 206.042573 
L 115.446045 207.941347 
L 116.967041 208.887612 
L 121.529724 212.68269 
L 123.050659 213.741412 
L 126.092346 215.451015 
L 130.654968 214.562131 
L 132.175903 213.896672 
L 133.696655 213.813981 
L 135.21759 214.021526 
L 136.738525 213.525514 
L 138.259277 213.280307 
L 141.301147 213.381003 
L 147.384644 214.328183 
L 150.426453 215.92209 
L 151.947266 216.440959 
L 153.46814 217.175977 
L 156.509888 218.465939 
L 158.030823 219.331101 
L 161.07251 220.429908 
L 162.593445 220.515726 
L 164.114441 220.441137 
L 165.635132 220.998828 
L 167.156067 221.805299 
L 168.677063 222.10141 
L 170.197754 222.056895 
L 173.239685 222.320605 
L 174.760437 222.382632 
L 176.281311 222.890875 
L 179.323059 223.692216 
L 182.36499 224.070207 
L 183.885681 224.525655 
L 185.406677 224.750321 
L 186.927612 224.66599 
L 188.448364 224.971364 
L 189.969299 225.057426 
L 193.010986 225.466105 
L 194.531982 225.866163 
L 196.052856 225.93144 
L 197.573608 226.39965 
L 199.094604 226.449137 
L 206.698853 227.151965 
L 208.21991 227.01844 
L 209.740784 227.05574 
L 215.824219 226.715284 
L 217.345093 226.919347 
L 218.86615 226.932323 
L 220.386841 227.083755 
L 224.949463 226.509218 
L 226.470398 226.624904 
L 232.554016 225.926551 
L 234.074768 225.673054 
L 235.595703 225.767351 
L 238.63739 225.448927 
L 241.679321 224.657149 
L 243.200012 224.681052 
L 246.241943 224.314219 
L 250.804565 223.360805 
L 252.325317 222.996255 
L 255.367249 223.366198 
L 256.887939 223.326631 
L 259.929871 223.774587 
L 262.971558 224.435416 
L 266.013245 225.417834 
L 267.53418 226.871043 
L 269.055237 228.04707 
L 270.575867 228.834659 
L 273.617737 229.801554 
L 275.13855 230.322992 
L 276.659485 230.550911 
L 278.180359 231.045096 
L 281.222107 231.519874 
L 282.743103 231.578801 
L 284.263855 231.842189 
L 285.784729 232.257649 
L 288.826477 232.610391 
L 290.347412 232.568373 
L 291.868347 232.252502 
L 293.389099 232.368582 
L 294.910034 231.982608 
L 296.43103 231.722509 
L 299.472656 230.708344 
L 300.993652 229.788773 
L 304.035278 228.882393 
L 307.077026 228.03064 
L 308.597961 227.433592 
L 310.118958 227.147391 
L 311.639648 226.396261 
L 313.160645 225.384253 
L 314.68158 224.657394 
L 316.202271 223.690041 
L 317.723267 222.571392 
L 319.244202 221.30099 
L 320.764954 220.19495 
L 323.806824 218.951625 
L 326.848572 217.511477 
L 328.369446 217.406561 
L 329.890198 218.214239 
L 331.411194 218.875307 
L 332.932068 219.919107 
L 334.452881 220.623156 
L 335.973816 221.704843 
L 337.494812 221.937895 
L 339.015503 221.761134 
L 340.536499 221.924954 
L 343.578125 221.61647 
L 345.099121 221.620345 
L 346.620056 221.350027 
L 348.140991 220.560269 
L 349.661743 220.263762 
L 351.182739 219.779494 
L 352.70343 218.746878 
L 354.224365 217.94499 
L 355.745361 216.768906 
L 358.786987 213.746224 
L 360.307983 212.131786 
L 361.828979 210.779269 
L 363.349609 209.752229 
L 364.870605 208.519699 
L 366.391357 206.694426 
L 367.912354 204.495603 
L 369.433228 203.100484 
L 370.954041 201.872642 
L 372.474976 200.348014 
L 373.995911 199.018339 
L 375.516907 197.837705 
L 378.558533 194.433361 
L 380.079285 192.500773 
L 381.600281 191.051841 
L 383.121155 190.171984 
L 384.641907 189.496874 
L 386.162903 189.378316 
L 387.683838 188.638972 
L 389.204773 188.875897 
L 392.246521 190.482165 
L 395.288147 190.482164 
L 396.809143 190.490736 
L 398.329895 190.310668 
L 399.850769 190.396842 
L 405.934448 194.166661 
L 407.455139 195.34505 
L 408.976074 196.292509 
L 410.49707 197.389003 
L 413.538696 199.354775 
L 415.059692 200.420447 
L 416.580627 201.162535 
L 419.622314 202.208715 
L 422.664062 203.642549 
L 424.184937 204.169988 
L 428.74762 206.272431 
L 431.789368 208.503305 
L 433.310242 209.658545 
L 436.35199 211.52834 
L 437.872864 212.55786 
L 439.393616 213.813029 
L 440.914612 215.653004 
L 448.51886 223.590399 
L 451.560852 226.252557 
L 453.081604 227.905812 
L 457.644409 231.770825 
L 459.165161 233.082211 
L 460.686096 233.785477 
L 465.248718 235.458226 
L 466.769714 235.738837 
L 469.811401 237.338061 
L 474.374023 237.952582 
L 477.415771 238.14433 
L 478.936646 238.091709 
L 480.457581 238.250737 
L 481.978394 237.738065 
L 486.510681 234.819935 
L 488.031616 233.176538 
L 489.552368 231.224975 
L 492.594055 226.634996 
L 494.115051 223.90871 
L 497.15686 216.75944 
L 498.677734 212.935658 
L 503.240356 199.047007 
L 510.844849 173.106854 
L 512.365601 167.885795 
L 516.928223 153.970345 
L 519.970154 144.893388 
L 523.01178 136.188447 
L 527.574402 124.096349 
L 530.61615 116.871729 
L 532.137146 113.513543 
L 535.178833 107.420866 
L 538.220703 102.675456 
L 541.26239 98.6658 
L 544.304077 95.950443 
L 545.825073 95.018657 
L 547.345947 94.285773 
L 550.387695 93.309506 
L 551.908691 92.918924 
L 557.992004 92.580237 
L 561.033936 91.615751 
L 562.554688 91.870835 
L 565.596619 91.365983 
L 567.11731 91.347899 
L 568.638184 91.858686 
L 570.159241 92.129067 
L 573.200867 93.490899 
L 576.242615 93.624683 
L 577.763489 93.473159 
L 579.284485 93.446333 
L 580.805237 93.006191 
L 583.847107 92.965737 
L 585.367859 93.148574 
L 586.888855 93.055338 
L 588.409729 92.605216 
L 591.451477 91.086771 
L 592.972412 90.779813 
L 596.01416 91.338735 
L 597.535034 91.93371 
L 599.055725 92.223621 
L 600.576782 92.707784 
L 603.618408 94.029973 
L 605.139404 94.538091 
L 608.18103 95.124582 
L 611.223022 96.568183 
L 612.743652 96.952985 
L 614.264648 97.639354 
L 615.785645 97.865239 
L 617.306396 97.819522 
L 618.827271 97.490282 
L 620.348328 96.990467 
L 623.389954 96.485369 
L 624.910889 95.873977 
L 626.431641 95.739445 
L 627.952576 95.328061 
L 629.473511 94.785621 
L 630.994324 94.545036 
L 632.515198 93.974806 
L 634.036194 93.738192 
L 635.556946 93.042357 
L 637.077881 92.765929 
L 638.598816 92.308243 
L 640.119568 91.228766 
L 641.640564 90.893818 
L 643.161499 90.019154 
L 644.68219 89.59334 
L 646.203186 88.60897 
L 647.724121 87.821634 
L 649.244812 87.262967 
L 650.765808 87.318232 
L 652.286743 87.177219 
L 653.807495 86.787344 
L 655.32843 86.603652 
L 656.849426 87.275167 
L 658.370117 88.133635 
L 659.891052 87.784125 
L 661.412048 87.693345 
L 665.97467 88.18318 
L 667.495483 89.039852 
L 669.016357 89.548323 
L 670.537292 90.832536 
L 672.058105 91.251082 
L 673.578979 92.209635 
L 675.099976 93.844706 
L 679.662598 95.896192 
L 681.18335 96.960395 
L 682.704285 97.476182 
L 684.225281 98.408748 
L 687.266907 99.79911 
L 688.787903 100.077406 
L 691.82959 101.344504 
L 694.871277 101.318241 
L 697.913208 100.747378 
L 699.433899 100.80923 
L 700.954895 101.021351 
L 702.47583 101.390575 
L 703.996521 102.080959 
L 705.517517 101.952932 
L 707.038452 101.692448 
L 708.559204 101.568793 
L 710.080139 101.054554 
L 711.601074 100.761096 
L 714.642822 99.440025 
L 719.205444 96.696818 
L 720.726318 95.431508 
L 722.247131 94.616206 
L 723.768066 93.546873 
L 725.289001 92.214354 
L 726.809814 91.167941 
L 728.33075 90.513575 
L 729.851624 90.053855 
L 731.372437 89.801387 
L 732.893372 89.066383 
L 734.414246 88.704812 
L 735.935059 88.619708 
L 737.455994 88.108514 
L 738.97699 87.41401 
L 740.497681 86.530409 
L 742.018616 86.138755 
L 743.539612 85.989618 
L 745.060303 86.419923 
L 746.581238 86.566116 
L 748.102234 86.533718 
L 749.622986 86.621917 
L 752.664917 87.661162 
L 754.185608 87.980666 
L 755.706543 87.933261 
L 758.74823 88.281428 
L 763.310913 89.052868 
L 766.352783 90.056772 
L 772.436157 91.620536 
L 773.957153 92.231151 
L 775.478088 92.535708 
L 778.519775 93.66863 
L 778.519775 93.66863 
" clip-path="url(#pe3f827e3ee)" style="fill: none; stroke: #0000ff; stroke-width: 2; stroke-linecap: square"/>
   </g>
   <g id="line2d_106">
    <path d="M 110.883423 218.497183 
L 115.446045 218.292192 
L 116.967041 218.343371 
L 118.487976 217.981677 
L 120.008667 217.799534 
L 121.529724 217.434973 
L 123.050659 216.940022 
L 124.57135 216.751764 
L 126.092346 216.228345 
L 127.613281 215.824794 
L 129.133972 215.869087 
L 130.654968 216.182648 
L 132.175903 216.832112 
L 135.21759 217.554045 
L 138.259277 218.077414 
L 144.342896 217.892314 
L 147.384644 217.316082 
L 153.46814 215.484492 
L 154.989075 214.805725 
L 156.509888 214.403123 
L 158.030823 213.620615 
L 159.551758 213.360642 
L 161.07251 212.551652 
L 164.114441 212.053563 
L 165.635132 211.356522 
L 167.156067 210.916212 
L 168.677063 210.357261 
L 170.197754 210.31526 
L 171.718689 209.94508 
L 173.239685 210.14178 
L 174.760437 209.729496 
L 176.281311 209.699741 
L 177.802368 209.509361 
L 182.36499 209.598191 
L 183.885681 209.321222 
L 185.406677 209.528025 
L 186.927612 209.323475 
L 188.448364 209.698361 
L 189.969299 209.594519 
L 191.490234 209.92925 
L 193.010986 209.969934 
L 194.531982 209.805899 
L 196.052856 209.835611 
L 197.573608 209.550914 
L 199.094604 209.712469 
L 205.178162 209.716269 
L 206.698853 209.677359 
L 208.21991 209.926225 
L 209.740784 209.958545 
L 211.261475 210.161511 
L 212.782532 210.092118 
L 214.303406 210.477762 
L 215.824219 210.576823 
L 217.345093 210.819799 
L 218.86615 211.307281 
L 220.386841 211.467737 
L 221.907776 212.011969 
L 224.949463 212.699607 
L 226.470398 212.913605 
L 227.991394 213.68509 
L 234.074768 215.479253 
L 235.595703 215.569227 
L 240.158325 216.40399 
L 241.679321 216.84128 
L 243.200012 217.116289 
L 244.721008 217.695175 
L 246.241943 217.836309 
L 247.762634 218.358833 
L 249.283691 219.044366 
L 252.325317 220.037457 
L 255.367249 220.686717 
L 256.887939 221.511229 
L 258.408936 221.957029 
L 259.929871 221.927322 
L 261.450562 222.642763 
L 264.492493 223.143951 
L 266.013245 223.45227 
L 269.055237 221.366545 
L 270.575867 220.758637 
L 276.659485 220.04487 
L 284.263855 218.451988 
L 285.784729 217.705326 
L 287.305725 217.369272 
L 288.826477 216.48264 
L 290.347412 216.335165 
L 293.389099 215.185957 
L 294.910034 214.960634 
L 296.43103 214.234879 
L 297.951721 214.18824 
L 299.472656 213.670234 
L 302.514343 213.50297 
L 307.077026 212.519253 
L 308.597961 212.280893 
L 310.118958 211.825795 
L 313.160645 211.332913 
L 314.68158 211.464656 
L 317.723267 211.275048 
L 319.244202 211.631036 
L 320.764954 211.543866 
L 322.285889 212.079793 
L 325.327576 212.409245 
L 326.848572 212.678014 
L 328.369446 212.423054 
L 329.890198 211.856841 
L 331.411194 210.788067 
L 332.932068 209.957397 
L 334.452881 209.372432 
L 335.973816 208.314177 
L 337.494812 207.562064 
L 339.015503 207.041023 
L 340.536499 206.641953 
L 342.057434 206.456297 
L 343.578125 206.015053 
L 345.099121 205.432391 
L 346.620056 205.103234 
L 348.140991 205.16463 
L 349.661743 205.954393 
L 351.182739 205.890562 
L 352.70343 206.199353 
L 354.224365 207.852187 
L 355.745361 209.80088 
L 360.307983 216.07348 
L 361.828979 217.502518 
L 363.349609 218.238757 
L 364.870605 218.730722 
L 366.391357 219.704669 
L 367.912354 221.468564 
L 370.954041 224.27389 
L 373.995911 226.624029 
L 375.516907 227.093907 
L 377.037598 227.998464 
L 378.558533 229.160564 
L 383.121155 233.332219 
L 384.641907 234.631809 
L 386.162903 235.083647 
L 387.683838 235.761792 
L 389.204773 236.0979 
L 390.725525 236.081495 
L 392.246521 235.518905 
L 396.809143 235.190142 
L 398.329895 234.811388 
L 399.850769 234.578094 
L 401.371826 233.809707 
L 402.8927 233.745495 
L 404.413391 233.246814 
L 405.934448 232.273117 
L 407.455139 231.539971 
L 408.976074 231.012293 
L 410.49707 229.897249 
L 412.017822 229.031396 
L 415.059692 226.632448 
L 418.101318 224.624259 
L 419.622314 223.519692 
L 421.143066 222.093315 
L 422.664062 220.459465 
L 425.705688 218.341095 
L 428.74762 215.452072 
L 430.268555 213.544642 
L 433.310242 210.892198 
L 434.830933 209.805343 
L 437.872864 207.019873 
L 439.393616 205.46824 
L 440.914612 203.0236 
L 445.477234 197.571131 
L 446.998169 196.378029 
L 448.51886 195.412775 
L 451.560852 194.267029 
L 453.081604 193.395762 
L 454.602478 193.536402 
L 457.644409 193.994672 
L 462.206848 196.079343 
L 463.727783 196.256761 
L 465.248718 197.062372 
L 466.769714 197.676966 
L 468.290405 198.127326 
L 469.811401 198.227376 
L 472.853088 199.412036 
L 475.894714 200.215246 
L 481.978394 199.877318 
L 485.02002 200.270183 
L 486.510681 200.065316 
L 488.031616 199.981625 
L 491.073364 200.427375 
L 492.594055 201.433657 
L 494.115051 201.915024 
L 495.635986 202.662877 
L 497.15686 203.636264 
L 498.677734 204.248832 
L 500.198608 205.700708 
L 501.719604 206.959124 
L 503.240356 207.926643 
L 506.281982 210.500947 
L 507.802979 211.961273 
L 510.844849 214.093476 
L 512.365601 215.494046 
L 516.928223 218.867897 
L 518.449158 219.675651 
L 519.970154 219.968323 
L 521.490845 220.440292 
L 523.01178 220.697414 
L 524.532837 220.591127 
L 526.053528 220.212869 
L 529.095459 219.234241 
L 530.61615 218.345469 
L 532.137146 217.812936 
L 533.658081 217.021394 
L 535.178833 216.405693 
L 538.220703 214.659893 
L 544.304077 211.793845 
L 545.825073 211.401214 
L 547.345947 211.274539 
L 548.866699 210.604194 
L 550.387695 210.083601 
L 551.908691 210.052805 
L 553.429321 209.819993 
L 556.471313 209.900082 
L 557.992004 209.83756 
L 559.513 209.644087 
L 561.033936 210.186941 
L 562.554688 210.170229 
L 565.596619 210.553835 
L 567.11731 210.4628 
L 568.638184 210.805809 
L 570.159241 210.835581 
L 571.679932 211.318043 
L 573.200867 211.241413 
L 574.721863 211.305034 
L 577.763489 210.79448 
L 579.284485 210.598205 
L 580.805237 210.65753 
L 585.367859 211.784767 
L 586.888855 211.906999 
L 588.409729 211.78882 
L 589.930542 211.822867 
L 591.451477 212.153215 
L 592.972412 212.363697 
L 594.493103 212.96775 
L 597.535034 213.990854 
L 599.055725 214.180477 
L 600.576782 214.044116 
L 602.097656 214.162275 
L 603.618408 213.961614 
L 606.660339 214.104792 
L 608.18103 214.299751 
L 609.702026 214.043876 
L 611.223022 214.385285 
L 612.743652 214.240168 
L 617.306396 213.014643 
L 618.827271 212.202168 
L 621.869019 211.202116 
L 623.389954 210.931665 
L 624.910889 210.251489 
L 626.431641 210.127453 
L 629.473511 208.832709 
L 632.515198 208.073538 
L 634.036194 207.988574 
L 637.077881 207.247375 
L 640.119568 206.222954 
L 644.68219 204.951234 
L 646.203186 204.921044 
L 647.724121 204.524679 
L 649.244812 204.253267 
L 650.765808 204.326526 
L 652.286743 204.518996 
L 653.807495 204.420383 
L 655.32843 205.061283 
L 659.891052 206.604152 
L 664.453735 206.813571 
L 665.97467 207.224806 
L 669.016357 208.364655 
L 670.537292 209.34694 
L 672.058105 210.10906 
L 673.578979 210.608508 
L 675.099976 211.364942 
L 676.620728 211.726637 
L 679.662598 213.769379 
L 682.704285 214.722496 
L 684.225281 215.528282 
L 685.745972 216.571102 
L 690.308594 218.47011 
L 691.82959 218.672773 
L 693.350525 219.238638 
L 696.392212 220.069802 
L 699.433899 221.418966 
L 700.954895 221.86129 
L 702.47583 222.510787 
L 703.996521 222.96364 
L 705.517517 223.201031 
L 707.038452 223.284599 
L 708.559204 223.204238 
L 710.080139 222.460347 
L 711.601074 222.59754 
L 713.121826 221.91022 
L 717.684448 220.704536 
L 719.205444 220.0833 
L 720.726318 219.253174 
L 722.247131 218.679788 
L 723.768066 217.790452 
L 726.809814 216.670674 
L 729.851624 215.704811 
L 731.372437 215.304448 
L 734.414246 213.570179 
L 735.935059 212.803904 
L 737.455994 212.335252 
L 738.97699 211.510012 
L 740.497681 210.536161 
L 743.539612 209.428961 
L 745.060303 210.013308 
L 746.581238 209.639733 
L 748.102234 209.108893 
L 752.664917 209.713014 
L 754.185608 209.209817 
L 757.227539 208.775943 
L 758.74823 208.345057 
L 761.790161 207.931016 
L 763.310913 207.989293 
L 766.352783 208.771562 
L 767.873535 208.753236 
L 769.394531 208.469536 
L 770.915405 207.704577 
L 772.436157 207.22117 
L 773.957153 207.600202 
L 775.478088 207.445563 
L 778.519775 207.888713 
L 778.519775 207.888713 
" clip-path="url(#pe3f827e3ee)" style="fill: none; stroke: #008000; stroke-width: 2; stroke-linecap: square"/>
   </g>
   <g id="line2d_107">
    <path d="M 110.883423 265.570305 
L 112.404358 265.261419 
L 115.446045 265.432896 
L 118.487976 264.83586 
L 121.529724 263.832218 
L 123.050659 263.470314 
L 124.57135 262.67182 
L 126.092346 262.132601 
L 127.613281 260.693493 
L 129.133972 260.013891 
L 130.654968 259.572809 
L 133.696655 259.767557 
L 135.21759 260.123569 
L 136.738525 260.204014 
L 138.259277 260.608844 
L 144.342896 261.592452 
L 145.86377 262.02108 
L 147.384644 262.133219 
L 148.905518 262.452136 
L 150.426453 262.146455 
L 154.989075 262.102769 
L 158.030823 261.6135 
L 162.593445 261.240585 
L 164.114441 261.43904 
L 165.635132 261.327553 
L 168.677063 261.317703 
L 170.197754 261.166049 
L 171.718689 261.367112 
L 173.239685 260.994661 
L 174.760437 261.325775 
L 176.281311 260.79985 
L 177.802368 260.832561 
L 179.323059 260.665833 
L 180.843933 260.356252 
L 182.36499 260.251189 
L 183.885681 259.768549 
L 185.406677 259.638721 
L 188.448364 259.103271 
L 189.969299 259.100484 
L 191.490234 258.870146 
L 193.010986 258.850704 
L 194.531982 258.511299 
L 199.094604 257.783112 
L 205.178162 256.735933 
L 206.698853 256.569974 
L 208.21991 256.696927 
L 211.261475 256.220561 
L 214.303406 256.189586 
L 215.824219 255.976291 
L 218.86615 255.340388 
L 223.428772 254.797171 
L 224.949463 254.550867 
L 226.470398 254.191026 
L 231.03302 253.614159 
L 232.554016 253.826445 
L 234.074768 253.46597 
L 235.595703 253.257172 
L 237.116638 253.186372 
L 238.63739 252.997345 
L 240.158325 253.263858 
L 243.200012 252.879035 
L 246.241943 252.634822 
L 247.762634 252.274523 
L 249.283691 252.069821 
L 250.804565 252.118048 
L 252.325317 252.008461 
L 256.887939 251.143815 
L 258.408936 251.00441 
L 261.450562 250.204834 
L 262.971558 249.998841 
L 264.492493 249.999278 
L 266.013245 249.266386 
L 267.53418 249.017771 
L 269.055237 249.080515 
L 270.575867 248.450725 
L 272.096802 248.403266 
L 276.659485 247.44326 
L 278.180359 247.099657 
L 281.222107 246.853966 
L 285.784729 247.263274 
L 288.826477 247.279185 
L 290.347412 247.11827 
L 293.389099 247.826609 
L 294.910034 247.814716 
L 297.951721 248.693812 
L 300.993652 249.466965 
L 302.514343 250.207522 
L 304.035278 250.648618 
L 305.556274 251.208941 
L 307.077026 251.582358 
L 308.597961 252.181888 
L 310.118958 252.276128 
L 314.68158 253.941869 
L 316.202271 254.635762 
L 317.723267 255.474076 
L 319.244202 256.047355 
L 320.764954 256.445536 
L 322.285889 257.011735 
L 323.806824 257.697616 
L 328.369446 260.361106 
L 329.890198 260.685226 
L 331.411194 261.379005 
L 334.452881 261.433361 
L 335.973816 261.149381 
L 337.494812 260.709676 
L 339.015503 260.875423 
L 340.536499 260.622967 
L 343.578125 260.697759 
L 345.099121 260.166632 
L 346.620056 259.868719 
L 348.140991 259.767735 
L 349.661743 259.189537 
L 351.182739 258.821612 
L 352.70343 258.258065 
L 355.745361 257.57167 
L 357.266052 256.997588 
L 360.307983 256.732501 
L 361.828979 256.506282 
L 363.349609 257.251411 
L 364.870605 257.389008 
L 367.912354 257.132995 
L 370.954041 257.984455 
L 372.474976 258.089169 
L 373.995911 258.413795 
L 375.516907 258.32449 
L 380.079285 257.257347 
L 381.600281 257.210529 
L 384.641907 257.526964 
L 387.683838 257.357673 
L 389.204773 257.840674 
L 390.725525 258.1857 
L 393.767151 257.825757 
L 395.288147 257.920069 
L 396.809143 257.888706 
L 398.329895 257.973387 
L 401.371826 258.844019 
L 402.8927 259.032421 
L 404.413391 259.006837 
L 405.934448 258.733591 
L 407.455139 259.053621 
L 408.976074 259.223415 
L 410.49707 259.087248 
L 412.017822 259.246984 
L 413.538696 259.258313 
L 415.059692 259.116992 
L 421.143066 260.534783 
L 425.705688 262.49177 
L 427.226685 263.410636 
L 430.268555 264.936816 
L 431.789368 265.310092 
L 433.310242 265.840702 
L 434.830933 266.075674 
L 437.872864 266.8058 
L 439.393616 267.549673 
L 440.914612 267.605255 
L 442.435547 268.15389 
L 443.956482 268.2 
L 445.477234 267.719587 
L 448.51886 266.486578 
L 451.560852 264.46481 
L 453.081604 263.083935 
L 454.602478 261.927119 
L 456.123474 261.032996 
L 460.686096 256.217044 
L 462.206848 255.188214 
L 463.727783 254.330322 
L 465.248718 253.710389 
L 466.769714 252.867526 
L 468.290405 252.429945 
L 469.811401 251.258744 
L 471.332092 250.690447 
L 474.374023 249.918738 
L 477.415771 248.553815 
L 478.936646 248.20391 
L 480.457581 247.428931 
L 481.978394 246.872177 
L 483.499329 246.637228 
L 485.02002 246.739369 
L 488.031616 247.214457 
L 489.552368 247.825512 
L 491.073364 248.559152 
L 495.635986 251.724756 
L 497.15686 252.891126 
L 500.198608 255.937272 
L 501.719604 257.543535 
L 504.761292 260.252622 
L 506.281982 261.371569 
L 510.844849 263.512329 
L 512.365601 263.711 
L 513.886536 264.19907 
L 516.928223 264.169589 
L 518.449158 264.34375 
L 521.490845 263.725778 
L 523.01178 262.905003 
L 524.532837 262.416259 
L 526.053528 261.51434 
L 529.095459 259.982095 
L 530.61615 258.906975 
L 535.178833 256.661568 
L 536.699768 256.246935 
L 538.220703 255.440476 
L 539.741455 254.9752 
L 541.26239 254.654789 
L 542.783325 254.625905 
L 544.304077 253.850097 
L 548.866699 254.25381 
L 550.387695 253.874789 
L 551.908691 254.066914 
L 553.429321 254.02062 
L 554.950317 254.089271 
L 557.992004 253.991006 
L 559.513 253.721876 
L 561.033936 253.70813 
L 562.554688 253.82515 
L 564.075623 254.211121 
L 565.596619 254.338424 
L 567.11731 255.128164 
L 568.638184 256.289238 
L 570.159241 257.248348 
L 573.200867 258.55544 
L 574.721863 258.571815 
L 576.242615 258.303517 
L 579.284485 257.31183 
L 583.847107 256.813173 
L 585.367859 256.961272 
L 588.409729 255.749208 
L 591.451477 254.47507 
L 592.972412 254.743761 
L 594.493103 254.777064 
L 596.01416 255.022254 
L 597.535034 255.124332 
L 599.055725 255.47732 
L 600.576782 256.085374 
L 602.097656 256.163726 
L 605.139404 257.216479 
L 606.660339 257.427984 
L 608.18103 257.978409 
L 609.702026 257.742887 
L 611.223022 258.112622 
L 612.743652 258.225935 
L 614.264648 258.0304 
L 617.306396 257.780992 
L 618.827271 257.599626 
L 621.869019 257.85327 
L 623.389954 257.895597 
L 624.910889 257.754947 
L 626.431641 258.298096 
L 630.994324 257.888169 
L 635.556946 257.490405 
L 637.077881 256.732572 
L 638.598816 257.158041 
L 640.119568 256.97967 
L 643.161499 256.966039 
L 647.724121 256.244674 
L 650.765808 256.192029 
L 653.807495 256.742723 
L 655.32843 257.278333 
L 656.849426 257.540731 
L 659.891052 258.625978 
L 661.412048 258.566226 
L 662.932739 258.307502 
L 664.453735 258.964355 
L 665.97467 259.436191 
L 667.495483 259.74202 
L 669.016357 260.278543 
L 670.537292 260.024702 
L 672.058105 260.035746 
L 675.099976 260.613516 
L 676.620728 261.105421 
L 679.662598 261.534274 
L 681.18335 261.262382 
L 682.704285 261.364014 
L 684.225281 261.290414 
L 685.745972 261.071748 
L 688.787903 260.288799 
L 690.308594 260.095312 
L 694.871277 258.884783 
L 696.392212 258.400745 
L 697.913208 258.092739 
L 700.954895 256.967876 
L 703.996521 256.569081 
L 705.517517 255.967664 
L 707.038452 255.677953 
L 708.559204 255.186896 
L 710.080139 254.505997 
L 711.601074 254.367681 
L 716.163696 251.884497 
L 722.247131 249.895348 
L 723.768066 249.610709 
L 725.289001 249.466855 
L 729.851624 249.770344 
L 731.372437 249.95788 
L 732.893372 250.271273 
L 735.935059 250.631088 
L 737.455994 251.262662 
L 738.97699 251.47498 
L 740.497681 251.470556 
L 742.018616 251.768112 
L 743.539612 251.881577 
L 745.060303 252.244429 
L 748.102234 252.182357 
L 749.622986 252.412411 
L 751.14386 253.177378 
L 752.664917 253.497383 
L 754.185608 253.524144 
L 755.706543 253.925665 
L 757.227539 254.559947 
L 760.269165 255.135893 
L 764.831848 256.70309 
L 766.352783 257.561522 
L 767.873535 257.69226 
L 769.394531 258.442048 
L 770.915405 258.683535 
L 772.436157 258.65127 
L 778.519775 260.429956 
L 778.519775 260.429956 
" clip-path="url(#pe3f827e3ee)" style="fill: none; stroke: #ff0000; stroke-width: 2; stroke-linecap: square"/>
   </g>
   <g id="line2d_108">
    <path d="M 110.883423 17.034441 
L 112.404358 17.093642 
L 113.925354 16.909856 
L 115.446045 16.520558 
L 118.487976 16.252583 
L 120.008667 16.2 
L 123.050659 16.339873 
L 126.092346 16.964221 
L 127.613281 18.384995 
L 129.133972 18.979718 
L 130.654968 19.364824 
L 132.175903 19.270696 
L 133.696655 19.059467 
L 135.21759 18.548485 
L 136.738525 18.600381 
L 138.259277 18.250773 
L 141.301147 17.986931 
L 144.342896 17.370971 
L 145.86377 17.076508 
L 147.384644 16.964191 
L 148.905518 16.598112 
L 151.947266 16.677182 
L 154.989075 16.569657 
L 165.635132 17.121201 
L 167.156067 16.878494 
L 170.197754 17.157112 
L 171.718689 17.070112 
L 173.239685 17.230259 
L 174.760437 17.109068 
L 176.281311 17.276577 
L 179.323059 17.048479 
L 180.843933 17.206193 
L 182.36499 17.149796 
L 183.885681 17.399093 
L 185.406677 17.301737 
L 186.927612 17.633966 
L 189.969299 17.528303 
L 193.010986 17.357639 
L 206.698853 18.309121 
L 208.21991 18.184792 
L 212.782532 18.489583 
L 214.303406 18.404109 
L 215.824219 18.617132 
L 218.86615 18.672109 
L 221.907776 18.553255 
L 226.470398 19.002876 
L 227.991394 18.879019 
L 231.03302 18.914414 
L 232.554016 18.729063 
L 234.074768 18.909305 
L 238.63739 19.032614 
L 240.158325 18.968209 
L 241.679321 19.13801 
L 246.241943 19.139407 
L 247.762634 19.305612 
L 249.283691 19.32898 
L 250.804565 19.165992 
L 252.325317 19.217944 
L 256.887939 18.951339 
L 258.408936 18.743989 
L 259.929871 18.924623 
L 261.450562 18.667491 
L 262.971558 18.533033 
L 264.492493 18.138263 
L 266.013245 18.232953 
L 267.53418 18.193874 
L 269.055237 18.009126 
L 270.575867 18.312762 
L 272.096802 18.198614 
L 275.13855 18.26936 
L 281.222107 18.769327 
L 287.305725 18.668347 
L 288.826477 19.013148 
L 291.868347 19.431299 
L 293.389099 19.361207 
L 294.910034 19.690808 
L 299.472656 20.081936 
L 300.993652 20.373621 
L 302.514343 20.176469 
L 307.077026 20.3116 
L 308.597961 20.304746 
L 310.118958 20.585007 
L 311.639648 20.674927 
L 313.160645 20.942764 
L 314.68158 20.837587 
L 319.244202 20.900889 
L 320.764954 21.181512 
L 322.285889 20.807102 
L 323.806824 20.550507 
L 331.411194 18.324641 
L 334.452881 18.023936 
L 335.973816 18.138488 
L 337.494812 18.65949 
L 342.057434 19.17493 
L 343.578125 19.420481 
L 345.099121 20.054107 
L 348.140991 20.99128 
L 349.661743 21.289838 
L 351.182739 21.839546 
L 352.70343 22.664001 
L 355.745361 22.691794 
L 357.266052 22.907859 
L 360.307983 22.675112 
L 361.828979 22.759046 
L 363.349609 22.263421 
L 364.870605 22.426201 
L 366.391357 22.802105 
L 367.912354 22.84688 
L 370.954041 21.702754 
L 372.474976 21.496905 
L 373.995911 21.101836 
L 375.516907 21.303449 
L 377.037598 21.624645 
L 380.079285 21.800917 
L 383.121155 20.794199 
L 384.641907 20.058951 
L 387.683838 19.732145 
L 389.204773 19.104096 
L 390.725525 18.659516 
L 393.767151 19.141837 
L 396.809143 19.19316 
L 398.329895 19.400373 
L 402.8927 18.685579 
L 404.413391 18.737874 
L 405.934448 19.228423 
L 408.976074 18.932589 
L 410.49707 19.319473 
L 412.017822 19.372102 
L 415.059692 20.082465 
L 418.101318 20.10187 
L 422.664062 20.51356 
L 436.35199 18.447652 
L 437.872864 18.293654 
L 439.393616 17.730064 
L 440.914612 17.761838 
L 442.435547 17.208833 
L 443.956482 17.064505 
L 446.998169 17.369168 
L 448.51886 17.391097 
L 453.081604 18.472658 
L 454.602478 18.667655 
L 456.123474 18.584598 
L 457.644409 19.04694 
L 459.165161 19.39221 
L 460.686096 19.90481 
L 463.727783 20.35084 
L 465.248718 20.260907 
L 466.769714 20.515229 
L 468.290405 20.183831 
L 469.811401 20.530026 
L 471.332092 20.61793 
L 472.853088 20.520681 
L 474.374023 20.584615 
L 475.894714 20.875718 
L 477.415771 21.320561 
L 478.936646 21.632874 
L 480.457581 22.09155 
L 483.499329 23.545062 
L 486.510681 24.509999 
L 488.031616 25.379955 
L 491.073364 26.752931 
L 492.594055 26.94562 
L 494.115051 27.415839 
L 495.635986 28.244637 
L 497.15686 28.824132 
L 498.677734 29.24926 
L 501.719604 29.574085 
L 504.761292 29.776417 
L 509.323914 29.86172 
L 510.844849 29.533684 
L 512.365601 29.345681 
L 513.886536 28.766692 
L 515.407532 28.474845 
L 516.928223 27.958997 
L 518.449158 27.282637 
L 519.970154 27.162515 
L 521.490845 26.729237 
L 523.01178 26.753337 
L 524.532837 26.565808 
L 526.053528 26.771853 
L 529.095459 26.65351 
L 530.61615 26.997905 
L 536.699768 26.442201 
L 538.220703 26.559177 
L 539.741455 26.456128 
L 542.783325 25.871946 
L 544.304077 26.196966 
L 547.345947 25.479054 
L 548.866699 25.387629 
L 550.387695 25.690953 
L 551.908691 25.370321 
L 553.429321 25.455363 
L 556.471313 25.351057 
L 559.513 25.435413 
L 561.033936 24.959013 
L 562.554688 25.000747 
L 564.075623 24.451848 
L 565.596619 24.200337 
L 567.11731 23.626997 
L 568.638184 22.83551 
L 570.159241 22.211413 
L 571.679932 21.856967 
L 573.200867 21.659741 
L 574.721863 21.672146 
L 577.763489 22.401755 
L 579.284485 22.880105 
L 582.326233 22.714849 
L 583.847107 22.72372 
L 585.367859 22.506295 
L 588.409729 23.18305 
L 591.451477 23.270279 
L 592.972412 22.825971 
L 600.576782 21.981786 
L 602.097656 22.199894 
L 606.660339 21.892391 
L 608.18103 21.517727 
L 609.702026 22.142755 
L 611.223022 22.014697 
L 612.743652 22.159742 
L 614.264648 22.80547 
L 615.785645 23.190877 
L 617.306396 23.431213 
L 618.827271 23.788516 
L 620.348328 23.661073 
L 624.910889 23.790641 
L 626.431641 23.355063 
L 629.473511 23.695329 
L 630.994324 23.828583 
L 635.556946 23.783154 
L 637.077881 24.395887 
L 638.598816 24.063413 
L 640.119568 23.871743 
L 641.640564 23.915961 
L 643.161499 23.60019 
L 644.68219 23.758189 
L 646.203186 23.473797 
L 647.724121 23.402959 
L 649.244812 23.20524 
L 650.765808 23.261107 
L 653.807495 22.528482 
L 655.32843 21.779684 
L 656.849426 21.727195 
L 658.370117 21.556274 
L 659.891052 20.745325 
L 661.412048 20.710025 
L 662.932739 20.941885 
L 665.97467 20.073989 
L 667.495483 20.030181 
L 669.016357 19.636568 
L 670.537292 20.05567 
L 672.058105 19.93412 
L 673.578979 19.931319 
L 675.099976 20.157401 
L 678.141663 19.684521 
L 679.662598 19.313146 
L 681.18335 19.796818 
L 682.704285 19.706727 
L 684.225281 19.797048 
L 685.745972 19.775138 
L 687.266907 20.068344 
L 690.308594 20.313173 
L 691.82959 20.774354 
L 696.392212 20.995234 
L 697.913208 20.792583 
L 699.433899 20.93206 
L 700.954895 21.212738 
L 702.47583 21.183117 
L 707.038452 21.740405 
L 708.559204 22.1045 
L 710.080139 22.794477 
L 711.601074 22.708765 
L 713.121826 23.430981 
L 716.163696 24.363789 
L 717.684448 24.525265 
L 719.205444 24.878364 
L 723.768066 25.474564 
L 726.809814 24.909473 
L 731.372437 24.582774 
L 732.893372 24.404481 
L 735.935059 24.63258 
L 737.455994 24.114145 
L 738.97699 23.962108 
L 740.497681 23.926295 
L 742.018616 23.72948 
L 743.539612 23.806039 
L 745.060303 23.516817 
L 748.102234 24.000606 
L 749.622986 23.783595 
L 751.14386 23.378199 
L 752.664917 23.346893 
L 754.185608 23.699448 
L 757.227539 23.148979 
L 760.269165 23.210828 
L 764.831848 22.420632 
L 766.352783 21.831076 
L 767.873535 21.927287 
L 769.394531 21.70044 
L 770.915405 21.9136 
L 772.436157 22.357783 
L 773.957153 22.132527 
L 776.998779 21.849305 
L 778.519775 21.646897 
L 778.519775 21.646897 
" clip-path="url(#pe3f827e3ee)" style="fill: none; stroke: #000000; stroke-width: 2; stroke-linecap: square"/>
   </g>
   <g id="patch_3">
    <path d="M 77.5015 280.8 
L 77.5015 3.6 
" style="fill: none; stroke: #000000; stroke-linejoin: miter; stroke-linecap: square"/>
   </g>
   <g id="patch_4">
    <path d="M 811.9015 280.8 
L 811.9015 3.6 
" style="fill: none; stroke: #000000; stroke-linejoin: miter; stroke-linecap: square"/>
   </g>
   <g id="patch_5">
    <path d="M 77.501587 280.8 
L 811.901611 280.8 
" style="fill: none; stroke: #000000; stroke-linejoin: miter; stroke-linecap: square"/>
   </g>
   <g id="patch_6">
    <path d="M 77.501587 3.6 
L 811.901611 3.6 
" style="fill: none; stroke: #000000; stroke-linejoin: miter; stroke-linecap: square"/>
   </g>
   <g id="legend_1">
    <g id="text_15">
     <!-- $B_l$ -->
     <g transform="translate(738.1415 30.1575)">
      <text>
       <tspan style="font: oblique 16px 'DejaVu Sans'" x="0" y="-0.328125">B</tspan>
       <tspan style="font: oblique 11.2px 'DejaVu Sans'" x="10.976562" y="2.296875">l</tspan>
      </text>
     </g>
    </g>
    <g id="line2d_109">
     <path d="M 765.5015 24.5575 
L 781.5015 24.5575 
L 797.5015 24.5575 
" style="fill: none; stroke: #0000ff; stroke-width: 4; stroke-linecap: square"/>
    </g>
    <g id="text_16">
     <!-- $B_m$ -->
     <g transform="translate(730.3015 53.6425)">
      <text>
       <tspan style="font: oblique 16px 'DejaVu Sans'" x="0" y="-0.328125">B</tspan>
       <tspan style="font: oblique 11.2px 'DejaVu Sans'" x="10.976562" y="2.296875">m</tspan>
      </text>
     </g>
    </g>
    <g id="line2d_110">
     <path d="M 765.5015 48.0425 
L 781.5015 48.0425 
L 797.5015 48.0425 
" style="fill: none; stroke: #008000; stroke-width: 4; stroke-linecap: square"/>
    </g>
    <g id="text_17">
     <!-- $B_n$ -->
     <g transform="translate(734.1415 77.1275)">
      <text>
       <tspan style="font: oblique 16px 'DejaVu Sans'" x="0" y="-0.328125">B</tspan>
       <tspan style="font: oblique 11.2px 'DejaVu Sans'" x="10.976562" y="2.296875">n</tspan>
      </text>
     </g>
    </g>
    <g id="line2d_111">
     <path d="M 765.5015 71.5275 
L 781.5015 71.5275 
L 797.5015 71.5275 
" style="fill: none; stroke: #ff0000; stroke-width: 4; stroke-linecap: square"/>
    </g>
    <g id="text_18">
     <!-- $B_{total}$ -->
     <g transform="translate(715.5815 100.6125)">
      <text>
       <tspan style="font: oblique 16px 'DejaVu Sans'" x="0" y="-0.328125">B</tspan>
       <tspan style="font: oblique 11.2px 'DejaVu Sans'" x="10.976562 15.367969 22.220312 26.611719 33.475" y="2.296875">total</tspan>
      </text>
     </g>
    </g>
    <g id="line2d_112">
     <path d="M 765.5015 95.0125 
L 781.5015 95.0125 
L 797.5015 95.0125 
" style="fill: none; stroke: #000000; stroke-width: 4; stroke-linecap: square"/>
    </g>
   </g>
  </g>
 </g>
 <defs>
  <clipPath id="pe3f827e3ee">
   <rect x="77.5015" y="3.6" width="734.4" height="277.2"/>
  </clipPath>
 </defs>
</svg>
