<?xml version="1.0" encoding="utf-8" standalone="no"?>
<!DOCTYPE svg PUBLIC "-//W3C//DTD SVG 1.1//EN"
  "http://www.w3.org/Graphics/SVG/1.1/DTD/svg11.dtd">
<svg xmlns:xlink="http://www.w3.org/1999/xlink" width="800.2615pt" height="317.99875pt" viewBox="0 0 800.2615 317.99875" xmlns="http://www.w3.org/2000/svg" version="1.1">
 <metadata>
  <rdf:RDF xmlns:dc="http://purl.org/dc/elements/1.1/" xmlns:cc="http://creativecommons.org/ns#" xmlns:rdf="http://www.w3.org/1999/02/22-rdf-syntax-ns#">
   <cc:Work>
    <dc:type rdf:resource="http://purl.org/dc/dcmitype/StillImage"/>
    <dc:date>2024-01-11T21:21:36.868619</dc:date>
    <dc:format>image/svg+xml</dc:format>
    <dc:creator>
     <cc:Agent>
      <dc:title>Matplotlib v3.7.3, https://matplotlib.org/</dc:title>
     </cc:Agent>
    </dc:creator>
   </cc:Work>
  </rdf:RDF>
 </metadata>
 <defs>
  <style type="text/css">*{stroke-linejoin: round; stroke-linecap: butt}</style>
 </defs>
 <g id="figure_1">
  <g id="patch_1">
   <path d="M 0 317.99875 
L 800.2615 317.99875 
L 800.2615 0 
L 0 0 
z
" style="fill: #ffffff"/>
  </g>
  <g id="axes_1">
   <g id="patch_2">
    <path d="M 62.2615 280.8 
L 796.6615 280.8 
L 796.6615 3.6 
L 62.2615 3.6 
z
" style="fill: #ffffff"/>
   </g>
   <g id="matplotlib.axis_1">
    <g id="xtick_1">
     <g id="line2d_1">
      <defs>
       <path id="ma645feeb6d" d="M 0 0 
L 0 -6 
" style="stroke: #000000"/>
      </defs>
      <g>
       <use xlink:href="#ma645feeb6d" x="93.162727" y="280.8" style="stroke: #000000"/>
      </g>
     </g>
     <g id="line2d_2">
      <defs>
       <path id="mca50e2fe01" d="M 0 0 
L 0 6 
" style="stroke: #000000"/>
      </defs>
      <g>
       <use xlink:href="#mca50e2fe01" x="93.162727" y="3.6" style="stroke: #000000"/>
      </g>
     </g>
     <g id="text_1">
      <!-- 20 -->
      <g transform="translate(85.527727 293.418125) scale(0.12 -0.12)">
       <defs>
        <path id="DejaVuSans-32" d="M 1228 531 
L 3431 531 
L 3431 0 
L 469 0 
L 469 531 
Q 828 903 1448 1529 
Q 2069 2156 2228 2338 
Q 2531 2678 2651 2914 
Q 2772 3150 2772 3378 
Q 2772 3750 2511 3984 
Q 2250 4219 1831 4219 
Q 1534 4219 1204 4116 
Q 875 4013 500 3803 
L 500 4441 
Q 881 4594 1212 4672 
Q 1544 4750 1819 4750 
Q 2544 4750 2975 4387 
Q 3406 4025 3406 3419 
Q 3406 3131 3298 2873 
Q 3191 2616 2906 2266 
Q 2828 2175 2409 1742 
Q 1991 1309 1228 531 
z
" transform="scale(0.015625)"/>
        <path id="DejaVuSans-30" d="M 2034 4250 
Q 1547 4250 1301 3770 
Q 1056 3291 1056 2328 
Q 1056 1369 1301 889 
Q 1547 409 2034 409 
Q 2525 409 2770 889 
Q 3016 1369 3016 2328 
Q 3016 3291 2770 3770 
Q 2525 4250 2034 4250 
z
M 2034 4750 
Q 2819 4750 3233 4129 
Q 3647 3509 3647 2328 
Q 3647 1150 3233 529 
Q 2819 -91 2034 -91 
Q 1250 -91 836 529 
Q 422 1150 422 2328 
Q 422 3509 836 4129 
Q 1250 4750 2034 4750 
z
" transform="scale(0.015625)"/>
       </defs>
       <use xlink:href="#DejaVuSans-32"/>
       <use xlink:href="#DejaVuSans-30" x="63.623047"/>
      </g>
     </g>
    </g>
    <g id="xtick_2">
     <g id="line2d_3">
      <g>
       <use xlink:href="#ma645feeb6d" x="204.901028" y="280.8" style="stroke: #000000"/>
      </g>
     </g>
     <g id="line2d_4">
      <g>
       <use xlink:href="#mca50e2fe01" x="204.901028" y="3.6" style="stroke: #000000"/>
      </g>
     </g>
     <g id="text_2">
      <!-- 25 -->
      <g transform="translate(197.266028 293.418125) scale(0.12 -0.12)">
       <defs>
        <path id="DejaVuSans-35" d="M 691 4666 
L 3169 4666 
L 3169 4134 
L 1269 4134 
L 1269 2991 
Q 1406 3038 1543 3061 
Q 1681 3084 1819 3084 
Q 2600 3084 3056 2656 
Q 3513 2228 3513 1497 
Q 3513 744 3044 326 
Q 2575 -91 1722 -91 
Q 1428 -91 1123 -41 
Q 819 9 494 109 
L 494 744 
Q 775 591 1075 516 
Q 1375 441 1709 441 
Q 2250 441 2565 725 
Q 2881 1009 2881 1497 
Q 2881 1984 2565 2268 
Q 2250 2553 1709 2553 
Q 1456 2553 1204 2497 
Q 953 2441 691 2322 
L 691 4666 
z
" transform="scale(0.015625)"/>
       </defs>
       <use xlink:href="#DejaVuSans-32"/>
       <use xlink:href="#DejaVuSans-35" x="63.623047"/>
      </g>
     </g>
    </g>
    <g id="xtick_3">
     <g id="line2d_5">
      <g>
       <use xlink:href="#ma645feeb6d" x="316.639328" y="280.8" style="stroke: #000000"/>
      </g>
     </g>
     <g id="line2d_6">
      <g>
       <use xlink:href="#mca50e2fe01" x="316.639328" y="3.6" style="stroke: #000000"/>
      </g>
     </g>
     <g id="text_3">
      <!-- 30 -->
      <g transform="translate(309.004328 293.418125) scale(0.12 -0.12)">
       <defs>
        <path id="DejaVuSans-33" d="M 2597 2516 
Q 3050 2419 3304 2112 
Q 3559 1806 3559 1356 
Q 3559 666 3084 287 
Q 2609 -91 1734 -91 
Q 1441 -91 1130 -33 
Q 819 25 488 141 
L 488 750 
Q 750 597 1062 519 
Q 1375 441 1716 441 
Q 2309 441 2620 675 
Q 2931 909 2931 1356 
Q 2931 1769 2642 2001 
Q 2353 2234 1838 2234 
L 1294 2234 
L 1294 2753 
L 1863 2753 
Q 2328 2753 2575 2939 
Q 2822 3125 2822 3475 
Q 2822 3834 2567 4026 
Q 2313 4219 1838 4219 
Q 1578 4219 1281 4162 
Q 984 4106 628 3988 
L 628 4550 
Q 988 4650 1302 4700 
Q 1616 4750 1894 4750 
Q 2613 4750 3031 4423 
Q 3450 4097 3450 3541 
Q 3450 3153 3228 2886 
Q 3006 2619 2597 2516 
z
" transform="scale(0.015625)"/>
       </defs>
       <use xlink:href="#DejaVuSans-33"/>
       <use xlink:href="#DejaVuSans-30" x="63.623047"/>
      </g>
     </g>
    </g>
    <g id="xtick_4">
     <g id="line2d_7">
      <g>
       <use xlink:href="#ma645feeb6d" x="428.37764" y="280.8" style="stroke: #000000"/>
      </g>
     </g>
     <g id="line2d_8">
      <g>
       <use xlink:href="#mca50e2fe01" x="428.37764" y="3.6" style="stroke: #000000"/>
      </g>
     </g>
     <g id="text_4">
      <!-- 35 -->
      <g transform="translate(420.74264 293.418125) scale(0.12 -0.12)">
       <use xlink:href="#DejaVuSans-33"/>
       <use xlink:href="#DejaVuSans-35" x="63.623047"/>
      </g>
     </g>
    </g>
    <g id="xtick_5">
     <g id="line2d_9">
      <g>
       <use xlink:href="#ma645feeb6d" x="540.11594" y="280.8" style="stroke: #000000"/>
      </g>
     </g>
     <g id="line2d_10">
      <g>
       <use xlink:href="#mca50e2fe01" x="540.11594" y="3.6" style="stroke: #000000"/>
      </g>
     </g>
     <g id="text_5">
      <!-- 40 -->
      <g transform="translate(532.48094 293.418125) scale(0.12 -0.12)">
       <defs>
        <path id="DejaVuSans-34" d="M 2419 4116 
L 825 1625 
L 2419 1625 
L 2419 4116 
z
M 2253 4666 
L 3047 4666 
L 3047 1625 
L 3713 1625 
L 3713 1100 
L 3047 1100 
L 3047 0 
L 2419 0 
L 2419 1100 
L 313 1100 
L 313 1709 
L 2253 4666 
z
" transform="scale(0.015625)"/>
       </defs>
       <use xlink:href="#DejaVuSans-34"/>
       <use xlink:href="#DejaVuSans-30" x="63.623047"/>
      </g>
     </g>
    </g>
    <g id="xtick_6">
     <g id="line2d_11">
      <g>
       <use xlink:href="#ma645feeb6d" x="651.85424" y="280.8" style="stroke: #000000"/>
      </g>
     </g>
     <g id="line2d_12">
      <g>
       <use xlink:href="#mca50e2fe01" x="651.85424" y="3.6" style="stroke: #000000"/>
      </g>
     </g>
     <g id="text_6">
      <!-- 45 -->
      <g transform="translate(644.21924 293.418125) scale(0.12 -0.12)">
       <use xlink:href="#DejaVuSans-34"/>
       <use xlink:href="#DejaVuSans-35" x="63.623047"/>
      </g>
     </g>
    </g>
    <g id="xtick_7">
     <g id="line2d_13">
      <g>
       <use xlink:href="#ma645feeb6d" x="763.592552" y="280.8" style="stroke: #000000"/>
      </g>
     </g>
     <g id="line2d_14">
      <g>
       <use xlink:href="#mca50e2fe01" x="763.592552" y="3.6" style="stroke: #000000"/>
      </g>
     </g>
     <g id="text_7">
      <!-- 50 -->
      <g transform="translate(755.957552 293.418125) scale(0.12 -0.12)">
       <use xlink:href="#DejaVuSans-35"/>
       <use xlink:href="#DejaVuSans-30" x="63.623047"/>
      </g>
     </g>
    </g>
    <g id="xtick_8">
     <g id="line2d_15">
      <defs>
       <path id="mb3df46bc0b" d="M 0 0 
L 0 -3 
" style="stroke: #000000"/>
      </defs>
      <g>
       <use xlink:href="#mb3df46bc0b" x="65.228149" y="280.8" style="stroke: #000000"/>
      </g>
     </g>
     <g id="line2d_16">
      <defs>
       <path id="mce398de4e9" d="M 0 0 
L 0 3 
" style="stroke: #000000"/>
      </defs>
      <g>
       <use xlink:href="#mce398de4e9" x="65.228149" y="3.6" style="stroke: #000000"/>
      </g>
     </g>
    </g>
    <g id="xtick_9">
     <g id="line2d_17">
      <g>
       <use xlink:href="#mb3df46bc0b" x="121.097305" y="280.8" style="stroke: #000000"/>
      </g>
     </g>
     <g id="line2d_18">
      <g>
       <use xlink:href="#mce398de4e9" x="121.097305" y="3.6" style="stroke: #000000"/>
      </g>
     </g>
    </g>
    <g id="xtick_10">
     <g id="line2d_19">
      <g>
       <use xlink:href="#mb3df46bc0b" x="149.031876" y="280.8" style="stroke: #000000"/>
      </g>
     </g>
     <g id="line2d_20">
      <g>
       <use xlink:href="#mce398de4e9" x="149.031876" y="3.6" style="stroke: #000000"/>
      </g>
     </g>
    </g>
    <g id="xtick_11">
     <g id="line2d_21">
      <g>
       <use xlink:href="#mb3df46bc0b" x="176.96645" y="280.8" style="stroke: #000000"/>
      </g>
     </g>
     <g id="line2d_22">
      <g>
       <use xlink:href="#mce398de4e9" x="176.96645" y="3.6" style="stroke: #000000"/>
      </g>
     </g>
    </g>
    <g id="xtick_12">
     <g id="line2d_23">
      <g>
       <use xlink:href="#mb3df46bc0b" x="232.835606" y="280.8" style="stroke: #000000"/>
      </g>
     </g>
     <g id="line2d_24">
      <g>
       <use xlink:href="#mce398de4e9" x="232.835606" y="3.6" style="stroke: #000000"/>
      </g>
     </g>
    </g>
    <g id="xtick_13">
     <g id="line2d_25">
      <g>
       <use xlink:href="#mb3df46bc0b" x="260.77018" y="280.8" style="stroke: #000000"/>
      </g>
     </g>
     <g id="line2d_26">
      <g>
       <use xlink:href="#mce398de4e9" x="260.77018" y="3.6" style="stroke: #000000"/>
      </g>
     </g>
    </g>
    <g id="xtick_14">
     <g id="line2d_27">
      <g>
       <use xlink:href="#mb3df46bc0b" x="288.70475" y="280.8" style="stroke: #000000"/>
      </g>
     </g>
     <g id="line2d_28">
      <g>
       <use xlink:href="#mce398de4e9" x="288.70475" y="3.6" style="stroke: #000000"/>
      </g>
     </g>
    </g>
    <g id="xtick_15">
     <g id="line2d_29">
      <g>
       <use xlink:href="#mb3df46bc0b" x="344.57391" y="280.8" style="stroke: #000000"/>
      </g>
     </g>
     <g id="line2d_30">
      <g>
       <use xlink:href="#mce398de4e9" x="344.57391" y="3.6" style="stroke: #000000"/>
      </g>
     </g>
    </g>
    <g id="xtick_16">
     <g id="line2d_31">
      <g>
       <use xlink:href="#mb3df46bc0b" x="372.50848" y="280.8" style="stroke: #000000"/>
      </g>
     </g>
     <g id="line2d_32">
      <g>
       <use xlink:href="#mce398de4e9" x="372.50848" y="3.6" style="stroke: #000000"/>
      </g>
     </g>
    </g>
    <g id="xtick_17">
     <g id="line2d_33">
      <g>
       <use xlink:href="#mb3df46bc0b" x="400.443054" y="280.8" style="stroke: #000000"/>
      </g>
     </g>
     <g id="line2d_34">
      <g>
       <use xlink:href="#mce398de4e9" x="400.443054" y="3.6" style="stroke: #000000"/>
      </g>
     </g>
    </g>
    <g id="xtick_18">
     <g id="line2d_35">
      <g>
       <use xlink:href="#mb3df46bc0b" x="456.31221" y="280.8" style="stroke: #000000"/>
      </g>
     </g>
     <g id="line2d_36">
      <g>
       <use xlink:href="#mce398de4e9" x="456.31221" y="3.6" style="stroke: #000000"/>
      </g>
     </g>
    </g>
    <g id="xtick_19">
     <g id="line2d_37">
      <g>
       <use xlink:href="#mb3df46bc0b" x="484.24678" y="280.8" style="stroke: #000000"/>
      </g>
     </g>
     <g id="line2d_38">
      <g>
       <use xlink:href="#mce398de4e9" x="484.24678" y="3.6" style="stroke: #000000"/>
      </g>
     </g>
    </g>
    <g id="xtick_20">
     <g id="line2d_39">
      <g>
       <use xlink:href="#mb3df46bc0b" x="512.181355" y="280.8" style="stroke: #000000"/>
      </g>
     </g>
     <g id="line2d_40">
      <g>
       <use xlink:href="#mce398de4e9" x="512.181355" y="3.6" style="stroke: #000000"/>
      </g>
     </g>
    </g>
    <g id="xtick_21">
     <g id="line2d_41">
      <g>
       <use xlink:href="#mb3df46bc0b" x="568.05051" y="280.8" style="stroke: #000000"/>
      </g>
     </g>
     <g id="line2d_42">
      <g>
       <use xlink:href="#mce398de4e9" x="568.05051" y="3.6" style="stroke: #000000"/>
      </g>
     </g>
    </g>
    <g id="xtick_22">
     <g id="line2d_43">
      <g>
       <use xlink:href="#mb3df46bc0b" x="595.985085" y="280.8" style="stroke: #000000"/>
      </g>
     </g>
     <g id="line2d_44">
      <g>
       <use xlink:href="#mce398de4e9" x="595.985085" y="3.6" style="stroke: #000000"/>
      </g>
     </g>
    </g>
    <g id="xtick_23">
     <g id="line2d_45">
      <g>
       <use xlink:href="#mb3df46bc0b" x="623.919655" y="280.8" style="stroke: #000000"/>
      </g>
     </g>
     <g id="line2d_46">
      <g>
       <use xlink:href="#mce398de4e9" x="623.919655" y="3.6" style="stroke: #000000"/>
      </g>
     </g>
    </g>
    <g id="xtick_24">
     <g id="line2d_47">
      <g>
       <use xlink:href="#mb3df46bc0b" x="679.788815" y="280.8" style="stroke: #000000"/>
      </g>
     </g>
     <g id="line2d_48">
      <g>
       <use xlink:href="#mce398de4e9" x="679.788815" y="3.6" style="stroke: #000000"/>
      </g>
     </g>
    </g>
    <g id="xtick_25">
     <g id="line2d_49">
      <g>
       <use xlink:href="#mb3df46bc0b" x="707.723385" y="280.8" style="stroke: #000000"/>
      </g>
     </g>
     <g id="line2d_50">
      <g>
       <use xlink:href="#mce398de4e9" x="707.723385" y="3.6" style="stroke: #000000"/>
      </g>
     </g>
    </g>
    <g id="xtick_26">
     <g id="line2d_51">
      <g>
       <use xlink:href="#mb3df46bc0b" x="735.657959" y="280.8" style="stroke: #000000"/>
      </g>
     </g>
     <g id="line2d_52">
      <g>
       <use xlink:href="#mce398de4e9" x="735.657959" y="3.6" style="stroke: #000000"/>
      </g>
     </g>
    </g>
    <g id="xtick_27">
     <g id="line2d_53">
      <g>
       <use xlink:href="#mb3df46bc0b" x="791.527115" y="280.8" style="stroke: #000000"/>
      </g>
     </g>
     <g id="line2d_54">
      <g>
       <use xlink:href="#mce398de4e9" x="791.527115" y="3.6" style="stroke: #000000"/>
      </g>
     </g>
    </g>
    <g id="text_8">
     <!-- 2016-Jun-28 11:46 -->
     <g transform="translate(646.9415 311.07125) scale(0.16 -0.16)">
      <defs>
       <path id="DejaVuSans-31" d="M 794 531 
L 1825 531 
L 1825 4091 
L 703 3866 
L 703 4441 
L 1819 4666 
L 2450 4666 
L 2450 531 
L 3481 531 
L 3481 0 
L 794 0 
L 794 531 
z
" transform="scale(0.015625)"/>
       <path id="DejaVuSans-36" d="M 2113 2584 
Q 1688 2584 1439 2293 
Q 1191 2003 1191 1497 
Q 1191 994 1439 701 
Q 1688 409 2113 409 
Q 2538 409 2786 701 
Q 3034 994 3034 1497 
Q 3034 2003 2786 2293 
Q 2538 2584 2113 2584 
z
M 3366 4563 
L 3366 3988 
Q 3128 4100 2886 4159 
Q 2644 4219 2406 4219 
Q 1781 4219 1451 3797 
Q 1122 3375 1075 2522 
Q 1259 2794 1537 2939 
Q 1816 3084 2150 3084 
Q 2853 3084 3261 2657 
Q 3669 2231 3669 1497 
Q 3669 778 3244 343 
Q 2819 -91 2113 -91 
Q 1303 -91 875 529 
Q 447 1150 447 2328 
Q 447 3434 972 4092 
Q 1497 4750 2381 4750 
Q 2619 4750 2861 4703 
Q 3103 4656 3366 4563 
z
" transform="scale(0.015625)"/>
       <path id="DejaVuSans-2d" d="M 313 2009 
L 1997 2009 
L 1997 1497 
L 313 1497 
L 313 2009 
z
" transform="scale(0.015625)"/>
       <path id="DejaVuSans-4a" d="M 628 4666 
L 1259 4666 
L 1259 325 
Q 1259 -519 939 -900 
Q 619 -1281 -91 -1281 
L -331 -1281 
L -331 -750 
L -134 -750 
Q 284 -750 456 -515 
Q 628 -281 628 325 
L 628 4666 
z
" transform="scale(0.015625)"/>
       <path id="DejaVuSans-75" d="M 544 1381 
L 544 3500 
L 1119 3500 
L 1119 1403 
Q 1119 906 1312 657 
Q 1506 409 1894 409 
Q 2359 409 2629 706 
Q 2900 1003 2900 1516 
L 2900 3500 
L 3475 3500 
L 3475 0 
L 2900 0 
L 2900 538 
Q 2691 219 2414 64 
Q 2138 -91 1772 -91 
Q 1169 -91 856 284 
Q 544 659 544 1381 
z
M 1991 3584 
L 1991 3584 
z
" transform="scale(0.015625)"/>
       <path id="DejaVuSans-6e" d="M 3513 2113 
L 3513 0 
L 2938 0 
L 2938 2094 
Q 2938 2591 2744 2837 
Q 2550 3084 2163 3084 
Q 1697 3084 1428 2787 
Q 1159 2491 1159 1978 
L 1159 0 
L 581 0 
L 581 3500 
L 1159 3500 
L 1159 2956 
Q 1366 3272 1645 3428 
Q 1925 3584 2291 3584 
Q 2894 3584 3203 3211 
Q 3513 2838 3513 2113 
z
" transform="scale(0.015625)"/>
       <path id="DejaVuSans-38" d="M 2034 2216 
Q 1584 2216 1326 1975 
Q 1069 1734 1069 1313 
Q 1069 891 1326 650 
Q 1584 409 2034 409 
Q 2484 409 2743 651 
Q 3003 894 3003 1313 
Q 3003 1734 2745 1975 
Q 2488 2216 2034 2216 
z
M 1403 2484 
Q 997 2584 770 2862 
Q 544 3141 544 3541 
Q 544 4100 942 4425 
Q 1341 4750 2034 4750 
Q 2731 4750 3128 4425 
Q 3525 4100 3525 3541 
Q 3525 3141 3298 2862 
Q 3072 2584 2669 2484 
Q 3125 2378 3379 2068 
Q 3634 1759 3634 1313 
Q 3634 634 3220 271 
Q 2806 -91 2034 -91 
Q 1263 -91 848 271 
Q 434 634 434 1313 
Q 434 1759 690 2068 
Q 947 2378 1403 2484 
z
M 1172 3481 
Q 1172 3119 1398 2916 
Q 1625 2713 2034 2713 
Q 2441 2713 2670 2916 
Q 2900 3119 2900 3481 
Q 2900 3844 2670 4047 
Q 2441 4250 2034 4250 
Q 1625 4250 1398 4047 
Q 1172 3844 1172 3481 
z
" transform="scale(0.015625)"/>
       <path id="DejaVuSans-20" transform="scale(0.015625)"/>
       <path id="DejaVuSans-3a" d="M 750 794 
L 1409 794 
L 1409 0 
L 750 0 
L 750 794 
z
M 750 3309 
L 1409 3309 
L 1409 2516 
L 750 2516 
L 750 3309 
z
" transform="scale(0.015625)"/>
      </defs>
      <use xlink:href="#DejaVuSans-32"/>
      <use xlink:href="#DejaVuSans-30" x="63.623047"/>
      <use xlink:href="#DejaVuSans-31" x="127.246094"/>
      <use xlink:href="#DejaVuSans-36" x="190.869141"/>
      <use xlink:href="#DejaVuSans-2d" x="254.492188"/>
      <use xlink:href="#DejaVuSans-4a" x="296.201172"/>
      <use xlink:href="#DejaVuSans-75" x="325.693359"/>
      <use xlink:href="#DejaVuSans-6e" x="389.072266"/>
      <use xlink:href="#DejaVuSans-2d" x="452.451172"/>
      <use xlink:href="#DejaVuSans-32" x="488.535156"/>
      <use xlink:href="#DejaVuSans-38" x="552.158203"/>
      <use xlink:href="#DejaVuSans-20" x="615.78125"/>
      <use xlink:href="#DejaVuSans-31" x="647.568359"/>
      <use xlink:href="#DejaVuSans-31" x="711.191406"/>
      <use xlink:href="#DejaVuSans-3a" x="774.814453"/>
      <use xlink:href="#DejaVuSans-34" x="808.505859"/>
      <use xlink:href="#DejaVuSans-36" x="872.128906"/>
     </g>
    </g>
   </g>
   <g id="matplotlib.axis_2">
    <g id="ytick_1">
     <g id="line2d_55">
      <defs>
       <path id="me1ce395e2f" d="M 0 0 
L 6 0 
" style="stroke: #000000"/>
      </defs>
      <g>
       <use xlink:href="#me1ce395e2f" x="62.2615" y="250.335915" style="stroke: #000000"/>
      </g>
     </g>
     <g id="line2d_56">
      <defs>
       <path id="m58e948971f" d="M 0 0 
L -6 0 
" style="stroke: #000000"/>
      </defs>
      <g>
       <use xlink:href="#m58e948971f" x="796.6615" y="250.335915" style="stroke: #000000"/>
      </g>
     </g>
     <g id="text_9">
      <!-- $\mathdefault{−6}$ -->
      <g transform="translate(41.0015 254.894977) scale(0.12 -0.12)">
       <defs>
        <path id="DejaVuSans-2212" d="M 678 2272 
L 4684 2272 
L 4684 1741 
L 678 1741 
L 678 2272 
z
" transform="scale(0.015625)"/>
       </defs>
       <use xlink:href="#DejaVuSans-2212" transform="translate(0 0.78125)"/>
       <use xlink:href="#DejaVuSans-36" transform="translate(83.789062 0.78125)"/>
      </g>
     </g>
    </g>
    <g id="ytick_2">
     <g id="line2d_57">
      <g>
       <use xlink:href="#me1ce395e2f" x="62.2615" y="214.984702" style="stroke: #000000"/>
      </g>
     </g>
     <g id="line2d_58">
      <g>
       <use xlink:href="#m58e948971f" x="796.6615" y="214.984702" style="stroke: #000000"/>
      </g>
     </g>
     <g id="text_10">
      <!-- $\mathdefault{−4}$ -->
      <g transform="translate(41.0015 219.543764) scale(0.12 -0.12)">
       <use xlink:href="#DejaVuSans-2212" transform="translate(0 0.09375)"/>
       <use xlink:href="#DejaVuSans-34" transform="translate(83.789062 0.09375)"/>
      </g>
     </g>
    </g>
    <g id="ytick_3">
     <g id="line2d_59">
      <g>
       <use xlink:href="#me1ce395e2f" x="62.2615" y="179.633489" style="stroke: #000000"/>
      </g>
     </g>
     <g id="line2d_60">
      <g>
       <use xlink:href="#m58e948971f" x="796.6615" y="179.633489" style="stroke: #000000"/>
      </g>
     </g>
     <g id="text_11">
      <!-- $\mathdefault{−2}$ -->
      <g transform="translate(41.0015 184.192552) scale(0.12 -0.12)">
       <use xlink:href="#DejaVuSans-2212" transform="translate(0 0.78125)"/>
       <use xlink:href="#DejaVuSans-32" transform="translate(83.789062 0.78125)"/>
      </g>
     </g>
    </g>
    <g id="ytick_4">
     <g id="line2d_61">
      <g>
       <use xlink:href="#me1ce395e2f" x="62.2615" y="144.282276" style="stroke: #000000"/>
      </g>
     </g>
     <g id="line2d_62">
      <g>
       <use xlink:href="#m58e948971f" x="796.6615" y="144.282276" style="stroke: #000000"/>
      </g>
     </g>
     <g id="text_12">
      <!-- $\mathdefault{0}$ -->
      <g transform="translate(51.0815 148.841339) scale(0.12 -0.12)">
       <use xlink:href="#DejaVuSans-30" transform="translate(0 0.78125)"/>
      </g>
     </g>
    </g>
    <g id="ytick_5">
     <g id="line2d_63">
      <g>
       <use xlink:href="#me1ce395e2f" x="62.2615" y="108.931063" style="stroke: #000000"/>
      </g>
     </g>
     <g id="line2d_64">
      <g>
       <use xlink:href="#m58e948971f" x="796.6615" y="108.931063" style="stroke: #000000"/>
      </g>
     </g>
     <g id="text_13">
      <!-- $\mathdefault{2}$ -->
      <g transform="translate(51.0815 113.490126) scale(0.12 -0.12)">
       <use xlink:href="#DejaVuSans-32" transform="translate(0 0.78125)"/>
      </g>
     </g>
    </g>
    <g id="ytick_6">
     <g id="line2d_65">
      <g>
       <use xlink:href="#me1ce395e2f" x="62.2615" y="73.579851" style="stroke: #000000"/>
      </g>
     </g>
     <g id="line2d_66">
      <g>
       <use xlink:href="#m58e948971f" x="796.6615" y="73.579851" style="stroke: #000000"/>
      </g>
     </g>
     <g id="text_14">
      <!-- $\mathdefault{4}$ -->
      <g transform="translate(51.0815 78.138913) scale(0.12 -0.12)">
       <use xlink:href="#DejaVuSans-34" transform="translate(0 0.09375)"/>
      </g>
     </g>
    </g>
    <g id="ytick_7">
     <g id="line2d_67">
      <g>
       <use xlink:href="#me1ce395e2f" x="62.2615" y="38.228638" style="stroke: #000000"/>
      </g>
     </g>
     <g id="line2d_68">
      <g>
       <use xlink:href="#m58e948971f" x="796.6615" y="38.228638" style="stroke: #000000"/>
      </g>
     </g>
     <g id="text_15">
      <!-- $\mathdefault{6}$ -->
      <g transform="translate(51.0815 42.7877) scale(0.12 -0.12)">
       <use xlink:href="#DejaVuSans-36" transform="translate(0 0.78125)"/>
      </g>
     </g>
    </g>
    <g id="ytick_8">
     <g id="line2d_69">
      <defs>
       <path id="ma3682b9c6c" d="M 0 0 
L 3 0 
" style="stroke: #000000"/>
      </defs>
      <g>
       <use xlink:href="#ma3682b9c6c" x="62.2615" y="276.849324" style="stroke: #000000"/>
      </g>
     </g>
     <g id="line2d_70">
      <defs>
       <path id="m7f7e6cc304" d="M 0 0 
L -3 0 
" style="stroke: #000000"/>
      </defs>
      <g>
       <use xlink:href="#m7f7e6cc304" x="796.6615" y="276.849324" style="stroke: #000000"/>
      </g>
     </g>
    </g>
    <g id="ytick_9">
     <g id="line2d_71">
      <g>
       <use xlink:href="#ma3682b9c6c" x="62.2615" y="268.011521" style="stroke: #000000"/>
      </g>
     </g>
     <g id="line2d_72">
      <g>
       <use xlink:href="#m7f7e6cc304" x="796.6615" y="268.011521" style="stroke: #000000"/>
      </g>
     </g>
    </g>
    <g id="ytick_10">
     <g id="line2d_73">
      <g>
       <use xlink:href="#ma3682b9c6c" x="62.2615" y="259.173718" style="stroke: #000000"/>
      </g>
     </g>
     <g id="line2d_74">
      <g>
       <use xlink:href="#m7f7e6cc304" x="796.6615" y="259.173718" style="stroke: #000000"/>
      </g>
     </g>
    </g>
    <g id="ytick_11">
     <g id="line2d_75">
      <g>
       <use xlink:href="#ma3682b9c6c" x="62.2615" y="241.498112" style="stroke: #000000"/>
      </g>
     </g>
     <g id="line2d_76">
      <g>
       <use xlink:href="#m7f7e6cc304" x="796.6615" y="241.498112" style="stroke: #000000"/>
      </g>
     </g>
    </g>
    <g id="ytick_12">
     <g id="line2d_77">
      <g>
       <use xlink:href="#ma3682b9c6c" x="62.2615" y="232.660308" style="stroke: #000000"/>
      </g>
     </g>
     <g id="line2d_78">
      <g>
       <use xlink:href="#m7f7e6cc304" x="796.6615" y="232.660308" style="stroke: #000000"/>
      </g>
     </g>
    </g>
    <g id="ytick_13">
     <g id="line2d_79">
      <g>
       <use xlink:href="#ma3682b9c6c" x="62.2615" y="223.822505" style="stroke: #000000"/>
      </g>
     </g>
     <g id="line2d_80">
      <g>
       <use xlink:href="#m7f7e6cc304" x="796.6615" y="223.822505" style="stroke: #000000"/>
      </g>
     </g>
    </g>
    <g id="ytick_14">
     <g id="line2d_81">
      <g>
       <use xlink:href="#ma3682b9c6c" x="62.2615" y="206.146899" style="stroke: #000000"/>
      </g>
     </g>
     <g id="line2d_82">
      <g>
       <use xlink:href="#m7f7e6cc304" x="796.6615" y="206.146899" style="stroke: #000000"/>
      </g>
     </g>
    </g>
    <g id="ytick_15">
     <g id="line2d_83">
      <g>
       <use xlink:href="#ma3682b9c6c" x="62.2615" y="197.309096" style="stroke: #000000"/>
      </g>
     </g>
     <g id="line2d_84">
      <g>
       <use xlink:href="#m7f7e6cc304" x="796.6615" y="197.309096" style="stroke: #000000"/>
      </g>
     </g>
    </g>
    <g id="ytick_16">
     <g id="line2d_85">
      <g>
       <use xlink:href="#ma3682b9c6c" x="62.2615" y="188.471292" style="stroke: #000000"/>
      </g>
     </g>
     <g id="line2d_86">
      <g>
       <use xlink:href="#m7f7e6cc304" x="796.6615" y="188.471292" style="stroke: #000000"/>
      </g>
     </g>
    </g>
    <g id="ytick_17">
     <g id="line2d_87">
      <g>
       <use xlink:href="#ma3682b9c6c" x="62.2615" y="170.795686" style="stroke: #000000"/>
      </g>
     </g>
     <g id="line2d_88">
      <g>
       <use xlink:href="#m7f7e6cc304" x="796.6615" y="170.795686" style="stroke: #000000"/>
      </g>
     </g>
    </g>
    <g id="ytick_18">
     <g id="line2d_89">
      <g>
       <use xlink:href="#ma3682b9c6c" x="62.2615" y="161.957883" style="stroke: #000000"/>
      </g>
     </g>
     <g id="line2d_90">
      <g>
       <use xlink:href="#m7f7e6cc304" x="796.6615" y="161.957883" style="stroke: #000000"/>
      </g>
     </g>
    </g>
    <g id="ytick_19">
     <g id="line2d_91">
      <g>
       <use xlink:href="#ma3682b9c6c" x="62.2615" y="153.120079" style="stroke: #000000"/>
      </g>
     </g>
     <g id="line2d_92">
      <g>
       <use xlink:href="#m7f7e6cc304" x="796.6615" y="153.120079" style="stroke: #000000"/>
      </g>
     </g>
    </g>
    <g id="ytick_20">
     <g id="line2d_93">
      <g>
       <use xlink:href="#ma3682b9c6c" x="62.2615" y="135.444473" style="stroke: #000000"/>
      </g>
     </g>
     <g id="line2d_94">
      <g>
       <use xlink:href="#m7f7e6cc304" x="796.6615" y="135.444473" style="stroke: #000000"/>
      </g>
     </g>
    </g>
    <g id="ytick_21">
     <g id="line2d_95">
      <g>
       <use xlink:href="#ma3682b9c6c" x="62.2615" y="126.60667" style="stroke: #000000"/>
      </g>
     </g>
     <g id="line2d_96">
      <g>
       <use xlink:href="#m7f7e6cc304" x="796.6615" y="126.60667" style="stroke: #000000"/>
      </g>
     </g>
    </g>
    <g id="ytick_22">
     <g id="line2d_97">
      <g>
       <use xlink:href="#ma3682b9c6c" x="62.2615" y="117.768867" style="stroke: #000000"/>
      </g>
     </g>
     <g id="line2d_98">
      <g>
       <use xlink:href="#m7f7e6cc304" x="796.6615" y="117.768867" style="stroke: #000000"/>
      </g>
     </g>
    </g>
    <g id="ytick_23">
     <g id="line2d_99">
      <g>
       <use xlink:href="#ma3682b9c6c" x="62.2615" y="100.09326" style="stroke: #000000"/>
      </g>
     </g>
     <g id="line2d_100">
      <g>
       <use xlink:href="#m7f7e6cc304" x="796.6615" y="100.09326" style="stroke: #000000"/>
      </g>
     </g>
    </g>
    <g id="ytick_24">
     <g id="line2d_101">
      <g>
       <use xlink:href="#ma3682b9c6c" x="62.2615" y="91.255457" style="stroke: #000000"/>
      </g>
     </g>
     <g id="line2d_102">
      <g>
       <use xlink:href="#m7f7e6cc304" x="796.6615" y="91.255457" style="stroke: #000000"/>
      </g>
     </g>
    </g>
    <g id="ytick_25">
     <g id="line2d_103">
      <g>
       <use xlink:href="#ma3682b9c6c" x="62.2615" y="82.417654" style="stroke: #000000"/>
      </g>
     </g>
     <g id="line2d_104">
      <g>
       <use xlink:href="#m7f7e6cc304" x="796.6615" y="82.417654" style="stroke: #000000"/>
      </g>
     </g>
    </g>
    <g id="ytick_26">
     <g id="line2d_105">
      <g>
       <use xlink:href="#ma3682b9c6c" x="62.2615" y="64.742047" style="stroke: #000000"/>
      </g>
     </g>
     <g id="line2d_106">
      <g>
       <use xlink:href="#m7f7e6cc304" x="796.6615" y="64.742047" style="stroke: #000000"/>
      </g>
     </g>
    </g>
    <g id="ytick_27">
     <g id="line2d_107">
      <g>
       <use xlink:href="#ma3682b9c6c" x="62.2615" y="55.904244" style="stroke: #000000"/>
      </g>
     </g>
     <g id="line2d_108">
      <g>
       <use xlink:href="#m7f7e6cc304" x="796.6615" y="55.904244" style="stroke: #000000"/>
      </g>
     </g>
    </g>
    <g id="ytick_28">
     <g id="line2d_109">
      <g>
       <use xlink:href="#ma3682b9c6c" x="62.2615" y="47.066441" style="stroke: #000000"/>
      </g>
     </g>
     <g id="line2d_110">
      <g>
       <use xlink:href="#m7f7e6cc304" x="796.6615" y="47.066441" style="stroke: #000000"/>
      </g>
     </g>
    </g>
    <g id="ytick_29">
     <g id="line2d_111">
      <g>
       <use xlink:href="#ma3682b9c6c" x="62.2615" y="29.390835" style="stroke: #000000"/>
      </g>
     </g>
     <g id="line2d_112">
      <g>
       <use xlink:href="#m7f7e6cc304" x="796.6615" y="29.390835" style="stroke: #000000"/>
      </g>
     </g>
    </g>
    <g id="ytick_30">
     <g id="line2d_113">
      <g>
       <use xlink:href="#ma3682b9c6c" x="62.2615" y="20.553031" style="stroke: #000000"/>
      </g>
     </g>
     <g id="line2d_114">
      <g>
       <use xlink:href="#m7f7e6cc304" x="796.6615" y="20.553031" style="stroke: #000000"/>
      </g>
     </g>
    </g>
    <g id="ytick_31">
     <g id="line2d_115">
      <g>
       <use xlink:href="#ma3682b9c6c" x="62.2615" y="11.715228" style="stroke: #000000"/>
      </g>
     </g>
     <g id="line2d_116">
      <g>
       <use xlink:href="#m7f7e6cc304" x="796.6615" y="11.715228" style="stroke: #000000"/>
      </g>
     </g>
    </g>
    <g id="text_16">
     <!-- $B$ -->
     <g transform="translate(15.7575 147.72) rotate(-90) scale(0.16 -0.16)">
      <defs>
       <path id="DejaVuSans-Oblique-42" d="M 1081 4666 
L 2694 4666 
Q 3350 4666 3675 4422 
Q 4000 4178 4000 3688 
Q 4000 3238 3720 2911 
Q 3441 2584 2988 2516 
Q 3375 2428 3569 2181 
Q 3763 1934 3763 1522 
Q 3763 819 3242 409 
Q 2722 0 1819 0 
L 172 0 
L 1081 4666 
z
M 1234 2228 
L 903 519 
L 1919 519 
Q 2491 519 2800 781 
Q 3109 1044 3109 1522 
Q 3109 1891 2904 2059 
Q 2700 2228 2247 2228 
L 1234 2228 
z
M 1606 4147 
L 1331 2741 
L 2272 2741 
Q 2775 2741 3058 2959 
Q 3341 3178 3341 3566 
Q 3341 3869 3150 4008 
Q 2959 4147 2541 4147 
L 1606 4147 
z
" transform="scale(0.015625)"/>
      </defs>
      <use xlink:href="#DejaVuSans-Oblique-42" transform="translate(0 0.09375)"/>
     </g>
     <!-- [nT LMN] -->
     <g transform="translate(33.674 178.28625) rotate(-90) scale(0.16 -0.16)">
      <defs>
       <path id="DejaVuSans-5b" d="M 550 4863 
L 1875 4863 
L 1875 4416 
L 1125 4416 
L 1125 -397 
L 1875 -397 
L 1875 -844 
L 550 -844 
L 550 4863 
z
" transform="scale(0.015625)"/>
       <path id="DejaVuSans-54" d="M -19 4666 
L 3928 4666 
L 3928 4134 
L 2272 4134 
L 2272 0 
L 1638 0 
L 1638 4134 
L -19 4134 
L -19 4666 
z
" transform="scale(0.015625)"/>
       <path id="DejaVuSans-4c" d="M 628 4666 
L 1259 4666 
L 1259 531 
L 3531 531 
L 3531 0 
L 628 0 
L 628 4666 
z
" transform="scale(0.015625)"/>
       <path id="DejaVuSans-4d" d="M 628 4666 
L 1569 4666 
L 2759 1491 
L 3956 4666 
L 4897 4666 
L 4897 0 
L 4281 0 
L 4281 4097 
L 3078 897 
L 2444 897 
L 1241 4097 
L 1241 0 
L 628 0 
L 628 4666 
z
" transform="scale(0.015625)"/>
       <path id="DejaVuSans-4e" d="M 628 4666 
L 1478 4666 
L 3547 763 
L 3547 4666 
L 4159 4666 
L 4159 0 
L 3309 0 
L 1241 3903 
L 1241 0 
L 628 0 
L 628 4666 
z
" transform="scale(0.015625)"/>
       <path id="DejaVuSans-5d" d="M 1947 4863 
L 1947 -844 
L 622 -844 
L 622 -397 
L 1369 -397 
L 1369 4416 
L 622 4416 
L 622 4863 
L 1947 4863 
z
" transform="scale(0.015625)"/>
      </defs>
      <use xlink:href="#DejaVuSans-5b"/>
      <use xlink:href="#DejaVuSans-6e" x="39.013672"/>
      <use xlink:href="#DejaVuSans-54" x="102.392578"/>
      <use xlink:href="#DejaVuSans-20" x="163.476562"/>
      <use xlink:href="#DejaVuSans-4c" x="195.263672"/>
      <use xlink:href="#DejaVuSans-4d" x="250.976562"/>
      <use xlink:href="#DejaVuSans-4e" x="337.255859"/>
      <use xlink:href="#DejaVuSans-5d" x="412.060547"/>
     </g>
    </g>
   </g>
   <g id="line2d_117">
    <path d="M 95.643318 58.959632 
L 98.436775 60.053715 
L 101.230232 59.114753 
L 104.023689 57.753301 
L 106.817146 56.264219 
L 112.404064 52.648572 
L 115.197521 51.753502 
L 117.990978 50.713324 
L 120.784435 51.176979 
L 123.577892 51.527956 
L 126.371353 51.233206 
L 129.16481 50.361903 
L 131.958267 50.258208 
L 134.751724 51.964635 
L 137.545181 54.907774 
L 140.338638 57.313683 
L 143.132092 59.205836 
L 145.925556 60.595847 
L 148.719013 63.929533 
L 151.51247 70.951312 
L 154.305927 75.456955 
L 157.09938 81.309856 
L 159.892838 82.870062 
L 162.686302 83.297366 
L 165.479759 86.786099 
L 168.273216 86.656387 
L 171.066673 86.134711 
L 173.860126 86.360103 
L 176.653584 86.355449 
L 179.447041 83.854178 
L 182.240505 82.733274 
L 185.033962 77.667861 
L 187.827419 75.637159 
L 190.620872 74.941139 
L 193.41433 73.68822 
L 196.207787 73.661783 
L 199.001251 72.640719 
L 201.794708 73.485329 
L 204.588165 72.759485 
L 210.175076 69.487941 
L 212.968533 70.437267 
L 218.555454 73.413209 
L 224.142365 75.927374 
L 226.935822 76.237339 
L 232.522736 79.98185 
L 235.3162 80.670748 
L 238.109657 81.006199 
L 240.903111 79.831427 
L 243.696568 78.835336 
L 249.283482 78.060734 
L 252.076946 78.047542 
L 254.870403 79.001172 
L 257.663857 79.267986 
L 260.457314 81.666735 
L 263.250771 84.776477 
L 266.044228 86.505921 
L 268.837692 89.858268 
L 271.631149 90.146424 
L 274.424603 91.527259 
L 280.011517 99.924893 
L 285.598431 109.704553 
L 288.391895 111.318708 
L 291.185349 109.069291 
L 293.978806 108.403884 
L 296.772263 105.985021 
L 299.56572 103.94109 
L 302.359177 102.207041 
L 305.152641 99.883472 
L 307.946095 97.297903 
L 310.739552 95.475792 
L 313.533009 96.271221 
L 316.326466 94.056875 
L 319.119923 94.663618 
L 321.913387 97.899663 
L 324.706841 105.625696 
L 327.500298 113.710943 
L 330.293755 121.186885 
L 333.087212 129.418718 
L 335.880669 131.309497 
L 338.674126 130.433069 
L 341.467587 128.410682 
L 347.054501 119.168775 
L 349.847958 117.165087 
L 352.641415 119.034274 
L 355.434872 125.217693 
L 358.228333 125.081399 
L 361.02179 116.989801 
L 363.815247 105.349571 
L 366.608704 95.402732 
L 369.402161 89.273565 
L 372.195618 81.328407 
L 374.989071 78.974448 
L 377.782536 75.010364 
L 380.575993 69.700065 
L 383.36945 65.61656 
L 386.162907 58.658829 
L 388.956364 59.601524 
L 391.749817 62.170423 
L 394.543282 64.149046 
L 397.336739 77.610484 
L 402.923653 99.304783 
L 405.71711 105.029318 
L 408.510563 109.834611 
L 411.304028 111.505746 
L 414.097485 116.18057 
L 416.890942 122.532399 
L 419.684399 126.722225 
L 422.477856 131.832771 
L 425.271309 133.376835 
L 428.064766 131.178805 
L 430.858231 135.142275 
L 433.651688 144.785219 
L 436.445145 148.016764 
L 439.238602 156.578918 
L 442.032055 162.947331 
L 444.825512 165.226885 
L 447.618977 168.317215 
L 453.205891 196.680048 
L 455.999348 195.385802 
L 458.792801 193.343169 
L 461.586258 191.768816 
L 464.379723 194.366863 
L 467.17318 200.314513 
L 469.966637 202.240186 
L 472.760094 200.417439 
L 475.553547 201.775371 
L 478.347004 200.880351 
L 481.140461 197.353246 
L 483.933926 198.01832 
L 486.727383 196.768616 
L 489.52084 201.499626 
L 492.314293 208.567786 
L 495.10775 207.957466 
L 497.901207 206.889207 
L 500.694672 206.293571 
L 503.488129 208.026866 
L 506.281586 209.18156 
L 509.075039 215.325929 
L 511.868496 216.43054 
L 514.661953 215.030915 
L 523.042328 205.868217 
L 525.835785 204.05447 
L 528.629242 204.154636 
L 531.422699 205.504747 
L 534.216156 205.873243 
L 537.009621 204.42119 
L 539.803074 200.711342 
L 542.596531 193.653059 
L 545.389988 188.399661 
L 548.183445 184.089309 
L 550.976902 182.70448 
L 553.770367 185.083873 
L 556.56382 186.698661 
L 559.357277 184.726329 
L 562.150734 183.263374 
L 564.944191 184.256314 
L 567.737648 184.619028 
L 570.531105 186.537427 
L 573.324566 190.263011 
L 576.118023 198.28731 
L 578.91148 204.243773 
L 581.704937 204.014136 
L 584.498394 202.235225 
L 587.291851 197.538988 
L 590.085312 193.725389 
L 592.878769 193.530511 
L 595.672226 193.213745 
L 601.25914 194.082264 
L 604.052597 196.084724 
L 606.846058 197.1444 
L 609.639515 200.96392 
L 612.432972 205.505787 
L 615.226429 207.139273 
L 618.019886 211.849435 
L 620.813343 215.493438 
L 623.6068 216.488105 
L 626.400261 216.262823 
L 629.193718 214.596211 
L 631.987175 211.183903 
L 637.574089 206.429692 
L 640.367546 205.831243 
L 643.161007 203.349824 
L 645.954464 201.071497 
L 648.747921 199.727387 
L 651.541378 199.598744 
L 654.334835 201.755109 
L 657.128292 205.484019 
L 659.921753 210.602291 
L 662.71521 214.364229 
L 665.508667 216.905793 
L 671.095581 219.716195 
L 673.889038 220.973185 
L 676.682491 221.887579 
L 679.475956 220.418715 
L 682.269413 219.905474 
L 685.06287 220.856805 
L 690.649784 219.670592 
L 693.443237 220.266724 
L 696.236702 222.522012 
L 699.030159 223.437957 
L 701.823616 225.606439 
L 704.617073 227.46516 
L 707.41053 228.375044 
L 710.203983 228.873718 
L 712.99744 230.933934 
L 715.790905 232.400928 
L 718.584362 234.452144 
L 721.377819 232.817154 
L 724.171272 228.050751 
L 726.964729 227.49628 
L 729.758186 225.834002 
L 732.551651 223.753591 
L 735.345108 221.81446 
L 738.138565 220.206628 
L 740.932018 220.702984 
L 743.725475 220.89536 
L 746.518932 219.849588 
L 749.312397 220.822696 
L 752.105854 221.578432 
L 754.899311 220.958453 
L 757.692764 219.387201 
L 760.486221 219.302784 
L 763.279678 221.161657 
L 763.279678 221.161657 
" clip-path="url(#p89a48218c9)" style="fill: none; stroke: #0000ff; stroke-width: 2; stroke-linecap: square"/>
   </g>
   <g id="line2d_118">
    <path d="M 95.643318 234.326636 
L 98.436775 234.742109 
L 104.023689 230.727726 
L 106.817146 230.06616 
L 109.610607 227.428808 
L 112.404064 225.626766 
L 115.197521 224.4761 
L 117.990978 225.203342 
L 123.577892 224.088046 
L 126.371353 223.37002 
L 129.16481 222.423749 
L 131.958267 223.97648 
L 134.751724 228.479963 
L 140.338638 232.617072 
L 143.132092 233.906051 
L 145.925556 237.582491 
L 151.51247 247.293978 
L 154.305927 250.786089 
L 157.09938 251.901641 
L 159.892838 252.540564 
L 165.479759 252.500671 
L 168.273216 253.753716 
L 171.066673 256.127452 
L 173.860126 256.327617 
L 176.653584 254.865461 
L 182.240505 249.504375 
L 185.033962 245.890652 
L 187.827419 244.201808 
L 190.620872 242.315891 
L 193.41433 240.215419 
L 196.207787 238.644158 
L 199.001251 237.66563 
L 201.794708 236.404892 
L 204.588165 237.415876 
L 207.381618 235.920725 
L 210.175076 237.025115 
L 212.968533 240.142096 
L 215.761997 243.809629 
L 221.348911 245.818077 
L 224.142365 245.952365 
L 226.935822 245.857661 
L 229.729279 245.994484 
L 232.522736 247.583242 
L 235.3162 247.275929 
L 238.109657 246.845188 
L 240.903111 246.915328 
L 243.696568 248.684165 
L 246.490025 251.090127 
L 249.283482 251.098355 
L 254.870403 252.18381 
L 257.663857 253.14265 
L 260.457314 252.870587 
L 263.250771 253.671749 
L 266.044228 254.356666 
L 268.837692 254.640687 
L 271.631149 254.436935 
L 274.424603 255.91946 
L 277.21806 257.640086 
L 280.011517 259.991685 
L 282.804974 260.805513 
L 285.598431 260.888278 
L 288.391895 259.470315 
L 291.185349 258.503052 
L 293.978806 258.379061 
L 296.772263 258.732068 
L 302.359177 257.075892 
L 305.152641 254.128656 
L 307.946095 252.320566 
L 310.739552 252.820808 
L 313.533009 252.327542 
L 316.326466 250.561095 
L 319.119923 253.092083 
L 321.913387 256.472544 
L 324.706841 260.13477 
L 327.500298 263.570764 
L 330.293755 264.921213 
L 333.087212 265.7511 
L 335.880669 264.497234 
L 338.674126 261.453085 
L 341.467587 260.240973 
L 344.261044 260.363142 
L 349.847958 261.3345 
L 352.641415 263.69047 
L 355.434872 262.608974 
L 358.228333 258.917003 
L 361.02179 254.559143 
L 363.815247 250.748472 
L 366.608704 247.785418 
L 369.402161 243.42261 
L 372.195618 239.84616 
L 374.989071 239.160098 
L 377.782536 236.695297 
L 380.575993 231.407898 
L 383.36945 227.285477 
L 386.162907 220.922765 
L 388.956364 225.869548 
L 391.749817 236.441151 
L 394.543282 240.282166 
L 397.336739 246.885111 
L 400.130196 249.105325 
L 402.923653 256.22506 
L 405.71711 257.417502 
L 408.510563 254.884712 
L 411.304028 256.164213 
L 414.097485 258.430859 
L 416.890942 258.239899 
L 419.684399 257.517565 
L 422.477856 254.222564 
L 425.271309 257.486073 
L 428.064766 263.58863 
L 430.858231 263.669566 
L 433.651688 263.625843 
L 436.445145 266.179861 
L 439.238602 268.2 
L 442.032055 266.655595 
L 444.825512 265.361721 
L 447.618977 266.149068 
L 450.412434 263.866725 
L 453.205891 255.579811 
L 455.999348 253.356582 
L 458.792801 256.598844 
L 461.586258 260.795701 
L 464.379723 260.424023 
L 467.17318 258.333613 
L 469.966637 255.644695 
L 475.553547 252.707493 
L 478.347004 251.556788 
L 481.140461 253.483745 
L 483.933926 252.972041 
L 486.727383 252.873967 
L 489.52084 253.178976 
L 492.314293 249.052575 
L 497.901207 247.198492 
L 500.694672 248.22797 
L 503.488129 247.831972 
L 506.281586 247.112371 
L 509.075039 243.555968 
L 511.868496 241.696527 
L 514.661953 242.202181 
L 517.45541 241.755546 
L 520.248875 243.659065 
L 523.042328 244.851707 
L 525.835785 245.733379 
L 528.629242 248.013084 
L 531.422699 247.638971 
L 534.216156 246.949584 
L 537.009621 245.584416 
L 539.803074 245.622238 
L 545.389988 248.560258 
L 548.183445 252.188507 
L 550.976902 254.633096 
L 553.770367 254.983222 
L 556.56382 254.200964 
L 559.357277 254.669107 
L 562.150734 254.943102 
L 567.737648 259.862063 
L 570.531105 258.699058 
L 573.324566 258.484308 
L 576.118023 255.644775 
L 578.91148 251.820134 
L 581.704937 250.793476 
L 584.498394 250.876085 
L 587.291851 253.06344 
L 590.085312 254.653908 
L 592.878769 255.57981 
L 595.672226 254.117055 
L 598.465683 254.108757 
L 601.25914 253.696505 
L 604.052597 254.354472 
L 606.846058 253.45309 
L 609.639515 253.32424 
L 612.432972 251.45367 
L 615.226429 249.413665 
L 620.813343 240.65802 
L 623.6068 240.065203 
L 626.400261 239.864921 
L 629.193718 239.412017 
L 631.987175 240.995393 
L 634.780632 243.111008 
L 637.574089 244.50926 
L 640.367546 244.172 
L 643.161007 244.834458 
L 645.954464 244.952423 
L 648.747921 245.612639 
L 651.541378 245.05393 
L 654.334835 243.487568 
L 657.128292 242.192018 
L 665.508667 235.290962 
L 668.302124 234.176883 
L 671.095581 233.276124 
L 673.889038 232.17981 
L 676.682491 232.41791 
L 682.269413 233.680947 
L 685.06287 233.505837 
L 687.856327 234.235685 
L 690.649784 237.662934 
L 693.443237 237.904875 
L 696.236702 235.77075 
L 699.030159 236.201024 
L 704.617073 232.42652 
L 707.41053 231.492814 
L 710.203983 232.301893 
L 712.99744 230.457805 
L 715.790905 230.374405 
L 718.584362 227.51333 
L 721.377819 227.094998 
L 724.171272 230.036658 
L 726.964729 230.55316 
L 729.758186 230.926667 
L 732.551651 232.121132 
L 735.345108 235.082286 
L 738.138565 237.422037 
L 740.932018 238.771661 
L 743.725475 238.580499 
L 746.518932 239.209325 
L 749.312397 238.507562 
L 752.105854 237.986969 
L 754.899311 238.176419 
L 760.486221 240.107405 
L 763.279678 238.267765 
L 763.279678 238.267765 
" clip-path="url(#p89a48218c9)" style="fill: none; stroke: #008000; stroke-width: 2; stroke-linecap: square"/>
   </g>
   <g id="line2d_119">
    <path d="M 95.643318 138.18122 
L 98.436775 136.289117 
L 104.023689 132.084187 
L 109.610607 128.371204 
L 112.404064 127.260086 
L 115.197521 127.752585 
L 117.990978 129.415867 
L 120.784435 129.847223 
L 123.577892 130.891543 
L 126.371353 132.337032 
L 129.16481 132.435937 
L 131.958267 132.2614 
L 134.751724 134.158629 
L 137.545181 134.338788 
L 140.338638 135.273036 
L 143.132092 136.951813 
L 145.925556 139.727078 
L 148.719013 139.943928 
L 151.51247 140.507879 
L 154.305927 140.36168 
L 157.09938 138.846356 
L 159.892838 137.952879 
L 162.686302 137.806122 
L 165.479759 138.02498 
L 168.273216 139.204896 
L 171.066673 138.772782 
L 176.653584 136.412482 
L 179.447041 136.096144 
L 182.240505 134.75805 
L 185.033962 134.130554 
L 187.827419 134.419201 
L 190.620872 133.512074 
L 193.41433 132.786749 
L 196.207787 131.08486 
L 201.794708 124.449933 
L 207.381618 120.999651 
L 212.968533 118.690847 
L 215.761997 120.285622 
L 218.555454 119.217847 
L 221.348911 119.549939 
L 224.142365 120.888725 
L 229.729279 121.729429 
L 232.522736 122.053619 
L 235.3162 121.259022 
L 238.109657 118.852891 
L 240.903111 117.120549 
L 243.696568 119.533972 
L 246.490025 122.506932 
L 249.283482 124.171683 
L 252.076946 125.118909 
L 254.870403 127.683537 
L 257.663857 130.081674 
L 260.457314 130.270477 
L 263.250771 133.288615 
L 266.044228 137.328533 
L 268.837692 140.08198 
L 271.631149 139.99121 
L 274.424603 141.073807 
L 277.21806 140.451688 
L 280.011517 141.009694 
L 282.804974 142.302011 
L 285.598431 143.027064 
L 288.391895 144.056148 
L 291.185349 144.215939 
L 293.978806 143.088796 
L 299.56572 137.821121 
L 302.359177 135.703336 
L 305.152641 134.948354 
L 307.946095 134.457941 
L 310.739552 135.616083 
L 313.533009 137.091392 
L 319.119923 144.317454 
L 321.913387 145.541122 
L 324.706841 147.232386 
L 327.500298 146.124037 
L 330.293755 144.850024 
L 333.087212 141.994574 
L 335.880669 137.560419 
L 338.674126 134.99658 
L 341.467587 130.481684 
L 344.261044 128.879115 
L 347.054501 129.811263 
L 349.847958 133.3302 
L 352.641415 138.458928 
L 355.434872 146.068966 
L 358.228333 151.139681 
L 361.02179 153.602894 
L 363.815247 153.749384 
L 366.608704 152.959222 
L 369.402161 151.335917 
L 372.195618 147.987823 
L 374.989071 144.916868 
L 380.575993 140.889569 
L 383.36945 139.371409 
L 386.162907 135.924296 
L 391.749817 125.037497 
L 394.543282 121.865223 
L 397.336739 117.455007 
L 400.130196 114.696558 
L 402.923653 114.773927 
L 405.71711 110.420981 
L 408.510563 108.711409 
L 411.304028 109.693976 
L 414.097485 111.424062 
L 416.890942 113.789671 
L 419.684399 118.585187 
L 422.477856 124.069608 
L 425.271309 126.799504 
L 428.064766 128.788726 
L 430.858231 130.958412 
L 436.445145 134.071531 
L 439.238602 136.277951 
L 442.032055 138.077611 
L 444.825512 140.233898 
L 447.618977 141.723367 
L 450.412434 140.282748 
L 453.205891 139.979998 
L 455.999348 137.158785 
L 458.792801 132.027879 
L 461.586258 128.462792 
L 464.379723 128.780282 
L 467.17318 128.227665 
L 469.966637 125.716225 
L 472.760094 122.289459 
L 475.553547 122.051424 
L 478.347004 122.543909 
L 481.140461 123.853715 
L 483.933926 123.452577 
L 486.727383 126.351094 
L 489.52084 129.0428 
L 492.314293 130.834508 
L 495.10775 134.686305 
L 497.901207 135.620585 
L 500.694672 135.802018 
L 503.488129 134.863424 
L 506.281586 133.539211 
L 509.075039 131.01897 
L 511.868496 129.91455 
L 514.661953 130.936276 
L 517.45541 132.677588 
L 520.248875 130.795314 
L 523.042328 130.220655 
L 525.835785 127.534773 
L 528.629242 127.095104 
L 531.422699 129.349657 
L 534.216156 132.883371 
L 537.009621 133.557583 
L 539.803074 132.643005 
L 542.596531 127.223109 
L 545.389988 122.57136 
L 548.183445 118.168298 
L 550.976902 115.519885 
L 553.770367 115.708007 
L 556.56382 118.265051 
L 559.357277 116.018444 
L 562.150734 114.376998 
L 564.944191 114.799663 
L 567.737648 117.151974 
L 570.531105 123.068666 
L 573.324566 127.433405 
L 576.118023 132.357462 
L 578.91148 135.080732 
L 581.704937 136.700321 
L 584.498394 137.465143 
L 587.291851 135.12111 
L 590.085312 134.032182 
L 592.878769 133.509892 
L 595.672226 132.859718 
L 598.465683 131.194971 
L 601.25914 130.665324 
L 604.052597 131.163874 
L 606.846058 132.941998 
L 609.639515 135.166821 
L 612.432972 138.518024 
L 615.226429 139.547254 
L 618.019886 141.718911 
L 620.813343 143.467116 
L 623.6068 145.071122 
L 626.400261 146.297026 
L 629.193718 144.920508 
L 634.780632 139.268237 
L 640.367546 135.417525 
L 643.161007 132.565525 
L 645.954464 126.392004 
L 648.747921 121.254589 
L 651.541378 116.888944 
L 654.334835 111.795908 
L 657.128292 111.182239 
L 659.921753 114.351635 
L 662.71521 118.149504 
L 665.508667 120.041043 
L 668.302124 120.547894 
L 671.095581 121.841604 
L 673.889038 124.709288 
L 676.682491 127.104395 
L 682.269413 132.71871 
L 685.06287 134.716116 
L 690.649784 137.741562 
L 693.443237 140.616578 
L 696.236702 141.638266 
L 699.030159 142.110733 
L 701.823616 142.391089 
L 704.617073 142.194752 
L 707.41053 140.568175 
L 710.203983 137.329394 
L 712.99744 136.300765 
L 715.790905 136.020579 
L 718.584362 137.307651 
L 721.377819 138.973635 
L 724.171272 139.905122 
L 726.964729 140.654269 
L 729.758186 138.884175 
L 735.345108 134.957376 
L 738.138565 132.573821 
L 740.932018 131.82415 
L 743.725475 132.910261 
L 746.518932 135.543714 
L 749.312397 136.580052 
L 752.105854 134.998485 
L 754.899311 134.045329 
L 757.692764 132.623263 
L 763.279678 132.251926 
L 763.279678 132.251926 
" clip-path="url(#p89a48218c9)" style="fill: none; stroke: #ff0000; stroke-width: 2; stroke-linecap: square"/>
   </g>
   <g id="line2d_120">
    <path d="M 95.643318 20.084196 
L 98.436775 20.422184 
L 101.230232 21.07044 
L 104.023689 21.364122 
L 106.817146 20.579296 
L 109.610607 20.882765 
L 112.404064 20.575296 
L 115.197521 20.727211 
L 117.990978 19.685415 
L 123.577892 21.190292 
L 126.371353 21.580648 
L 129.16481 21.532686 
L 131.958267 20.442893 
L 134.751724 18.925643 
L 137.545181 19.631666 
L 140.338638 19.993344 
L 143.132092 20.491496 
L 148.719013 17.300447 
L 151.51247 17.778967 
L 154.305927 17.414794 
L 157.09938 19.474414 
L 162.686302 19.853297 
L 165.479759 21.578629 
L 168.273216 20.465803 
L 171.066673 18.104476 
L 173.860126 17.971145 
L 179.447041 20.391181 
L 182.240505 22.0093 
L 187.827419 22.654379 
L 190.620872 23.722 
L 193.41433 24.620939 
L 196.207787 25.683833 
L 199.001251 25.43227 
L 201.794708 26.417499 
L 204.588165 24.897153 
L 207.381618 24.748531 
L 212.968533 20.600784 
L 215.761997 18.910407 
L 221.348911 18.747809 
L 224.142365 19.556747 
L 226.935822 19.892327 
L 229.729279 20.836383 
L 232.522736 20.590128 
L 235.3162 21.058134 
L 238.109657 21.117077 
L 240.903111 20.083988 
L 243.696568 18.601987 
L 246.490025 16.947314 
L 249.283482 17.0054 
L 252.076946 16.699656 
L 254.870403 17.082112 
L 257.663857 16.692716 
L 260.457314 18.153542 
L 263.250771 19.270846 
L 266.044228 19.771903 
L 268.837692 21.162035 
L 271.631149 21.468789 
L 274.424603 20.766096 
L 277.21806 20.924987 
L 280.011517 20.318756 
L 282.804974 21.240896 
L 285.598431 22.651054 
L 288.391895 24.470206 
L 291.185349 24.756779 
L 293.978806 24.671409 
L 296.772263 23.533005 
L 299.56572 23.493951 
L 302.359177 23.591252 
L 305.152641 25.435303 
L 307.946095 26.060785 
L 310.739552 24.960071 
L 316.326466 26.678716 
L 319.119923 24.693035 
L 321.913387 22.875572 
L 324.706841 22.115036 
L 327.500298 21.12489 
L 333.087212 21.886058 
L 335.880669 23.182679 
L 338.674126 25.931006 
L 341.467587 26.431594 
L 344.261044 25.416014 
L 347.054501 24.197634 
L 349.847958 23.631901 
L 352.641415 22.095167 
L 355.434872 24.416276 
L 358.228333 27.848526 
L 361.02179 30.296573 
L 363.815247 30.526254 
L 366.608704 29.489421 
L 369.402161 30.684222 
L 372.195618 29.78609 
L 374.989071 29.098439 
L 377.782536 28.781131 
L 380.575993 29.543919 
L 383.36945 29.818557 
L 386.162907 29.065111 
L 388.956364 25.897088 
L 391.749817 19.358395 
L 394.543282 17.239615 
L 397.336739 19.013877 
L 400.130196 21.897305 
L 402.923653 20.085238 
L 405.71711 19.835656 
L 408.510563 23.101308 
L 414.097485 22.219722 
L 416.890942 24.327302 
L 419.684399 26.847501 
L 422.477856 31.80824 
L 425.271309 29.218487 
L 428.064766 23.262621 
L 433.651688 24.35293 
L 439.238602 19.498949 
L 442.032055 20.338292 
L 444.825512 21.337988 
L 450.412434 18.712781 
L 455.999348 23.619446 
L 458.792801 21.106983 
L 461.586258 17.472948 
L 467.17318 16.2 
L 469.966637 17.375201 
L 472.760094 18.882738 
L 475.553547 19.559807 
L 478.347004 21.06004 
L 483.933926 21.25828 
L 486.727383 22.345824 
L 489.52084 20.328423 
L 492.314293 20.628385 
L 497.901207 23.508107 
L 503.488129 22.320696 
L 506.281586 22.211154 
L 509.075039 21.488215 
L 511.868496 22.211233 
L 514.661953 22.743009 
L 517.45541 25.014284 
L 520.248875 24.988214 
L 523.042328 25.518782 
L 525.835785 25.347335 
L 528.629242 23.285669 
L 531.422699 23.229476 
L 534.216156 24.016078 
L 537.009621 25.98675 
L 539.803074 27.708266 
L 542.596531 28.932549 
L 545.389988 28.993053 
L 548.183445 26.340365 
L 550.976902 23.945897 
L 553.770367 22.89052 
L 556.56382 23.625061 
L 562.150734 23.205152 
L 564.944191 20.693817 
L 567.737648 18.895699 
L 570.531105 20.481166 
L 573.324566 20.023609 
L 576.118023 19.942616 
L 578.91148 20.813898 
L 581.704937 21.930257 
L 584.498394 22.76167 
L 590.085312 22.908544 
L 592.878769 22.099733 
L 595.672226 23.499653 
L 598.465683 23.174866 
L 601.25914 23.29908 
L 604.052597 21.9243 
L 606.846058 22.457515 
L 609.639515 21.050583 
L 612.432972 20.721553 
L 615.226429 21.701563 
L 618.019886 22.934749 
L 620.813343 24.44915 
L 623.6068 24.329481 
L 626.400261 24.610641 
L 629.193718 25.985512 
L 631.987175 26.665385 
L 634.780632 26.152891 
L 637.574089 26.146499 
L 643.161007 27.077334 
L 645.954464 27.322643 
L 648.747921 26.501645 
L 651.541378 26.107692 
L 657.128292 24.1674 
L 659.921753 24.117281 
L 662.71521 24.591932 
L 665.508667 25.352073 
L 671.095581 25.48091 
L 673.889038 26.00052 
L 676.682491 25.599705 
L 679.475956 26.457869 
L 682.269413 26.618746 
L 685.06287 26.316121 
L 687.856327 26.278273 
L 690.649784 24.090237 
L 693.443237 23.649509 
L 696.236702 23.872195 
L 699.030159 22.958768 
L 707.41053 23.075569 
L 710.203983 22.005919 
L 712.99744 21.814175 
L 715.790905 20.811603 
L 718.584362 21.373128 
L 721.377819 22.937506 
L 724.171272 24.323405 
L 726.964729 24.363978 
L 729.758186 25.172772 
L 732.551651 25.595746 
L 738.138565 23.548643 
L 740.932018 22.120199 
L 743.725475 22.253419 
L 746.518932 22.635552 
L 749.312397 22.64279 
L 752.105854 22.456771 
L 757.692764 22.702526 
L 760.486221 22.009802 
L 763.279678 22.264078 
L 763.279678 22.264078 
" clip-path="url(#p89a48218c9)" style="fill: none; stroke: #000000; stroke-width: 2; stroke-linecap: square"/>
   </g>
   <g id="patch_3">
    <path d="M 62.2615 280.8 
L 62.2615 3.6 
" style="fill: none; stroke: #000000; stroke-linejoin: miter; stroke-linecap: square"/>
   </g>
   <g id="patch_4">
    <path d="M 796.6615 280.8 
L 796.6615 3.6 
" style="fill: none; stroke: #000000; stroke-linejoin: miter; stroke-linecap: square"/>
   </g>
   <g id="patch_5">
    <path d="M 62.261497 280.8 
L 796.661499 280.8 
" style="fill: none; stroke: #000000; stroke-linejoin: miter; stroke-linecap: square"/>
   </g>
   <g id="patch_6">
    <path d="M 62.261497 3.6 
L 796.661499 3.6 
" style="fill: none; stroke: #000000; stroke-linejoin: miter; stroke-linecap: square"/>
   </g>
   <g id="legend_1">
    <g id="text_17">
     <!-- $B_l$ -->
     <g transform="translate(722.9015 30.1575) scale(0.16 -0.16)">
      <defs>
       <path id="DejaVuSans-Oblique-6c" d="M 1172 4863 
L 1747 4863 
L 800 0 
L 225 0 
L 1172 4863 
z
" transform="scale(0.015625)"/>
      </defs>
      <use xlink:href="#DejaVuSans-Oblique-42" transform="translate(0 0.09375)"/>
      <use xlink:href="#DejaVuSans-Oblique-6c" transform="translate(68.603516 -16.3125) scale(0.7)"/>
     </g>
    </g>
    <g id="line2d_121">
     <path d="M 750.2615 24.5575 
L 766.2615 24.5575 
L 782.2615 24.5575 
" style="fill: none; stroke: #0000ff; stroke-width: 4; stroke-linecap: square"/>
    </g>
    <g id="text_18">
     <!-- $B_m$ -->
     <g transform="translate(715.0615 53.6425) scale(0.16 -0.16)">
      <defs>
       <path id="DejaVuSans-Oblique-6d" d="M 5747 2113 
L 5338 0 
L 4763 0 
L 5166 2094 
Q 5191 2228 5203 2325 
Q 5216 2422 5216 2491 
Q 5216 2772 5059 2928 
Q 4903 3084 4622 3084 
Q 4203 3084 3875 2770 
Q 3547 2456 3450 1953 
L 3066 0 
L 2491 0 
L 2900 2094 
Q 2925 2209 2937 2307 
Q 2950 2406 2950 2484 
Q 2950 2769 2794 2926 
Q 2638 3084 2363 3084 
Q 1938 3084 1609 2770 
Q 1281 2456 1184 1953 
L 800 0 
L 225 0 
L 909 3500 
L 1484 3500 
L 1375 2956 
Q 1609 3263 1923 3423 
Q 2238 3584 2597 3584 
Q 2978 3584 3223 3384 
Q 3469 3184 3519 2828 
Q 3781 3197 4126 3390 
Q 4472 3584 4856 3584 
Q 5306 3584 5551 3325 
Q 5797 3066 5797 2591 
Q 5797 2488 5784 2364 
Q 5772 2241 5747 2113 
z
" transform="scale(0.015625)"/>
      </defs>
      <use xlink:href="#DejaVuSans-Oblique-42" transform="translate(0 0.09375)"/>
      <use xlink:href="#DejaVuSans-Oblique-6d" transform="translate(68.603516 -16.3125) scale(0.7)"/>
     </g>
    </g>
    <g id="line2d_122">
     <path d="M 750.2615 48.0425 
L 766.2615 48.0425 
L 782.2615 48.0425 
" style="fill: none; stroke: #008000; stroke-width: 4; stroke-linecap: square"/>
    </g>
    <g id="text_19">
     <!-- $B_n$ -->
     <g transform="translate(718.9015 77.1275) scale(0.16 -0.16)">
      <defs>
       <path id="DejaVuSans-Oblique-6e" d="M 3566 2113 
L 3156 0 
L 2578 0 
L 2988 2091 
Q 3016 2238 3031 2350 
Q 3047 2463 3047 2528 
Q 3047 2791 2881 2937 
Q 2716 3084 2419 3084 
Q 1956 3084 1622 2776 
Q 1288 2469 1184 1941 
L 800 0 
L 225 0 
L 903 3500 
L 1478 3500 
L 1363 2950 
Q 1603 3253 1940 3418 
Q 2278 3584 2650 3584 
Q 3113 3584 3367 3334 
Q 3622 3084 3622 2631 
Q 3622 2519 3608 2391 
Q 3594 2263 3566 2113 
z
" transform="scale(0.015625)"/>
      </defs>
      <use xlink:href="#DejaVuSans-Oblique-42" transform="translate(0 0.09375)"/>
      <use xlink:href="#DejaVuSans-Oblique-6e" transform="translate(68.603516 -16.3125) scale(0.7)"/>
     </g>
    </g>
    <g id="line2d_123">
     <path d="M 750.2615 71.5275 
L 766.2615 71.5275 
L 782.2615 71.5275 
" style="fill: none; stroke: #ff0000; stroke-width: 4; stroke-linecap: square"/>
    </g>
    <g id="text_20">
     <!-- $B_{total}$ -->
     <g transform="translate(700.3415 100.6125) scale(0.16 -0.16)">
      <defs>
       <path id="DejaVuSans-Oblique-74" d="M 2706 3500 
L 2619 3053 
L 1472 3053 
L 1100 1153 
Q 1081 1047 1072 975 
Q 1063 903 1063 863 
Q 1063 663 1183 572 
Q 1303 481 1569 481 
L 2150 481 
L 2053 0 
L 1503 0 
Q 991 0 739 200 
Q 488 400 488 806 
Q 488 878 497 964 
Q 506 1050 525 1153 
L 897 3053 
L 409 3053 
L 500 3500 
L 978 3500 
L 1172 4494 
L 1747 4494 
L 1556 3500 
L 2706 3500 
z
" transform="scale(0.015625)"/>
       <path id="DejaVuSans-Oblique-6f" d="M 1625 -91 
Q 1009 -91 651 289 
Q 294 669 294 1325 
Q 294 1706 417 2101 
Q 541 2497 738 2766 
Q 1047 3184 1428 3384 
Q 1809 3584 2291 3584 
Q 2888 3584 3255 3212 
Q 3622 2841 3622 2241 
Q 3622 1825 3500 1412 
Q 3378 1000 3181 728 
Q 2875 309 2494 109 
Q 2113 -91 1625 -91 
z
M 891 1344 
Q 891 869 1089 633 
Q 1288 397 1691 397 
Q 2269 397 2648 901 
Q 3028 1406 3028 2181 
Q 3028 2634 2825 2865 
Q 2622 3097 2228 3097 
Q 1903 3097 1650 2945 
Q 1397 2794 1197 2484 
Q 1050 2253 970 1956 
Q 891 1659 891 1344 
z
" transform="scale(0.015625)"/>
       <path id="DejaVuSans-Oblique-61" d="M 3438 1997 
L 3047 0 
L 2472 0 
L 2578 531 
Q 2325 219 2001 64 
Q 1678 -91 1281 -91 
Q 834 -91 548 182 
Q 263 456 263 884 
Q 263 1497 752 1853 
Q 1241 2209 2100 2209 
L 2900 2209 
L 2931 2363 
Q 2938 2388 2941 2417 
Q 2944 2447 2944 2509 
Q 2944 2788 2717 2942 
Q 2491 3097 2081 3097 
Q 1800 3097 1504 3025 
Q 1209 2953 897 2809 
L 997 3341 
Q 1322 3463 1633 3523 
Q 1944 3584 2234 3584 
Q 2853 3584 3176 3315 
Q 3500 3047 3500 2534 
Q 3500 2431 3484 2292 
Q 3469 2153 3438 1997 
z
M 2816 1759 
L 2241 1759 
Q 1534 1759 1195 1570 
Q 856 1381 856 984 
Q 856 709 1029 553 
Q 1203 397 1509 397 
Q 1978 397 2328 733 
Q 2678 1069 2791 1631 
L 2816 1759 
z
" transform="scale(0.015625)"/>
      </defs>
      <use xlink:href="#DejaVuSans-Oblique-42" transform="translate(0 0.09375)"/>
      <use xlink:href="#DejaVuSans-Oblique-74" transform="translate(68.603516 -16.3125) scale(0.7)"/>
      <use xlink:href="#DejaVuSans-Oblique-6f" transform="translate(96.049805 -16.3125) scale(0.7)"/>
      <use xlink:href="#DejaVuSans-Oblique-74" transform="translate(138.876953 -16.3125) scale(0.7)"/>
      <use xlink:href="#DejaVuSans-Oblique-61" transform="translate(166.323242 -16.3125) scale(0.7)"/>
      <use xlink:href="#DejaVuSans-Oblique-6c" transform="translate(209.21875 -16.3125) scale(0.7)"/>
     </g>
    </g>
    <g id="line2d_124">
     <path d="M 750.2615 95.0125 
L 766.2615 95.0125 
L 782.2615 95.0125 
" style="fill: none; stroke: #000000; stroke-width: 4; stroke-linecap: square"/>
    </g>
   </g>
  </g>
 </g>
 <defs>
  <clipPath id="p89a48218c9">
   <rect x="62.2615" y="3.6" width="734.4" height="277.2"/>
  </clipPath>
 </defs>
</svg>
