<?xml version="1.0" encoding="utf-8" standalone="no"?>
<!DOCTYPE svg PUBLIC "-//W3C//DTD SVG 1.1//EN"
  "http://www.w3.org/Graphics/SVG/1.1/DTD/svg11.dtd">
<svg xmlns:xlink="http://www.w3.org/1999/xlink" width="800.2615pt" height="317.99875pt" viewBox="0 0 800.2615 317.99875" xmlns="http://www.w3.org/2000/svg" version="1.1">
 <metadata>
  <rdf:RDF xmlns:dc="http://purl.org/dc/elements/1.1/" xmlns:cc="http://creativecommons.org/ns#" xmlns:rdf="http://www.w3.org/1999/02/22-rdf-syntax-ns#">
   <cc:Work>
    <dc:type rdf:resource="http://purl.org/dc/dcmitype/StillImage"/>
    <dc:date>2024-01-10T20:17:20.476410</dc:date>
    <dc:format>image/svg+xml</dc:format>
    <dc:creator>
     <cc:Agent>
      <dc:title>Matplotlib v3.7.3, https://matplotlib.org/</dc:title>
     </cc:Agent>
    </dc:creator>
   </cc:Work>
  </rdf:RDF>
 </metadata>
 <defs>
  <style type="text/css">*{stroke-linejoin: round; stroke-linecap: butt}</style>
 </defs>
 <g id="figure_1">
  <g id="patch_1">
   <path d="M 0 317.99875 
L 800.2615 317.99875 
L 800.2615 0 
L 0 0 
z
" style="fill: #ffffff"/>
  </g>
  <g id="axes_1">
   <g id="patch_2">
    <path d="M 62.2615 280.8 
L 796.6615 280.8 
L 796.6615 3.6 
L 62.2615 3.6 
z
" style="fill: #ffffff"/>
   </g>
   <g id="matplotlib.axis_1">
    <g id="xtick_1">
     <g id="line2d_1">
      <defs>
       <path id="m0debce960c" d="M 0 0 
L 0 -6 
" style="stroke: #000000"/>
      </defs>
      <g>
       <use xlink:href="#m0debce960c" x="93.162727" y="280.8" style="stroke: #000000"/>
      </g>
     </g>
     <g id="line2d_2">
      <defs>
       <path id="m7f68191947" d="M 0 0 
L 0 6 
" style="stroke: #000000"/>
      </defs>
      <g>
       <use xlink:href="#m7f68191947" x="93.162727" y="3.6" style="stroke: #000000"/>
      </g>
     </g>
     <g id="text_1">
      <text style="font: 12px 'DejaVu Sans', 'Arial', 'Helvetica', 'Lucida Grande', 'Verdana', 'Geneva', 'Lucid', 'Avant Garde', sans-serif; text-anchor: middle" x="93.162727" y="293.418125" transform="rotate(-0 93.162727 293.418125)">20</text>
     </g>
    </g>
    <g id="xtick_2">
     <g id="line2d_3">
      <g>
       <use xlink:href="#m0debce960c" x="204.901028" y="280.8" style="stroke: #000000"/>
      </g>
     </g>
     <g id="line2d_4">
      <g>
       <use xlink:href="#m7f68191947" x="204.901028" y="3.6" style="stroke: #000000"/>
      </g>
     </g>
     <g id="text_2">
      <text style="font: 12px 'DejaVu Sans', 'Arial', 'Helvetica', 'Lucida Grande', 'Verdana', 'Geneva', 'Lucid', 'Avant Garde', sans-serif; text-anchor: middle" x="204.901028" y="293.418125" transform="rotate(-0 204.901028 293.418125)">25</text>
     </g>
    </g>
    <g id="xtick_3">
     <g id="line2d_5">
      <g>
       <use xlink:href="#m0debce960c" x="316.639328" y="280.8" style="stroke: #000000"/>
      </g>
     </g>
     <g id="line2d_6">
      <g>
       <use xlink:href="#m7f68191947" x="316.639328" y="3.6" style="stroke: #000000"/>
      </g>
     </g>
     <g id="text_3">
      <text style="font: 12px 'DejaVu Sans', 'Arial', 'Helvetica', 'Lucida Grande', 'Verdana', 'Geneva', 'Lucid', 'Avant Garde', sans-serif; text-anchor: middle" x="316.639328" y="293.418125" transform="rotate(-0 316.639328 293.418125)">30</text>
     </g>
    </g>
    <g id="xtick_4">
     <g id="line2d_7">
      <g>
       <use xlink:href="#m0debce960c" x="428.37764" y="280.8" style="stroke: #000000"/>
      </g>
     </g>
     <g id="line2d_8">
      <g>
       <use xlink:href="#m7f68191947" x="428.37764" y="3.6" style="stroke: #000000"/>
      </g>
     </g>
     <g id="text_4">
      <text style="font: 12px 'DejaVu Sans', 'Arial', 'Helvetica', 'Lucida Grande', 'Verdana', 'Geneva', 'Lucid', 'Avant Garde', sans-serif; text-anchor: middle" x="428.37764" y="293.418125" transform="rotate(-0 428.37764 293.418125)">35</text>
     </g>
    </g>
    <g id="xtick_5">
     <g id="line2d_9">
      <g>
       <use xlink:href="#m0debce960c" x="540.11594" y="280.8" style="stroke: #000000"/>
      </g>
     </g>
     <g id="line2d_10">
      <g>
       <use xlink:href="#m7f68191947" x="540.11594" y="3.6" style="stroke: #000000"/>
      </g>
     </g>
     <g id="text_5">
      <text style="font: 12px 'DejaVu Sans', 'Arial', 'Helvetica', 'Lucida Grande', 'Verdana', 'Geneva', 'Lucid', 'Avant Garde', sans-serif; text-anchor: middle" x="540.11594" y="293.418125" transform="rotate(-0 540.11594 293.418125)">40</text>
     </g>
    </g>
    <g id="xtick_6">
     <g id="line2d_11">
      <g>
       <use xlink:href="#m0debce960c" x="651.85424" y="280.8" style="stroke: #000000"/>
      </g>
     </g>
     <g id="line2d_12">
      <g>
       <use xlink:href="#m7f68191947" x="651.85424" y="3.6" style="stroke: #000000"/>
      </g>
     </g>
     <g id="text_6">
      <text style="font: 12px 'DejaVu Sans', 'Arial', 'Helvetica', 'Lucida Grande', 'Verdana', 'Geneva', 'Lucid', 'Avant Garde', sans-serif; text-anchor: middle" x="651.85424" y="293.418125" transform="rotate(-0 651.85424 293.418125)">45</text>
     </g>
    </g>
    <g id="xtick_7">
     <g id="line2d_13">
      <g>
       <use xlink:href="#m0debce960c" x="763.592552" y="280.8" style="stroke: #000000"/>
      </g>
     </g>
     <g id="line2d_14">
      <g>
       <use xlink:href="#m7f68191947" x="763.592552" y="3.6" style="stroke: #000000"/>
      </g>
     </g>
     <g id="text_7">
      <text style="font: 12px 'DejaVu Sans', 'Arial', 'Helvetica', 'Lucida Grande', 'Verdana', 'Geneva', 'Lucid', 'Avant Garde', sans-serif; text-anchor: middle" x="763.592552" y="293.418125" transform="rotate(-0 763.592552 293.418125)">50</text>
     </g>
    </g>
    <g id="xtick_8">
     <g id="line2d_15">
      <defs>
       <path id="m3e9d782b3b" d="M 0 0 
L 0 -3 
" style="stroke: #000000"/>
      </defs>
      <g>
       <use xlink:href="#m3e9d782b3b" x="65.228149" y="280.8" style="stroke: #000000"/>
      </g>
     </g>
     <g id="line2d_16">
      <defs>
       <path id="mcc38201970" d="M 0 0 
L 0 3 
" style="stroke: #000000"/>
      </defs>
      <g>
       <use xlink:href="#mcc38201970" x="65.228149" y="3.6" style="stroke: #000000"/>
      </g>
     </g>
    </g>
    <g id="xtick_9">
     <g id="line2d_17">
      <g>
       <use xlink:href="#m3e9d782b3b" x="121.097305" y="280.8" style="stroke: #000000"/>
      </g>
     </g>
     <g id="line2d_18">
      <g>
       <use xlink:href="#mcc38201970" x="121.097305" y="3.6" style="stroke: #000000"/>
      </g>
     </g>
    </g>
    <g id="xtick_10">
     <g id="line2d_19">
      <g>
       <use xlink:href="#m3e9d782b3b" x="149.031876" y="280.8" style="stroke: #000000"/>
      </g>
     </g>
     <g id="line2d_20">
      <g>
       <use xlink:href="#mcc38201970" x="149.031876" y="3.6" style="stroke: #000000"/>
      </g>
     </g>
    </g>
    <g id="xtick_11">
     <g id="line2d_21">
      <g>
       <use xlink:href="#m3e9d782b3b" x="176.96645" y="280.8" style="stroke: #000000"/>
      </g>
     </g>
     <g id="line2d_22">
      <g>
       <use xlink:href="#mcc38201970" x="176.96645" y="3.6" style="stroke: #000000"/>
      </g>
     </g>
    </g>
    <g id="xtick_12">
     <g id="line2d_23">
      <g>
       <use xlink:href="#m3e9d782b3b" x="232.835606" y="280.8" style="stroke: #000000"/>
      </g>
     </g>
     <g id="line2d_24">
      <g>
       <use xlink:href="#mcc38201970" x="232.835606" y="3.6" style="stroke: #000000"/>
      </g>
     </g>
    </g>
    <g id="xtick_13">
     <g id="line2d_25">
      <g>
       <use xlink:href="#m3e9d782b3b" x="260.77018" y="280.8" style="stroke: #000000"/>
      </g>
     </g>
     <g id="line2d_26">
      <g>
       <use xlink:href="#mcc38201970" x="260.77018" y="3.6" style="stroke: #000000"/>
      </g>
     </g>
    </g>
    <g id="xtick_14">
     <g id="line2d_27">
      <g>
       <use xlink:href="#m3e9d782b3b" x="288.70475" y="280.8" style="stroke: #000000"/>
      </g>
     </g>
     <g id="line2d_28">
      <g>
       <use xlink:href="#mcc38201970" x="288.70475" y="3.6" style="stroke: #000000"/>
      </g>
     </g>
    </g>
    <g id="xtick_15">
     <g id="line2d_29">
      <g>
       <use xlink:href="#m3e9d782b3b" x="344.57391" y="280.8" style="stroke: #000000"/>
      </g>
     </g>
     <g id="line2d_30">
      <g>
       <use xlink:href="#mcc38201970" x="344.57391" y="3.6" style="stroke: #000000"/>
      </g>
     </g>
    </g>
    <g id="xtick_16">
     <g id="line2d_31">
      <g>
       <use xlink:href="#m3e9d782b3b" x="372.50848" y="280.8" style="stroke: #000000"/>
      </g>
     </g>
     <g id="line2d_32">
      <g>
       <use xlink:href="#mcc38201970" x="372.50848" y="3.6" style="stroke: #000000"/>
      </g>
     </g>
    </g>
    <g id="xtick_17">
     <g id="line2d_33">
      <g>
       <use xlink:href="#m3e9d782b3b" x="400.443054" y="280.8" style="stroke: #000000"/>
      </g>
     </g>
     <g id="line2d_34">
      <g>
       <use xlink:href="#mcc38201970" x="400.443054" y="3.6" style="stroke: #000000"/>
      </g>
     </g>
    </g>
    <g id="xtick_18">
     <g id="line2d_35">
      <g>
       <use xlink:href="#m3e9d782b3b" x="456.31221" y="280.8" style="stroke: #000000"/>
      </g>
     </g>
     <g id="line2d_36">
      <g>
       <use xlink:href="#mcc38201970" x="456.31221" y="3.6" style="stroke: #000000"/>
      </g>
     </g>
    </g>
    <g id="xtick_19">
     <g id="line2d_37">
      <g>
       <use xlink:href="#m3e9d782b3b" x="484.24678" y="280.8" style="stroke: #000000"/>
      </g>
     </g>
     <g id="line2d_38">
      <g>
       <use xlink:href="#mcc38201970" x="484.24678" y="3.6" style="stroke: #000000"/>
      </g>
     </g>
    </g>
    <g id="xtick_20">
     <g id="line2d_39">
      <g>
       <use xlink:href="#m3e9d782b3b" x="512.181355" y="280.8" style="stroke: #000000"/>
      </g>
     </g>
     <g id="line2d_40">
      <g>
       <use xlink:href="#mcc38201970" x="512.181355" y="3.6" style="stroke: #000000"/>
      </g>
     </g>
    </g>
    <g id="xtick_21">
     <g id="line2d_41">
      <g>
       <use xlink:href="#m3e9d782b3b" x="568.05051" y="280.8" style="stroke: #000000"/>
      </g>
     </g>
     <g id="line2d_42">
      <g>
       <use xlink:href="#mcc38201970" x="568.05051" y="3.6" style="stroke: #000000"/>
      </g>
     </g>
    </g>
    <g id="xtick_22">
     <g id="line2d_43">
      <g>
       <use xlink:href="#m3e9d782b3b" x="595.985085" y="280.8" style="stroke: #000000"/>
      </g>
     </g>
     <g id="line2d_44">
      <g>
       <use xlink:href="#mcc38201970" x="595.985085" y="3.6" style="stroke: #000000"/>
      </g>
     </g>
    </g>
    <g id="xtick_23">
     <g id="line2d_45">
      <g>
       <use xlink:href="#m3e9d782b3b" x="623.919655" y="280.8" style="stroke: #000000"/>
      </g>
     </g>
     <g id="line2d_46">
      <g>
       <use xlink:href="#mcc38201970" x="623.919655" y="3.6" style="stroke: #000000"/>
      </g>
     </g>
    </g>
    <g id="xtick_24">
     <g id="line2d_47">
      <g>
       <use xlink:href="#m3e9d782b3b" x="679.788815" y="280.8" style="stroke: #000000"/>
      </g>
     </g>
     <g id="line2d_48">
      <g>
       <use xlink:href="#mcc38201970" x="679.788815" y="3.6" style="stroke: #000000"/>
      </g>
     </g>
    </g>
    <g id="xtick_25">
     <g id="line2d_49">
      <g>
       <use xlink:href="#m3e9d782b3b" x="707.723385" y="280.8" style="stroke: #000000"/>
      </g>
     </g>
     <g id="line2d_50">
      <g>
       <use xlink:href="#mcc38201970" x="707.723385" y="3.6" style="stroke: #000000"/>
      </g>
     </g>
    </g>
    <g id="xtick_26">
     <g id="line2d_51">
      <g>
       <use xlink:href="#m3e9d782b3b" x="735.657959" y="280.8" style="stroke: #000000"/>
      </g>
     </g>
     <g id="line2d_52">
      <g>
       <use xlink:href="#mcc38201970" x="735.657959" y="3.6" style="stroke: #000000"/>
      </g>
     </g>
    </g>
    <g id="xtick_27">
     <g id="line2d_53">
      <g>
       <use xlink:href="#m3e9d782b3b" x="791.527115" y="280.8" style="stroke: #000000"/>
      </g>
     </g>
     <g id="line2d_54">
      <g>
       <use xlink:href="#mcc38201970" x="791.527115" y="3.6" style="stroke: #000000"/>
      </g>
     </g>
    </g>
    <g id="text_8">
     <text style="font: 16px 'DejaVu Sans', 'Arial', 'Helvetica', 'Lucida Grande', 'Verdana', 'Geneva', 'Lucid', 'Avant Garde', sans-serif; text-anchor: end" x="796.6615" y="311.07125" transform="rotate(-0 796.6615 311.07125)">2016-Jun-28 11:46</text>
    </g>
   </g>
   <g id="matplotlib.axis_2">
    <g id="ytick_1">
     <g id="line2d_55">
      <defs>
       <path id="m55cbb2f638" d="M 0 0 
L 6 0 
" style="stroke: #000000"/>
      </defs>
      <g>
       <use xlink:href="#m55cbb2f638" x="62.2615" y="250.335915" style="stroke: #000000"/>
      </g>
     </g>
     <g id="line2d_56">
      <defs>
       <path id="m7b6c489402" d="M 0 0 
L -6 0 
" style="stroke: #000000"/>
      </defs>
      <g>
       <use xlink:href="#m7b6c489402" x="796.6615" y="250.335915" style="stroke: #000000"/>
      </g>
     </g>
     <g id="text_9">
      <!-- $\mathdefault{−6}$ -->
      <g transform="translate(41.0015 254.894977)">
       <text>
        <tspan style="font: 12px 'DejaVu Sans'" x="0 10.054688" y="-0.09375">−6</tspan>
       </text>
      </g>
     </g>
    </g>
    <g id="ytick_2">
     <g id="line2d_57">
      <g>
       <use xlink:href="#m55cbb2f638" x="62.2615" y="214.984702" style="stroke: #000000"/>
      </g>
     </g>
     <g id="line2d_58">
      <g>
       <use xlink:href="#m7b6c489402" x="796.6615" y="214.984702" style="stroke: #000000"/>
      </g>
     </g>
     <g id="text_10">
      <!-- $\mathdefault{−4}$ -->
      <g transform="translate(41.0015 219.543764)">
       <text>
        <tspan style="font: 12px 'DejaVu Sans'" x="0 10.054688" y="-0.25">−4</tspan>
       </text>
      </g>
     </g>
    </g>
    <g id="ytick_3">
     <g id="line2d_59">
      <g>
       <use xlink:href="#m55cbb2f638" x="62.2615" y="179.633489" style="stroke: #000000"/>
      </g>
     </g>
     <g id="line2d_60">
      <g>
       <use xlink:href="#m7b6c489402" x="796.6615" y="179.633489" style="stroke: #000000"/>
      </g>
     </g>
     <g id="text_11">
      <!-- $\mathdefault{−2}$ -->
      <g transform="translate(41.0015 184.192552)">
       <text>
        <tspan style="font: 12px 'DejaVu Sans'" x="0 10.054688" y="-0.09375">−2</tspan>
       </text>
      </g>
     </g>
    </g>
    <g id="ytick_4">
     <g id="line2d_61">
      <g>
       <use xlink:href="#m55cbb2f638" x="62.2615" y="144.282276" style="stroke: #000000"/>
      </g>
     </g>
     <g id="line2d_62">
      <g>
       <use xlink:href="#m7b6c489402" x="796.6615" y="144.282276" style="stroke: #000000"/>
      </g>
     </g>
     <g id="text_12">
      <!-- $\mathdefault{0}$ -->
      <g transform="translate(51.0815 148.841339)">
       <text>
        <tspan style="font: 12px 'DejaVu Sans'" x="0" y="-0.09375">0</tspan>
       </text>
      </g>
     </g>
    </g>
    <g id="ytick_5">
     <g id="line2d_63">
      <g>
       <use xlink:href="#m55cbb2f638" x="62.2615" y="108.931063" style="stroke: #000000"/>
      </g>
     </g>
     <g id="line2d_64">
      <g>
       <use xlink:href="#m7b6c489402" x="796.6615" y="108.931063" style="stroke: #000000"/>
      </g>
     </g>
     <g id="text_13">
      <!-- $\mathdefault{2}$ -->
      <g transform="translate(51.0815 113.490126)">
       <text>
        <tspan style="font: 12px 'DejaVu Sans'" x="0" y="-0.09375">2</tspan>
       </text>
      </g>
     </g>
    </g>
    <g id="ytick_6">
     <g id="line2d_65">
      <g>
       <use xlink:href="#m55cbb2f638" x="62.2615" y="73.579851" style="stroke: #000000"/>
      </g>
     </g>
     <g id="line2d_66">
      <g>
       <use xlink:href="#m7b6c489402" x="796.6615" y="73.579851" style="stroke: #000000"/>
      </g>
     </g>
     <g id="text_14">
      <!-- $\mathdefault{4}$ -->
      <g transform="translate(51.0815 78.138913)">
       <text>
        <tspan style="font: 12px 'DejaVu Sans'" x="0" y="-0.25">4</tspan>
       </text>
      </g>
     </g>
    </g>
    <g id="ytick_7">
     <g id="line2d_67">
      <g>
       <use xlink:href="#m55cbb2f638" x="62.2615" y="38.228638" style="stroke: #000000"/>
      </g>
     </g>
     <g id="line2d_68">
      <g>
       <use xlink:href="#m7b6c489402" x="796.6615" y="38.228638" style="stroke: #000000"/>
      </g>
     </g>
     <g id="text_15">
      <!-- $\mathdefault{6}$ -->
      <g transform="translate(51.0815 42.7877)">
       <text>
        <tspan style="font: 12px 'DejaVu Sans'" x="0" y="-0.09375">6</tspan>
       </text>
      </g>
     </g>
    </g>
    <g id="ytick_8">
     <g id="line2d_69">
      <defs>
       <path id="mfa5e7e5b27" d="M 0 0 
L 3 0 
" style="stroke: #000000"/>
      </defs>
      <g>
       <use xlink:href="#mfa5e7e5b27" x="62.2615" y="276.849324" style="stroke: #000000"/>
      </g>
     </g>
     <g id="line2d_70">
      <defs>
       <path id="m6b4d433985" d="M 0 0 
L -3 0 
" style="stroke: #000000"/>
      </defs>
      <g>
       <use xlink:href="#m6b4d433985" x="796.6615" y="276.849324" style="stroke: #000000"/>
      </g>
     </g>
    </g>
    <g id="ytick_9">
     <g id="line2d_71">
      <g>
       <use xlink:href="#mfa5e7e5b27" x="62.2615" y="268.011521" style="stroke: #000000"/>
      </g>
     </g>
     <g id="line2d_72">
      <g>
       <use xlink:href="#m6b4d433985" x="796.6615" y="268.011521" style="stroke: #000000"/>
      </g>
     </g>
    </g>
    <g id="ytick_10">
     <g id="line2d_73">
      <g>
       <use xlink:href="#mfa5e7e5b27" x="62.2615" y="259.173718" style="stroke: #000000"/>
      </g>
     </g>
     <g id="line2d_74">
      <g>
       <use xlink:href="#m6b4d433985" x="796.6615" y="259.173718" style="stroke: #000000"/>
      </g>
     </g>
    </g>
    <g id="ytick_11">
     <g id="line2d_75">
      <g>
       <use xlink:href="#mfa5e7e5b27" x="62.2615" y="241.498112" style="stroke: #000000"/>
      </g>
     </g>
     <g id="line2d_76">
      <g>
       <use xlink:href="#m6b4d433985" x="796.6615" y="241.498112" style="stroke: #000000"/>
      </g>
     </g>
    </g>
    <g id="ytick_12">
     <g id="line2d_77">
      <g>
       <use xlink:href="#mfa5e7e5b27" x="62.2615" y="232.660308" style="stroke: #000000"/>
      </g>
     </g>
     <g id="line2d_78">
      <g>
       <use xlink:href="#m6b4d433985" x="796.6615" y="232.660308" style="stroke: #000000"/>
      </g>
     </g>
    </g>
    <g id="ytick_13">
     <g id="line2d_79">
      <g>
       <use xlink:href="#mfa5e7e5b27" x="62.2615" y="223.822505" style="stroke: #000000"/>
      </g>
     </g>
     <g id="line2d_80">
      <g>
       <use xlink:href="#m6b4d433985" x="796.6615" y="223.822505" style="stroke: #000000"/>
      </g>
     </g>
    </g>
    <g id="ytick_14">
     <g id="line2d_81">
      <g>
       <use xlink:href="#mfa5e7e5b27" x="62.2615" y="206.146899" style="stroke: #000000"/>
      </g>
     </g>
     <g id="line2d_82">
      <g>
       <use xlink:href="#m6b4d433985" x="796.6615" y="206.146899" style="stroke: #000000"/>
      </g>
     </g>
    </g>
    <g id="ytick_15">
     <g id="line2d_83">
      <g>
       <use xlink:href="#mfa5e7e5b27" x="62.2615" y="197.309096" style="stroke: #000000"/>
      </g>
     </g>
     <g id="line2d_84">
      <g>
       <use xlink:href="#m6b4d433985" x="796.6615" y="197.309096" style="stroke: #000000"/>
      </g>
     </g>
    </g>
    <g id="ytick_16">
     <g id="line2d_85">
      <g>
       <use xlink:href="#mfa5e7e5b27" x="62.2615" y="188.471292" style="stroke: #000000"/>
      </g>
     </g>
     <g id="line2d_86">
      <g>
       <use xlink:href="#m6b4d433985" x="796.6615" y="188.471292" style="stroke: #000000"/>
      </g>
     </g>
    </g>
    <g id="ytick_17">
     <g id="line2d_87">
      <g>
       <use xlink:href="#mfa5e7e5b27" x="62.2615" y="170.795686" style="stroke: #000000"/>
      </g>
     </g>
     <g id="line2d_88">
      <g>
       <use xlink:href="#m6b4d433985" x="796.6615" y="170.795686" style="stroke: #000000"/>
      </g>
     </g>
    </g>
    <g id="ytick_18">
     <g id="line2d_89">
      <g>
       <use xlink:href="#mfa5e7e5b27" x="62.2615" y="161.957883" style="stroke: #000000"/>
      </g>
     </g>
     <g id="line2d_90">
      <g>
       <use xlink:href="#m6b4d433985" x="796.6615" y="161.957883" style="stroke: #000000"/>
      </g>
     </g>
    </g>
    <g id="ytick_19">
     <g id="line2d_91">
      <g>
       <use xlink:href="#mfa5e7e5b27" x="62.2615" y="153.120079" style="stroke: #000000"/>
      </g>
     </g>
     <g id="line2d_92">
      <g>
       <use xlink:href="#m6b4d433985" x="796.6615" y="153.120079" style="stroke: #000000"/>
      </g>
     </g>
    </g>
    <g id="ytick_20">
     <g id="line2d_93">
      <g>
       <use xlink:href="#mfa5e7e5b27" x="62.2615" y="135.444473" style="stroke: #000000"/>
      </g>
     </g>
     <g id="line2d_94">
      <g>
       <use xlink:href="#m6b4d433985" x="796.6615" y="135.444473" style="stroke: #000000"/>
      </g>
     </g>
    </g>
    <g id="ytick_21">
     <g id="line2d_95">
      <g>
       <use xlink:href="#mfa5e7e5b27" x="62.2615" y="126.60667" style="stroke: #000000"/>
      </g>
     </g>
     <g id="line2d_96">
      <g>
       <use xlink:href="#m6b4d433985" x="796.6615" y="126.60667" style="stroke: #000000"/>
      </g>
     </g>
    </g>
    <g id="ytick_22">
     <g id="line2d_97">
      <g>
       <use xlink:href="#mfa5e7e5b27" x="62.2615" y="117.768867" style="stroke: #000000"/>
      </g>
     </g>
     <g id="line2d_98">
      <g>
       <use xlink:href="#m6b4d433985" x="796.6615" y="117.768867" style="stroke: #000000"/>
      </g>
     </g>
    </g>
    <g id="ytick_23">
     <g id="line2d_99">
      <g>
       <use xlink:href="#mfa5e7e5b27" x="62.2615" y="100.09326" style="stroke: #000000"/>
      </g>
     </g>
     <g id="line2d_100">
      <g>
       <use xlink:href="#m6b4d433985" x="796.6615" y="100.09326" style="stroke: #000000"/>
      </g>
     </g>
    </g>
    <g id="ytick_24">
     <g id="line2d_101">
      <g>
       <use xlink:href="#mfa5e7e5b27" x="62.2615" y="91.255457" style="stroke: #000000"/>
      </g>
     </g>
     <g id="line2d_102">
      <g>
       <use xlink:href="#m6b4d433985" x="796.6615" y="91.255457" style="stroke: #000000"/>
      </g>
     </g>
    </g>
    <g id="ytick_25">
     <g id="line2d_103">
      <g>
       <use xlink:href="#mfa5e7e5b27" x="62.2615" y="82.417654" style="stroke: #000000"/>
      </g>
     </g>
     <g id="line2d_104">
      <g>
       <use xlink:href="#m6b4d433985" x="796.6615" y="82.417654" style="stroke: #000000"/>
      </g>
     </g>
    </g>
    <g id="ytick_26">
     <g id="line2d_105">
      <g>
       <use xlink:href="#mfa5e7e5b27" x="62.2615" y="64.742047" style="stroke: #000000"/>
      </g>
     </g>
     <g id="line2d_106">
      <g>
       <use xlink:href="#m6b4d433985" x="796.6615" y="64.742047" style="stroke: #000000"/>
      </g>
     </g>
    </g>
    <g id="ytick_27">
     <g id="line2d_107">
      <g>
       <use xlink:href="#mfa5e7e5b27" x="62.2615" y="55.904244" style="stroke: #000000"/>
      </g>
     </g>
     <g id="line2d_108">
      <g>
       <use xlink:href="#m6b4d433985" x="796.6615" y="55.904244" style="stroke: #000000"/>
      </g>
     </g>
    </g>
    <g id="ytick_28">
     <g id="line2d_109">
      <g>
       <use xlink:href="#mfa5e7e5b27" x="62.2615" y="47.066441" style="stroke: #000000"/>
      </g>
     </g>
     <g id="line2d_110">
      <g>
       <use xlink:href="#m6b4d433985" x="796.6615" y="47.066441" style="stroke: #000000"/>
      </g>
     </g>
    </g>
    <g id="ytick_29">
     <g id="line2d_111">
      <g>
       <use xlink:href="#mfa5e7e5b27" x="62.2615" y="29.390835" style="stroke: #000000"/>
      </g>
     </g>
     <g id="line2d_112">
      <g>
       <use xlink:href="#m6b4d433985" x="796.6615" y="29.390835" style="stroke: #000000"/>
      </g>
     </g>
    </g>
    <g id="ytick_30">
     <g id="line2d_113">
      <g>
       <use xlink:href="#mfa5e7e5b27" x="62.2615" y="20.553031" style="stroke: #000000"/>
      </g>
     </g>
     <g id="line2d_114">
      <g>
       <use xlink:href="#m6b4d433985" x="796.6615" y="20.553031" style="stroke: #000000"/>
      </g>
     </g>
    </g>
    <g id="ytick_31">
     <g id="line2d_115">
      <g>
       <use xlink:href="#mfa5e7e5b27" x="62.2615" y="11.715228" style="stroke: #000000"/>
      </g>
     </g>
     <g id="line2d_116">
      <g>
       <use xlink:href="#m6b4d433985" x="796.6615" y="11.715228" style="stroke: #000000"/>
      </g>
     </g>
    </g>
    <g id="text_16">
     <!-- $B$ -->
     <g transform="translate(15.7575 147.72) rotate(-90)">
      <text>
       <tspan style="font: oblique 16px 'DejaVu Sans'" x="0" y="-0.328125">B</tspan>
      </text>
     </g>
     <text style="font: 16px 'DejaVu Sans', 'Arial', 'Helvetica', 'Lucida Grande', 'Verdana', 'Geneva', 'Lucid', 'Avant Garde', sans-serif" transform="translate(33.674 178.28625) rotate(-90)">[nT LMN]</text>
    </g>
   </g>
   <g id="line2d_117">
    <path d="M 95.643318 58.959632 
L 98.436775 60.053715 
L 101.230232 59.114753 
L 104.023689 57.753301 
L 106.817146 56.264219 
L 112.404064 52.648572 
L 115.197521 51.753502 
L 117.990978 50.713324 
L 120.784435 51.176979 
L 123.577892 51.527956 
L 126.371353 51.233206 
L 129.16481 50.361903 
L 131.958267 50.258208 
L 134.751724 51.964635 
L 137.545181 54.907774 
L 140.338638 57.313683 
L 143.132092 59.205836 
L 145.925556 60.595847 
L 148.719013 63.929533 
L 151.51247 70.951312 
L 154.305927 75.456955 
L 157.09938 81.309856 
L 159.892838 82.870062 
L 162.686302 83.297366 
L 165.479759 86.786099 
L 168.273216 86.656387 
L 171.066673 86.134711 
L 173.860126 86.360103 
L 176.653584 86.355449 
L 179.447041 83.854178 
L 182.240505 82.733274 
L 185.033962 77.667861 
L 187.827419 75.637159 
L 190.620872 74.941139 
L 193.41433 73.68822 
L 196.207787 73.661783 
L 199.001251 72.640719 
L 201.794708 73.485329 
L 204.588165 72.759485 
L 210.175076 69.487941 
L 212.968533 70.437267 
L 218.555454 73.413209 
L 224.142365 75.927374 
L 226.935822 76.237339 
L 232.522736 79.98185 
L 235.3162 80.670748 
L 238.109657 81.006199 
L 240.903111 79.831427 
L 243.696568 78.835336 
L 249.283482 78.060734 
L 252.076946 78.047542 
L 254.870403 79.001172 
L 257.663857 79.267986 
L 260.457314 81.666735 
L 263.250771 84.776477 
L 266.044228 86.505921 
L 268.837692 89.858268 
L 271.631149 90.146424 
L 274.424603 91.527259 
L 280.011517 99.924893 
L 285.598431 109.704553 
L 288.391895 111.318708 
L 291.185349 109.069291 
L 293.978806 108.403884 
L 296.772263 105.985021 
L 299.56572 103.94109 
L 302.359177 102.207041 
L 305.152641 99.883472 
L 307.946095 97.297903 
L 310.739552 95.475792 
L 313.533009 96.271221 
L 316.326466 94.056875 
L 319.119923 94.663618 
L 321.913387 97.899663 
L 324.706841 105.625696 
L 327.500298 113.710943 
L 330.293755 121.186885 
L 333.087212 129.418718 
L 335.880669 131.309497 
L 338.674126 130.433069 
L 341.467587 128.410682 
L 347.054501 119.168775 
L 349.847958 117.165087 
L 352.641415 119.034274 
L 355.434872 125.217693 
L 358.228333 125.081399 
L 361.02179 116.989801 
L 363.815247 105.349571 
L 366.608704 95.402732 
L 369.402161 89.273565 
L 372.195618 81.328407 
L 374.989071 78.974448 
L 377.782536 75.010364 
L 380.575993 69.700065 
L 383.36945 65.61656 
L 386.162907 58.658829 
L 388.956364 59.601524 
L 391.749817 62.170423 
L 394.543282 64.149046 
L 397.336739 77.610484 
L 402.923653 99.304783 
L 405.71711 105.029318 
L 408.510563 109.834611 
L 411.304028 111.505746 
L 414.097485 116.18057 
L 416.890942 122.532399 
L 419.684399 126.722225 
L 422.477856 131.832771 
L 425.271309 133.376835 
L 428.064766 131.178805 
L 430.858231 135.142275 
L 433.651688 144.785219 
L 436.445145 148.016764 
L 439.238602 156.578918 
L 442.032055 162.947331 
L 444.825512 165.226885 
L 447.618977 168.317215 
L 453.205891 196.680048 
L 455.999348 195.385802 
L 458.792801 193.343169 
L 461.586258 191.768816 
L 464.379723 194.366863 
L 467.17318 200.314513 
L 469.966637 202.240186 
L 472.760094 200.417439 
L 475.553547 201.775371 
L 478.347004 200.880351 
L 481.140461 197.353246 
L 483.933926 198.01832 
L 486.727383 196.768616 
L 489.52084 201.499626 
L 492.314293 208.567786 
L 495.10775 207.957466 
L 497.901207 206.889207 
L 500.694672 206.293571 
L 503.488129 208.026866 
L 506.281586 209.18156 
L 509.075039 215.325929 
L 511.868496 216.43054 
L 514.661953 215.030915 
L 523.042328 205.868217 
L 525.835785 204.05447 
L 528.629242 204.154636 
L 531.422699 205.504747 
L 534.216156 205.873243 
L 537.009621 204.42119 
L 539.803074 200.711342 
L 542.596531 193.653059 
L 545.389988 188.399661 
L 548.183445 184.089309 
L 550.976902 182.70448 
L 553.770367 185.083873 
L 556.56382 186.698661 
L 559.357277 184.726329 
L 562.150734 183.263374 
L 564.944191 184.256314 
L 567.737648 184.619028 
L 570.531105 186.537427 
L 573.324566 190.263011 
L 576.118023 198.28731 
L 578.91148 204.243773 
L 581.704937 204.014136 
L 584.498394 202.235225 
L 587.291851 197.538988 
L 590.085312 193.725389 
L 592.878769 193.530511 
L 595.672226 193.213745 
L 601.25914 194.082264 
L 604.052597 196.084724 
L 606.846058 197.1444 
L 609.639515 200.96392 
L 612.432972 205.505787 
L 615.226429 207.139273 
L 618.019886 211.849435 
L 620.813343 215.493438 
L 623.6068 216.488105 
L 626.400261 216.262823 
L 629.193718 214.596211 
L 631.987175 211.183903 
L 637.574089 206.429692 
L 640.367546 205.831243 
L 643.161007 203.349824 
L 645.954464 201.071497 
L 648.747921 199.727387 
L 651.541378 199.598744 
L 654.334835 201.755109 
L 657.128292 205.484019 
L 659.921753 210.602291 
L 662.71521 214.364229 
L 665.508667 216.905793 
L 671.095581 219.716195 
L 673.889038 220.973185 
L 676.682491 221.887579 
L 679.475956 220.418715 
L 682.269413 219.905474 
L 685.06287 220.856805 
L 690.649784 219.670592 
L 693.443237 220.266724 
L 696.236702 222.522012 
L 699.030159 223.437957 
L 701.823616 225.606439 
L 704.617073 227.46516 
L 707.41053 228.375044 
L 710.203983 228.873718 
L 712.99744 230.933934 
L 715.790905 232.400928 
L 718.584362 234.452144 
L 721.377819 232.817154 
L 724.171272 228.050751 
L 726.964729 227.49628 
L 729.758186 225.834002 
L 732.551651 223.753591 
L 735.345108 221.81446 
L 738.138565 220.206628 
L 740.932018 220.702984 
L 743.725475 220.89536 
L 746.518932 219.849588 
L 749.312397 220.822696 
L 752.105854 221.578432 
L 754.899311 220.958453 
L 757.692764 219.387201 
L 760.486221 219.302784 
L 763.279678 221.161657 
L 763.279678 221.161657 
" clip-path="url(#pb344a0070f)" style="fill: none; stroke: #0000ff; stroke-width: 2; stroke-linecap: square"/>
   </g>
   <g id="line2d_118">
    <path d="M 95.643318 234.326636 
L 98.436775 234.742109 
L 104.023689 230.727726 
L 106.817146 230.06616 
L 109.610607 227.428808 
L 112.404064 225.626766 
L 115.197521 224.4761 
L 117.990978 225.203342 
L 123.577892 224.088046 
L 126.371353 223.37002 
L 129.16481 222.423749 
L 131.958267 223.97648 
L 134.751724 228.479963 
L 140.338638 232.617072 
L 143.132092 233.906051 
L 145.925556 237.582491 
L 151.51247 247.293978 
L 154.305927 250.786089 
L 157.09938 251.901641 
L 159.892838 252.540564 
L 165.479759 252.500671 
L 168.273216 253.753716 
L 171.066673 256.127452 
L 173.860126 256.327617 
L 176.653584 254.865461 
L 182.240505 249.504375 
L 185.033962 245.890652 
L 187.827419 244.201808 
L 190.620872 242.315891 
L 193.41433 240.215419 
L 196.207787 238.644158 
L 199.001251 237.66563 
L 201.794708 236.404892 
L 204.588165 237.415876 
L 207.381618 235.920725 
L 210.175076 237.025115 
L 212.968533 240.142096 
L 215.761997 243.809629 
L 221.348911 245.818077 
L 224.142365 245.952365 
L 226.935822 245.857661 
L 229.729279 245.994484 
L 232.522736 247.583242 
L 235.3162 247.275929 
L 238.109657 246.845188 
L 240.903111 246.915328 
L 243.696568 248.684165 
L 246.490025 251.090127 
L 249.283482 251.098355 
L 254.870403 252.18381 
L 257.663857 253.14265 
L 260.457314 252.870587 
L 263.250771 253.671749 
L 266.044228 254.356666 
L 268.837692 254.640687 
L 271.631149 254.436935 
L 274.424603 255.91946 
L 277.21806 257.640086 
L 280.011517 259.991685 
L 282.804974 260.805513 
L 285.598431 260.888278 
L 288.391895 259.470315 
L 291.185349 258.503052 
L 293.978806 258.379061 
L 296.772263 258.732068 
L 302.359177 257.075892 
L 305.152641 254.128656 
L 307.946095 252.320566 
L 310.739552 252.820808 
L 313.533009 252.327542 
L 316.326466 250.561095 
L 319.119923 253.092083 
L 321.913387 256.472544 
L 324.706841 260.13477 
L 327.500298 263.570764 
L 330.293755 264.921213 
L 333.087212 265.7511 
L 335.880669 264.497234 
L 338.674126 261.453085 
L 341.467587 260.240973 
L 344.261044 260.363142 
L 349.847958 261.3345 
L 352.641415 263.69047 
L 355.434872 262.608974 
L 358.228333 258.917003 
L 361.02179 254.559143 
L 363.815247 250.748472 
L 366.608704 247.785418 
L 369.402161 243.42261 
L 372.195618 239.84616 
L 374.989071 239.160098 
L 377.782536 236.695297 
L 380.575993 231.407898 
L 383.36945 227.285477 
L 386.162907 220.922765 
L 388.956364 225.869548 
L 391.749817 236.441151 
L 394.543282 240.282166 
L 397.336739 246.885111 
L 400.130196 249.105325 
L 402.923653 256.22506 
L 405.71711 257.417502 
L 408.510563 254.884712 
L 411.304028 256.164213 
L 414.097485 258.430859 
L 416.890942 258.239899 
L 419.684399 257.517565 
L 422.477856 254.222564 
L 425.271309 257.486073 
L 428.064766 263.58863 
L 430.858231 263.669566 
L 433.651688 263.625843 
L 436.445145 266.179861 
L 439.238602 268.2 
L 442.032055 266.655595 
L 444.825512 265.361721 
L 447.618977 266.149068 
L 450.412434 263.866725 
L 453.205891 255.579811 
L 455.999348 253.356582 
L 458.792801 256.598844 
L 461.586258 260.795701 
L 464.379723 260.424023 
L 467.17318 258.333613 
L 469.966637 255.644695 
L 475.553547 252.707493 
L 478.347004 251.556788 
L 481.140461 253.483745 
L 483.933926 252.972041 
L 486.727383 252.873967 
L 489.52084 253.178976 
L 492.314293 249.052575 
L 497.901207 247.198492 
L 500.694672 248.22797 
L 503.488129 247.831972 
L 506.281586 247.112371 
L 509.075039 243.555968 
L 511.868496 241.696527 
L 514.661953 242.202181 
L 517.45541 241.755546 
L 520.248875 243.659065 
L 523.042328 244.851707 
L 525.835785 245.733379 
L 528.629242 248.013084 
L 531.422699 247.638971 
L 534.216156 246.949584 
L 537.009621 245.584416 
L 539.803074 245.622238 
L 545.389988 248.560258 
L 548.183445 252.188507 
L 550.976902 254.633096 
L 553.770367 254.983222 
L 556.56382 254.200964 
L 559.357277 254.669107 
L 562.150734 254.943102 
L 567.737648 259.862063 
L 570.531105 258.699058 
L 573.324566 258.484308 
L 576.118023 255.644775 
L 578.91148 251.820134 
L 581.704937 250.793476 
L 584.498394 250.876085 
L 587.291851 253.06344 
L 590.085312 254.653908 
L 592.878769 255.57981 
L 595.672226 254.117055 
L 598.465683 254.108757 
L 601.25914 253.696505 
L 604.052597 254.354472 
L 606.846058 253.45309 
L 609.639515 253.32424 
L 612.432972 251.45367 
L 615.226429 249.413665 
L 620.813343 240.65802 
L 623.6068 240.065203 
L 626.400261 239.864921 
L 629.193718 239.412017 
L 631.987175 240.995393 
L 634.780632 243.111008 
L 637.574089 244.50926 
L 640.367546 244.172 
L 643.161007 244.834458 
L 645.954464 244.952423 
L 648.747921 245.612639 
L 651.541378 245.05393 
L 654.334835 243.487568 
L 657.128292 242.192018 
L 665.508667 235.290962 
L 668.302124 234.176883 
L 671.095581 233.276124 
L 673.889038 232.17981 
L 676.682491 232.41791 
L 682.269413 233.680947 
L 685.06287 233.505837 
L 687.856327 234.235685 
L 690.649784 237.662934 
L 693.443237 237.904875 
L 696.236702 235.77075 
L 699.030159 236.201024 
L 704.617073 232.42652 
L 707.41053 231.492814 
L 710.203983 232.301893 
L 712.99744 230.457805 
L 715.790905 230.374405 
L 718.584362 227.51333 
L 721.377819 227.094998 
L 724.171272 230.036658 
L 726.964729 230.55316 
L 729.758186 230.926667 
L 732.551651 232.121132 
L 735.345108 235.082286 
L 738.138565 237.422037 
L 740.932018 238.771661 
L 743.725475 238.580499 
L 746.518932 239.209325 
L 749.312397 238.507562 
L 752.105854 237.986969 
L 754.899311 238.176419 
L 760.486221 240.107405 
L 763.279678 238.267765 
L 763.279678 238.267765 
" clip-path="url(#pb344a0070f)" style="fill: none; stroke: #008000; stroke-width: 2; stroke-linecap: square"/>
   </g>
   <g id="line2d_119">
    <path d="M 95.643318 138.18122 
L 98.436775 136.289117 
L 104.023689 132.084187 
L 109.610607 128.371204 
L 112.404064 127.260086 
L 115.197521 127.752585 
L 117.990978 129.415867 
L 120.784435 129.847223 
L 123.577892 130.891543 
L 126.371353 132.337032 
L 129.16481 132.435937 
L 131.958267 132.2614 
L 134.751724 134.158629 
L 137.545181 134.338788 
L 140.338638 135.273036 
L 143.132092 136.951813 
L 145.925556 139.727078 
L 148.719013 139.943928 
L 151.51247 140.507879 
L 154.305927 140.36168 
L 157.09938 138.846356 
L 159.892838 137.952879 
L 162.686302 137.806122 
L 165.479759 138.02498 
L 168.273216 139.204896 
L 171.066673 138.772782 
L 176.653584 136.412482 
L 179.447041 136.096144 
L 182.240505 134.75805 
L 185.033962 134.130554 
L 187.827419 134.419201 
L 190.620872 133.512074 
L 193.41433 132.786749 
L 196.207787 131.08486 
L 201.794708 124.449933 
L 207.381618 120.999651 
L 212.968533 118.690847 
L 215.761997 120.285622 
L 218.555454 119.217847 
L 221.348911 119.549939 
L 224.142365 120.888725 
L 229.729279 121.729429 
L 232.522736 122.053619 
L 235.3162 121.259022 
L 238.109657 118.852891 
L 240.903111 117.120549 
L 243.696568 119.533972 
L 246.490025 122.506932 
L 249.283482 124.171683 
L 252.076946 125.118909 
L 254.870403 127.683537 
L 257.663857 130.081674 
L 260.457314 130.270477 
L 263.250771 133.288615 
L 266.044228 137.328533 
L 268.837692 140.08198 
L 271.631149 139.99121 
L 274.424603 141.073807 
L 277.21806 140.451688 
L 280.011517 141.009694 
L 282.804974 142.302011 
L 285.598431 143.027064 
L 288.391895 144.056148 
L 291.185349 144.215939 
L 293.978806 143.088796 
L 299.56572 137.821121 
L 302.359177 135.703336 
L 305.152641 134.948354 
L 307.946095 134.457941 
L 310.739552 135.616083 
L 313.533009 137.091392 
L 319.119923 144.317454 
L 321.913387 145.541122 
L 324.706841 147.232386 
L 327.500298 146.124037 
L 330.293755 144.850024 
L 333.087212 141.994574 
L 335.880669 137.560419 
L 338.674126 134.99658 
L 341.467587 130.481684 
L 344.261044 128.879115 
L 347.054501 129.811263 
L 349.847958 133.3302 
L 352.641415 138.458928 
L 355.434872 146.068966 
L 358.228333 151.139681 
L 361.02179 153.602894 
L 363.815247 153.749384 
L 366.608704 152.959222 
L 369.402161 151.335917 
L 372.195618 147.987823 
L 374.989071 144.916868 
L 380.575993 140.889569 
L 383.36945 139.371409 
L 386.162907 135.924296 
L 391.749817 125.037497 
L 394.543282 121.865223 
L 397.336739 117.455007 
L 400.130196 114.696558 
L 402.923653 114.773927 
L 405.71711 110.420981 
L 408.510563 108.711409 
L 411.304028 109.693976 
L 414.097485 111.424062 
L 416.890942 113.789671 
L 419.684399 118.585187 
L 422.477856 124.069608 
L 425.271309 126.799504 
L 428.064766 128.788726 
L 430.858231 130.958412 
L 436.445145 134.071531 
L 439.238602 136.277951 
L 442.032055 138.077611 
L 444.825512 140.233898 
L 447.618977 141.723367 
L 450.412434 140.282748 
L 453.205891 139.979998 
L 455.999348 137.158785 
L 458.792801 132.027879 
L 461.586258 128.462792 
L 464.379723 128.780282 
L 467.17318 128.227665 
L 469.966637 125.716225 
L 472.760094 122.289459 
L 475.553547 122.051424 
L 478.347004 122.543909 
L 481.140461 123.853715 
L 483.933926 123.452577 
L 486.727383 126.351094 
L 489.52084 129.0428 
L 492.314293 130.834508 
L 495.10775 134.686305 
L 497.901207 135.620585 
L 500.694672 135.802018 
L 503.488129 134.863424 
L 506.281586 133.539211 
L 509.075039 131.01897 
L 511.868496 129.91455 
L 514.661953 130.936276 
L 517.45541 132.677588 
L 520.248875 130.795314 
L 523.042328 130.220655 
L 525.835785 127.534773 
L 528.629242 127.095104 
L 531.422699 129.349657 
L 534.216156 132.883371 
L 537.009621 133.557583 
L 539.803074 132.643005 
L 542.596531 127.223109 
L 545.389988 122.57136 
L 548.183445 118.168298 
L 550.976902 115.519885 
L 553.770367 115.708007 
L 556.56382 118.265051 
L 559.357277 116.018444 
L 562.150734 114.376998 
L 564.944191 114.799663 
L 567.737648 117.151974 
L 570.531105 123.068666 
L 573.324566 127.433405 
L 576.118023 132.357462 
L 578.91148 135.080732 
L 581.704937 136.700321 
L 584.498394 137.465143 
L 587.291851 135.12111 
L 590.085312 134.032182 
L 592.878769 133.509892 
L 595.672226 132.859718 
L 598.465683 131.194971 
L 601.25914 130.665324 
L 604.052597 131.163874 
L 606.846058 132.941998 
L 609.639515 135.166821 
L 612.432972 138.518024 
L 615.226429 139.547254 
L 618.019886 141.718911 
L 620.813343 143.467116 
L 623.6068 145.071122 
L 626.400261 146.297026 
L 629.193718 144.920508 
L 634.780632 139.268237 
L 640.367546 135.417525 
L 643.161007 132.565525 
L 645.954464 126.392004 
L 648.747921 121.254589 
L 651.541378 116.888944 
L 654.334835 111.795908 
L 657.128292 111.182239 
L 659.921753 114.351635 
L 662.71521 118.149504 
L 665.508667 120.041043 
L 668.302124 120.547894 
L 671.095581 121.841604 
L 673.889038 124.709288 
L 676.682491 127.104395 
L 682.269413 132.71871 
L 685.06287 134.716116 
L 690.649784 137.741562 
L 693.443237 140.616578 
L 696.236702 141.638266 
L 699.030159 142.110733 
L 701.823616 142.391089 
L 704.617073 142.194752 
L 707.41053 140.568175 
L 710.203983 137.329394 
L 712.99744 136.300765 
L 715.790905 136.020579 
L 718.584362 137.307651 
L 721.377819 138.973635 
L 724.171272 139.905122 
L 726.964729 140.654269 
L 729.758186 138.884175 
L 735.345108 134.957376 
L 738.138565 132.573821 
L 740.932018 131.82415 
L 743.725475 132.910261 
L 746.518932 135.543714 
L 749.312397 136.580052 
L 752.105854 134.998485 
L 754.899311 134.045329 
L 757.692764 132.623263 
L 763.279678 132.251926 
L 763.279678 132.251926 
" clip-path="url(#pb344a0070f)" style="fill: none; stroke: #ff0000; stroke-width: 2; stroke-linecap: square"/>
   </g>
   <g id="line2d_120">
    <path d="M 95.643318 20.084196 
L 98.436775 20.422184 
L 101.230232 21.07044 
L 104.023689 21.364122 
L 106.817146 20.579296 
L 109.610607 20.882765 
L 112.404064 20.575296 
L 115.197521 20.727211 
L 117.990978 19.685415 
L 123.577892 21.190292 
L 126.371353 21.580648 
L 129.16481 21.532686 
L 131.958267 20.442893 
L 134.751724 18.925643 
L 137.545181 19.631666 
L 140.338638 19.993344 
L 143.132092 20.491496 
L 148.719013 17.300447 
L 151.51247 17.778967 
L 154.305927 17.414794 
L 157.09938 19.474414 
L 162.686302 19.853297 
L 165.479759 21.578629 
L 168.273216 20.465803 
L 171.066673 18.104476 
L 173.860126 17.971145 
L 179.447041 20.391181 
L 182.240505 22.0093 
L 187.827419 22.654379 
L 190.620872 23.722 
L 193.41433 24.620939 
L 196.207787 25.683833 
L 199.001251 25.43227 
L 201.794708 26.417499 
L 204.588165 24.897153 
L 207.381618 24.748531 
L 212.968533 20.600784 
L 215.761997 18.910407 
L 221.348911 18.747809 
L 224.142365 19.556747 
L 226.935822 19.892327 
L 229.729279 20.836383 
L 232.522736 20.590128 
L 235.3162 21.058134 
L 238.109657 21.117077 
L 240.903111 20.083988 
L 243.696568 18.601987 
L 246.490025 16.947314 
L 249.283482 17.0054 
L 252.076946 16.699656 
L 254.870403 17.082112 
L 257.663857 16.692716 
L 260.457314 18.153542 
L 263.250771 19.270846 
L 266.044228 19.771903 
L 268.837692 21.162035 
L 271.631149 21.468789 
L 274.424603 20.766096 
L 277.21806 20.924987 
L 280.011517 20.318756 
L 282.804974 21.240896 
L 285.598431 22.651054 
L 288.391895 24.470206 
L 291.185349 24.756779 
L 293.978806 24.671409 
L 296.772263 23.533005 
L 299.56572 23.493951 
L 302.359177 23.591252 
L 305.152641 25.435303 
L 307.946095 26.060785 
L 310.739552 24.960071 
L 316.326466 26.678716 
L 319.119923 24.693035 
L 321.913387 22.875572 
L 324.706841 22.115036 
L 327.500298 21.12489 
L 333.087212 21.886058 
L 335.880669 23.182679 
L 338.674126 25.931006 
L 341.467587 26.431594 
L 344.261044 25.416014 
L 347.054501 24.197634 
L 349.847958 23.631901 
L 352.641415 22.095167 
L 355.434872 24.416276 
L 358.228333 27.848526 
L 361.02179 30.296573 
L 363.815247 30.526254 
L 366.608704 29.489421 
L 369.402161 30.684222 
L 372.195618 29.78609 
L 374.989071 29.098439 
L 377.782536 28.781131 
L 380.575993 29.543919 
L 383.36945 29.818557 
L 386.162907 29.065111 
L 388.956364 25.897088 
L 391.749817 19.358395 
L 394.543282 17.239615 
L 397.336739 19.013877 
L 400.130196 21.897305 
L 402.923653 20.085238 
L 405.71711 19.835656 
L 408.510563 23.101308 
L 414.097485 22.219722 
L 416.890942 24.327302 
L 419.684399 26.847501 
L 422.477856 31.80824 
L 425.271309 29.218487 
L 428.064766 23.262621 
L 433.651688 24.35293 
L 439.238602 19.498949 
L 442.032055 20.338292 
L 444.825512 21.337988 
L 450.412434 18.712781 
L 455.999348 23.619446 
L 458.792801 21.106983 
L 461.586258 17.472948 
L 467.17318 16.2 
L 469.966637 17.375201 
L 472.760094 18.882738 
L 475.553547 19.559807 
L 478.347004 21.06004 
L 483.933926 21.25828 
L 486.727383 22.345824 
L 489.52084 20.328423 
L 492.314293 20.628385 
L 497.901207 23.508107 
L 503.488129 22.320696 
L 506.281586 22.211154 
L 509.075039 21.488215 
L 511.868496 22.211233 
L 514.661953 22.743009 
L 517.45541 25.014284 
L 520.248875 24.988214 
L 523.042328 25.518782 
L 525.835785 25.347335 
L 528.629242 23.285669 
L 531.422699 23.229476 
L 534.216156 24.016078 
L 537.009621 25.98675 
L 539.803074 27.708266 
L 542.596531 28.932549 
L 545.389988 28.993053 
L 548.183445 26.340365 
L 550.976902 23.945897 
L 553.770367 22.89052 
L 556.56382 23.625061 
L 562.150734 23.205152 
L 564.944191 20.693817 
L 567.737648 18.895699 
L 570.531105 20.481166 
L 573.324566 20.023609 
L 576.118023 19.942616 
L 578.91148 20.813898 
L 581.704937 21.930257 
L 584.498394 22.76167 
L 590.085312 22.908544 
L 592.878769 22.099733 
L 595.672226 23.499653 
L 598.465683 23.174866 
L 601.25914 23.29908 
L 604.052597 21.9243 
L 606.846058 22.457515 
L 609.639515 21.050583 
L 612.432972 20.721553 
L 615.226429 21.701563 
L 618.019886 22.934749 
L 620.813343 24.44915 
L 623.6068 24.329481 
L 626.400261 24.610641 
L 629.193718 25.985512 
L 631.987175 26.665385 
L 634.780632 26.152891 
L 637.574089 26.146499 
L 643.161007 27.077334 
L 645.954464 27.322643 
L 648.747921 26.501645 
L 651.541378 26.107692 
L 657.128292 24.1674 
L 659.921753 24.117281 
L 662.71521 24.591932 
L 665.508667 25.352073 
L 671.095581 25.48091 
L 673.889038 26.00052 
L 676.682491 25.599705 
L 679.475956 26.457869 
L 682.269413 26.618746 
L 685.06287 26.316121 
L 687.856327 26.278273 
L 690.649784 24.090237 
L 693.443237 23.649509 
L 696.236702 23.872195 
L 699.030159 22.958768 
L 707.41053 23.075569 
L 710.203983 22.005919 
L 712.99744 21.814175 
L 715.790905 20.811603 
L 718.584362 21.373128 
L 721.377819 22.937506 
L 724.171272 24.323405 
L 726.964729 24.363978 
L 729.758186 25.172772 
L 732.551651 25.595746 
L 738.138565 23.548643 
L 740.932018 22.120199 
L 743.725475 22.253419 
L 746.518932 22.635552 
L 749.312397 22.64279 
L 752.105854 22.456771 
L 757.692764 22.702526 
L 760.486221 22.009802 
L 763.279678 22.264078 
L 763.279678 22.264078 
" clip-path="url(#pb344a0070f)" style="fill: none; stroke: #000000; stroke-width: 2; stroke-linecap: square"/>
   </g>
   <g id="patch_3">
    <path d="M 62.2615 280.8 
L 62.2615 3.6 
" style="fill: none; stroke: #000000; stroke-linejoin: miter; stroke-linecap: square"/>
   </g>
   <g id="patch_4">
    <path d="M 796.6615 280.8 
L 796.6615 3.6 
" style="fill: none; stroke: #000000; stroke-linejoin: miter; stroke-linecap: square"/>
   </g>
   <g id="patch_5">
    <path d="M 62.261497 280.8 
L 796.661499 280.8 
" style="fill: none; stroke: #000000; stroke-linejoin: miter; stroke-linecap: square"/>
   </g>
   <g id="patch_6">
    <path d="M 62.261497 3.6 
L 796.661499 3.6 
" style="fill: none; stroke: #000000; stroke-linejoin: miter; stroke-linecap: square"/>
   </g>
   <g id="legend_1">
    <g id="text_17">
     <!-- $B_l$ -->
     <g transform="translate(722.9015 30.1575)">
      <text>
       <tspan style="font: oblique 16px 'DejaVu Sans'" x="0" y="-0.328125">B</tspan>
       <tspan style="font: oblique 11.2px 'DejaVu Sans'" x="10.976562" y="2.296875">l</tspan>
      </text>
     </g>
    </g>
    <g id="line2d_121">
     <path d="M 750.2615 24.5575 
L 766.2615 24.5575 
L 782.2615 24.5575 
" style="fill: none; stroke: #0000ff; stroke-width: 4; stroke-linecap: square"/>
    </g>
    <g id="text_18">
     <!-- $B_m$ -->
     <g transform="translate(715.0615 53.6425)">
      <text>
       <tspan style="font: oblique 16px 'DejaVu Sans'" x="0" y="-0.328125">B</tspan>
       <tspan style="font: oblique 11.2px 'DejaVu Sans'" x="10.976562" y="2.296875">m</tspan>
      </text>
     </g>
    </g>
    <g id="line2d_122">
     <path d="M 750.2615 48.0425 
L 766.2615 48.0425 
L 782.2615 48.0425 
" style="fill: none; stroke: #008000; stroke-width: 4; stroke-linecap: square"/>
    </g>
    <g id="text_19">
     <!-- $B_n$ -->
     <g transform="translate(718.9015 77.1275)">
      <text>
       <tspan style="font: oblique 16px 'DejaVu Sans'" x="0" y="-0.328125">B</tspan>
       <tspan style="font: oblique 11.2px 'DejaVu Sans'" x="10.976562" y="2.296875">n</tspan>
      </text>
     </g>
    </g>
    <g id="line2d_123">
     <path d="M 750.2615 71.5275 
L 766.2615 71.5275 
L 782.2615 71.5275 
" style="fill: none; stroke: #ff0000; stroke-width: 4; stroke-linecap: square"/>
    </g>
    <g id="text_20">
     <!-- $B_{total}$ -->
     <g transform="translate(700.3415 100.6125)">
      <text>
       <tspan style="font: oblique 16px 'DejaVu Sans'" x="0" y="-0.328125">B</tspan>
       <tspan style="font: oblique 11.2px 'DejaVu Sans'" x="10.976562 15.367969 22.220312 26.611719 33.475" y="2.296875">total</tspan>
      </text>
     </g>
    </g>
    <g id="line2d_124">
     <path d="M 750.2615 95.0125 
L 766.2615 95.0125 
L 782.2615 95.0125 
" style="fill: none; stroke: #000000; stroke-width: 4; stroke-linecap: square"/>
    </g>
   </g>
  </g>
 </g>
 <defs>
  <clipPath id="pb344a0070f">
   <rect x="62.2615" y="3.6" width="734.4" height="277.2"/>
  </clipPath>
 </defs>
</svg>
